<?xml version="1.0" encoding="utf-8"?>
<svg xmlns="http://www.w3.org/2000/svg" width="100%" height="100%">
<defs>
<font id="MyriadApple-Bold" horiz-adv-x="433"><font-face font-family="MyriadApple-Bold" units-per-em="1000" panose-1="2 0 7 0 0 0 0 0 0 0" ascent="843" descent="-250" alphabetic="0"/>
<missing-glyph horiz-adv-x="500" d="M63 0V750H438V0H63ZM125 63H375V688H125V63Z"/>
<glyph unicode=" " glyph-name="space" horiz-adv-x="232"/>
<glyph unicode="!" glyph-name="exclam" horiz-adv-x="253" d="M195 674L176 211H77L58 674H195ZM205 69Q205 34 183 12T125 -11Q91 -11 70 12T48 69Q48 105 70 128T126 151Q162 151 183 128T205 69Z"/>
<glyph unicode="&quot;" glyph-name="quotedbl" horiz-adv-x="374" d="M334 692L313 432H237L216 692H334ZM158 692L137 432H61L40 692H158Z"/>
<glyph unicode="#" glyph-name="numbersign" horiz-adv-x="525" d="M489 389H397L381 266H463V185H367L342 0H263L289 185H195L170 0H91L116 185H35V266H130L147 389H62V469H159L184 650H262L236 469H331L356 650H434L409 469H489V389ZM319 389H225L208 266H302L319 389Z"/>
<glyph unicode="$" glyph-name="dollar" horiz-adv-x="532" d="M472 196Q472 129 428 80T304 17V-87H219V11Q122 14 58 53L86 153Q160 110 241 110Q287 110 315 130T343 184Q343 243 236 282Q152 314 112 352Q65 396 65 462Q65 527 107 573T225 633V731H310V639Q387 637 447 606L420 510Q350 544 285 544Q239 544 214 522Q194 504 194 477Q194 448 222 427Q247 407 313 381Q397 349 434 306T472 196Z"/>
<glyph unicode="%" glyph-name="percent" horiz-adv-x="837" d="M809 198Q809 113 768 56Q722 -8 640 -8Q562 -8 516 52Q475 107 475 188Q475 272 517 329Q564 391 646 391Q726 391 770 333Q809 280 809 198ZM641 661L267 -12H194L569 661H641ZM363 467Q363 383 321 325Q275 261 193 261Q115 261 69 321Q28 376 28 457Q28 542 70 598Q117 661 199 661Q279 661 323 602Q363 550 363 467ZM713 192Q713 319 643 319Q604 319 586 271Q573 237 573 189Q573 143 586 110Q605 64 644 64Q713 64 713 192ZM266 461Q266 589 196 589Q157 589 139 540Q126 506 126 458Q126 412 139 379Q158 333 197 333Q266 333 266 461Z"/>
<glyph unicode="&amp;" glyph-name="ampersand" horiz-adv-x="644" d="M639 0H489Q467 22 439 54Q363 -11 253 -11Q147 -11 85 48Q30 101 30 179Q30 304 158 373V377Q105 439 105 511Q105 580 153 630Q207 685 295 685Q369 685 417 643T465 532Q465 427 328 356V353Q374 298 456 205Q497 269 514 380H630Q602 215 524 127Q561 86 639 0ZM355 528Q355 559 338 580T290 602Q259 602 241 579T223 523Q223 472 270 418Q355 472 355 528ZM378 127Q328 179 216 308Q153 264 153 200Q153 149 187 117T273 84Q337 84 378 127Z"/>
<glyph unicode="'" glyph-name="quotesingle" horiz-adv-x="198" d="M158 692L137 432H61L40 692H158Z"/>
<glyph unicode="(" glyph-name="parenleft" horiz-adv-x="301" d="M272 -118H179Q59 50 60 286Q60 524 179 692H272Q163 526 163 286Q163 54 272 -118Z"/>
<glyph unicode=")" glyph-name="parenright" horiz-adv-x="301" d="M241 288Q241 52 122 -118H29Q138 52 138 288Q138 523 29 692H122Q242 527 241 288Z"/>
<glyph unicode="*" glyph-name="asterisk" horiz-adv-x="437" d="M408 450L252 474L251 472L355 350L276 304L217 453L215 452L156 304L80 350L182 473V476L29 450V540L180 513L181 515L80 639L159 684L217 537H219L277 685L355 640L252 512L408 540V450Z"/>
<glyph unicode="+" glyph-name="plus" horiz-adv-x="596" d="M556 226H341V0H255V226H40V308H255V532H341V308H556V226Z"/>
<glyph unicode="," glyph-name="comma" horiz-adv-x="241" d="M210 157Q159 -7 94 -113L7 -121Q54 11 75 147L210 157Z"/>
<glyph unicode="-" glyph-name="hyphen" horiz-adv-x="313" d="M283 221H30V310H283V221Z"/>
<glyph unicode="." glyph-name="period" horiz-adv-x="241" d="M208 71Q208 35 186 12T128 -11Q94 -11 72 12T50 71Q50 107 72 130T130 154Q165 154 186 131T208 71Z"/>
<glyph unicode="/" glyph-name="slash" horiz-adv-x="331" d="M333 685L97 -40H9L244 685H333Z"/>
<glyph unicode="0" glyph-name="zero" horiz-adv-x="532" d="M499 329Q499 189 452 101Q391 -11 263 -11Q141 -11 81 101Q33 190 33 323Q33 459 83 549Q145 661 270 661Q393 661 453 551Q499 464 499 329ZM369 326Q369 561 266 561Q204 561 178 466Q162 406 162 323Q162 88 266 88Q369 88 369 326Z"/>
<glyph unicode="1" glyph-name="one" horiz-adv-x="532" d="M358 0H232V533H230L111 474L89 571L250 650H358V0Z"/>
<glyph unicode="2" glyph-name="two" horiz-adv-x="532" d="M481 0H42V79L120 152Q240 266 283 321Q337 391 338 451Q338 556 226 556Q159 556 90 503L53 596Q136 661 252 661Q355 661 413 603Q467 549 467 463Q467 384 414 304Q371 239 280 159L224 109V107H481V0Z"/>
<glyph unicode="3" glyph-name="three" horiz-adv-x="532" d="M472 186Q472 101 406 46Q336 -11 219 -11Q107 -11 39 33L66 131Q135 92 212 92Q274 92 308 123Q339 150 338 192Q338 244 294 273Q256 299 196 299H141V393H194Q242 393 277 413Q318 437 318 480Q318 514 294 535Q267 558 218 558Q149 558 88 519L60 612Q132 661 247 661Q343 661 398 613Q450 569 450 501Q450 392 332 350V348Q393 336 431 295Q472 250 472 186Z"/>
<glyph unicode="4" glyph-name="four" horiz-adv-x="532" d="M511 163H430V0H308V163H20V247L277 650H430V261H511V163ZM312 543H309Q291 504 251 430L142 261H308V428Q308 472 312 543Z"/>
<glyph unicode="5" glyph-name="five" horiz-adv-x="532" d="M475 215Q475 120 404 56Q330 -11 212 -11Q108 -11 41 26L66 124Q129 91 207 91Q263 91 301 120Q343 152 343 205Q343 327 162 327Q119 327 76 321L118 650H454V543H209L191 421Q212 424 235 423Q339 423 404 373Q475 317 475 215Z"/>
<glyph unicode="6" glyph-name="six" horiz-adv-x="532" d="M504 222Q504 125 441 59Q376 -11 276 -11Q160 -11 94 70Q31 146 31 270Q31 454 144 561Q231 645 375 657Q413 660 437 659V558Q411 559 376 555Q282 544 226 491Q177 444 163 373H166Q219 433 308 433Q392 433 447 377Q504 318 504 222ZM373 215Q373 270 345 304T266 339Q197 339 167 275Q159 258 159 236Q161 171 189 131Q220 85 275 85Q322 85 349 124Q373 160 373 215Z"/>
<glyph unicode="7" glyph-name="seven" horiz-adv-x="532" d="M487 568L218 0H82L350 543H51V650H487V568Z"/>
<glyph unicode="8" glyph-name="eight" horiz-adv-x="532" d="M500 183Q500 90 426 37Q360 -11 263 -11Q172 -11 107 32Q33 81 33 168Q33 282 152 336V338Q55 387 55 482Q55 567 124 616Q185 661 272 661Q355 661 411 621Q476 576 476 497Q476 399 378 350V348Q500 299 500 183ZM355 483Q355 524 332 548T268 572Q229 572 205 549T180 487Q180 418 280 388Q313 398 334 424T355 483ZM369 173Q369 260 256 292Q166 266 166 182Q166 137 195 109T269 80Q312 80 340 105T369 173Z"/>
<glyph unicode="9" glyph-name="nine" horiz-adv-x="532" d="M499 384Q499 214 415 112Q326 5 162 -7Q117 -11 91 -9V93Q113 91 157 95Q232 101 285 142Q349 192 367 281H364Q315 227 229 227Q145 227 89 283T33 428Q33 524 99 592T267 661Q378 661 440 581Q499 506 499 384ZM367 409Q367 474 344 516Q316 565 261 565Q216 565 189 528T162 436Q162 386 189 354T263 321Q330 321 360 371Q367 383 367 409Z"/>
<glyph unicode=":" glyph-name="colon" horiz-adv-x="241" d="M208 404Q208 368 186 346T128 323Q94 323 73 346T51 404Q51 439 73 462T130 486Q165 486 186 463T208 404ZM207 70Q207 34 185 12T127 -11Q93 -11 72 12T50 70Q50 105 72 128T129 152Q164 152 185 129T207 70Z"/>
<glyph unicode=";" glyph-name="semicolon" horiz-adv-x="241" d="M214 404Q214 368 192 346T134 323Q100 323 79 346T57 404Q57 439 79 462T136 486Q171 486 192 463T214 404ZM209 157Q158 -7 94 -113L7 -121Q54 11 75 147L209 157Z"/>
<glyph unicode="&lt;" glyph-name="less" horiz-adv-x="596" d="M536 0L60 229V303L536 532V438L163 267V265L536 93V0Z"/>
<glyph unicode="=" glyph-name="equal" horiz-adv-x="596" d="M556 329H40V410H556V329ZM556 126H40V208H556V126Z"/>
<glyph unicode="&gt;" glyph-name="greater" horiz-adv-x="596" d="M536 226L60 0V93L440 265V267L60 439V532L536 306V226Z"/>
<glyph unicode="?" glyph-name="question" horiz-adv-x="425" d="M386 533Q386 485 359 438Q343 412 301 362Q247 300 249 230L250 209H136L134 234Q129 319 194 398Q255 472 255 514Q255 581 175 582Q119 583 78 553L48 646Q111 686 204 686Q293 686 342 640Q386 598 386 533ZM269 70Q269 34 247 12T189 -11Q155 -11 134 12T112 70Q112 105 133 128T190 151Q226 151 247 128T269 70Z"/>
<glyph unicode="@" glyph-name="at" horiz-adv-x="749" d="M708 398Q708 289 656 224T525 158Q447 158 443 239H441Q392 158 309 158Q262 158 231 192T200 286Q200 381 264 449Q331 521 433 521Q503 521 547 498L515 313Q510 286 510 266Q510 219 542 218Q580 217 609 261Q641 311 641 393Q641 498 581 562Q517 630 405 630Q285 630 202 543Q116 452 116 309Q116 186 186 116T369 45Q452 45 515 78L531 26Q454 -11 352 -11Q225 -11 138 72Q47 160 47 302Q47 460 148 570Q253 685 415 685Q544 685 626 604T708 398ZM455 446Q438 452 419 452Q365 452 327 405T288 295Q288 229 342 229Q374 229 402 263T438 343L455 446Z"/>
<glyph unicode="A" glyph-name="A" horiz-adv-x="629" d="M606 0H467L410 185H206L153 0H19L229 674H394L606 0ZM390 283L341 442Q336 458 308 571H305Q296 527 274 442L227 283H390Z"/>
<glyph unicode="B" glyph-name="B" horiz-adv-x="575" d="M537 195Q537 111 472 56Q399 -7 221 -7Q134 -7 69 2V665Q140 679 250 679Q376 679 442 637Q513 592 513 509Q513 405 402 364V362Q460 347 497 305Q537 260 537 195ZM383 495Q383 584 264 584Q221 584 197 578V400H255Q315 400 349 426T383 495ZM401 200Q401 253 358 281Q319 307 254 307H197V94Q215 91 259 91Q321 91 358 115Q401 144 401 200Z"/>
<glyph unicode="C" glyph-name="C" horiz-adv-x="577" d="M550 655L522 552Q466 577 396 577Q296 577 235 516Q171 452 171 335Q171 225 230 162T395 98Q471 98 523 121L544 19Q485 -10 375 -10Q216 -10 126 82T35 329Q35 493 138 591Q236 684 391 684Q496 684 550 655Z"/>
<glyph unicode="D" glyph-name="D" horiz-adv-x="672" d="M637 353Q637 176 532 83Q432 -7 232 -7Q138 -7 69 2V665Q155 679 262 679Q440 679 531 606Q637 520 637 353ZM501 349Q501 461 443 519T275 578Q229 578 198 572V99Q214 96 260 96Q374 95 437 159T501 349Z"/>
<glyph unicode="E" glyph-name="E" horiz-adv-x="511" d="M474 0H69V674H459V567H198V402H445V296H198V107H474V0Z"/>
<glyph unicode="F" glyph-name="F" horiz-adv-x="504" d="M457 567H198V388H439V283H198V0H69V674H457V567Z"/>
<glyph unicode="G" glyph-name="G" horiz-adv-x="656" d="M603 30Q500 -7 389 -7Q221 -7 129 82Q34 172 35 330Q35 491 139 588Q241 681 406 681Q517 681 582 650L554 545Q491 573 405 573Q300 573 237 513Q171 450 171 337Q171 225 232 162T393 99Q452 99 477 110V273H366V375H603V30Z"/>
<glyph unicode="H" glyph-name="H" horiz-adv-x="665" d="M596 0H466V293H198V0H69V674H198V406H466V674H596V0Z"/>
<glyph unicode="I" glyph-name="I" horiz-adv-x="267" d="M198 0H69V674H198V0Z"/>
<glyph unicode="J" glyph-name="J" horiz-adv-x="390" d="M327 237Q327 -11 103 -11Q43 -11 0 5L15 109Q51 98 89 98Q143 98 169 127Q198 160 198 240V674H327V237Z"/>
<glyph unicode="K" glyph-name="K" horiz-adv-x="580" d="M585 0H435L255 303L197 233V0H69V674H197V367H200Q225 408 248 441L413 674H572L347 387L585 0Z"/>
<glyph unicode="L" glyph-name="L" horiz-adv-x="489" d="M467 0H69V674H198V109H467V0Z"/>
<glyph unicode="M" glyph-name="M" horiz-adv-x="818" d="M766 0H640L627 269Q619 443 620 548H617Q588 433 541 292L448 9H349L265 288Q227 417 200 548H198Q193 385 186 266L172 0H52L97 674H266L346 415Q380 307 407 178H409Q443 321 475 415L561 674H727L766 0Z"/>
<glyph unicode="N" glyph-name="N" horiz-adv-x="668" d="M599 0H465L301 286Q229 413 184 519L181 518Q188 398 188 228V0H69V674H216L378 395Q439 289 489 169L491 170Q480 287 480 452V674H599V0Z"/>
<glyph unicode="O" glyph-name="O" horiz-adv-x="692" d="M657 344Q657 189 577 92Q492 -11 340 -11Q197 -11 113 91Q35 186 35 332Q35 481 117 580Q204 685 350 685Q494 685 578 584Q657 490 657 344ZM519 339Q519 432 480 500Q433 581 346 581Q257 581 210 499Q170 431 170 335Q170 241 210 174Q258 93 346 93Q435 93 481 176Q519 243 519 339Z"/>
<glyph unicode="P" glyph-name="P" horiz-adv-x="556" d="M523 474Q523 376 465 319Q391 247 254 247Q219 247 197 252V0H69V665Q149 679 258 679Q390 679 456 624T523 474ZM394 469Q394 522 360 551T264 580Q222 580 197 574V353Q217 348 253 348Q319 348 356 380T394 469Z"/>
<glyph unicode="Q" glyph-name="Q" horiz-adv-x="692" d="M662 -8L625 -110Q504 -76 368 -21Q344 -12 324 -11Q201 -4 122 81Q35 175 35 331Q35 487 122 586T352 685Q493 685 577 585Q657 491 657 345Q657 229 610 145Q565 67 491 36V32Q560 13 662 -8ZM520 339Q520 433 482 500Q435 581 348 581Q259 581 211 499Q171 431 171 335Q171 241 211 174Q259 93 347 93Q435 93 482 176Q520 243 520 339Z"/>
<glyph unicode="R" glyph-name="R" horiz-adv-x="567" d="M547 0H414Q396 33 369 159Q355 224 329 249T253 274H197V0H69V665Q148 679 256 679Q399 679 463 625Q522 577 522 488Q522 428 485 381Q452 339 402 321V318Q468 292 494 188Q521 81 523 73Q538 17 547 0ZM393 477Q393 581 269 581Q220 581 197 576V369H264Q324 369 358 398T393 477Z"/>
<glyph unicode="S" glyph-name="S" horiz-adv-x="515" d="M477 194Q477 106 413 50Q344 -10 220 -10Q109 -10 40 31L67 139Q141 97 228 97Q284 97 314 120T345 184Q345 221 319 245T229 293Q50 359 50 489Q50 574 115 629T290 684Q384 684 450 651L420 547Q359 578 287 578Q235 578 206 554Q181 533 181 501Q181 466 211 442Q236 422 306 394Q477 327 477 194Z"/>
<glyph unicode="T" glyph-name="T" horiz-adv-x="521" d="M511 565H324V0H195V565H10V674H511V565Z"/>
<glyph unicode="U" glyph-name="U" horiz-adv-x="658" d="M590 288Q590 138 520 64T323 -11Q68 -11 68 288V674H197V279Q197 94 327 94Q460 94 460 279V674H590V288Z"/>
<glyph unicode="V" glyph-name="V" horiz-adv-x="599" d="M596 674L369 0H221L7 674H149L236 373Q280 219 299 129H301Q322 229 365 371L458 674H596Z"/>
<glyph unicode="W" glyph-name="W" horiz-adv-x="860" d="M849 674L673 0H535L469 307Q444 424 433 519H431Q416 421 389 306L315 0H175L15 674H153L213 376Q231 282 254 141H256Q270 229 303 378L371 674H506L568 372Q593 252 608 144H610Q627 258 653 378L717 674H849Z"/>
<glyph unicode="X" glyph-name="X" horiz-adv-x="586" d="M568 0H419L351 131Q329 174 287 256H285Q275 231 228 131L165 0H18L212 342L25 674H173L241 539Q268 486 294 427H296Q321 489 346 539L413 674H560L369 345L568 0Z"/>
<glyph unicode="Y" glyph-name="Y" horiz-adv-x="570" d="M566 674L347 283V0H218V279L9 674H157L232 504Q267 426 288 371H290Q311 428 345 505L421 674H566Z"/>
<glyph unicode="Z" glyph-name="Z" horiz-adv-x="556" d="M527 0H25V72L355 566H54V674H522V597L197 108H527V0Z"/>
<glyph unicode="[" glyph-name="bracketleft" horiz-adv-x="301" d="M267 -112H72V686H267V612H167V-38H267V-112Z"/>
<glyph unicode="\" glyph-name="backslash" horiz-adv-x="339" d="M330 -40H241L7 685H96L330 -40Z"/>
<glyph unicode="]" glyph-name="bracketright" horiz-adv-x="301" d="M229 -112H34V-38H134V612H34V686H229V-112Z"/>
<glyph unicode="^" glyph-name="asciicircum" horiz-adv-x="596" d="M547 181H452L299 548H296L143 181H49L257 650H339L547 181Z"/>
<glyph unicode="_" glyph-name="underscore" horiz-adv-x="500" d="M500 -125H0V-75H500V-125Z"/>
<glyph unicode="`" glyph-name="grave" horiz-adv-x="300" d="M221 546H133L12 694H136L221 546Z"/>
<glyph unicode="a" glyph-name="a" horiz-adv-x="506" d="M451 0H335L326 53H323Q274 -11 183 -11Q113 -11 70 34Q31 75 31 135Q31 226 106 273T314 320V328Q314 407 219 407Q147 407 90 372L65 455Q136 498 242 498Q444 498 444 292V117Q444 42 451 0ZM318 172V237Q158 239 158 149Q158 81 225 81Q257 81 281 99T315 145Q318 155 318 172Z"/>
<glyph unicode="b" glyph-name="b" horiz-adv-x="578" d="M543 252Q543 128 475 55Q414 -11 326 -11Q226 -11 178 71H176L170 0H60Q64 61 64 139V709H193V424H195Q243 498 345 498Q433 498 488 431T543 252ZM412 246Q412 312 384 353Q353 397 298 397Q252 397 223 363T193 282V201Q193 156 222 124T297 92Q351 92 381 133T412 246Z"/>
<glyph unicode="c" glyph-name="c" horiz-adv-x="441" d="M418 477L397 380Q359 397 308 397Q243 397 205 354T166 244Q166 174 208 132Q247 92 309 92Q358 92 400 110L417 14Q366 -10 283 -10Q170 -10 102 57T34 239Q34 351 106 424T303 498Q369 498 418 477Z"/>
<glyph unicode="d" glyph-name="d" horiz-adv-x="575" d="M515 0H400L394 74H392Q346 -11 239 -11Q151 -11 94 58Q34 128 34 239Q34 358 98 430Q159 498 248 498Q343 498 379 438H381V709H511V139Q511 62 515 0ZM381 210V285Q381 304 379 315Q371 351 346 374Q318 398 281 398Q226 398 196 355T165 243Q165 176 195 135T279 93Q327 93 356 129Q381 162 381 210Z"/>
<glyph unicode="e" glyph-name="e" horiz-adv-x="511" d="M479 262Q479 229 475 207H158Q161 148 203 117Q242 88 303 88Q374 88 434 110L453 21Q381 -9 284 -9Q167 -9 101 57T34 238Q34 345 94 419Q160 499 271 499Q378 499 433 422Q479 358 479 262ZM358 297Q358 340 339 371Q314 411 263 411Q215 411 186 372Q162 341 158 297H358Z"/>
<glyph unicode="f" glyph-name="f" horiz-adv-x="321" d="M344 708L336 608Q312 617 285 617Q208 617 208 513V488H311V392H208V0H79V392H13V488H79V508Q79 616 138 672Q187 720 266 720Q309 720 344 708Z"/>
<glyph unicode="g" glyph-name="g" horiz-adv-x="566" d="M507 488Q503 428 503 345V70Q503 -86 431 -149Q365 -208 243 -208Q140 -208 76 -171L103 -72Q165 -109 242 -109Q375 -109 375 33V71H373Q328 3 237 3Q148 3 91 70T34 241Q34 357 100 430Q161 498 251 498Q345 498 387 425H389L394 488H507ZM374 212V293Q374 337 348 368T277 399Q228 399 197 358T165 245Q165 182 195 141T276 100Q347 100 368 169Q374 187 374 212Z"/>
<glyph unicode="h" glyph-name="h" horiz-adv-x="566" d="M504 0H374V274Q374 393 287 393Q245 393 219 364T193 292V0H64V709H193V424H195Q246 498 337 498Q408 498 453 450Q504 394 504 288V0Z"/>
<glyph unicode="i" glyph-name="i" horiz-adv-x="257" d="M204 633Q204 600 183 580T127 560Q95 560 74 580T53 633Q53 665 74 685T129 706Q161 706 182 686T204 633ZM193 0H64V488H193V0Z"/>
<glyph unicode="j" glyph-name="j" horiz-adv-x="271" d="M220 633Q220 600 198 580T143 560Q111 560 90 580T69 633Q69 665 90 685T145 706Q177 706 198 686T220 633ZM209 52Q209 -94 145 -156Q85 -213 -28 -213L-41 -111Q22 -106 49 -78Q80 -45 80 87V488H209V52Z"/>
<glyph unicode="k" glyph-name="k" horiz-adv-x="510" d="M522 0H364L233 211L193 163V0H64V709H193V275H195Q215 309 232 333L343 488H497L322 288L522 0Z"/>
<glyph unicode="l" glyph-name="l" horiz-adv-x="257" d="M193 0H64V709H193V0Z"/>
<glyph unicode="m" glyph-name="m" horiz-adv-x="839" d="M776 0H650V270Q650 393 569 393Q510 393 489 332Q483 315 483 292V0H357V282Q357 393 278 393Q219 393 196 328Q190 311 190 288V0H64V340Q64 408 60 488H170L176 418H179Q230 498 326 498Q425 498 459 411H461Q485 449 521 471Q562 498 616 498Q685 498 727 450Q776 395 776 289V0Z"/>
<glyph unicode="n" glyph-name="n" horiz-adv-x="566" d="M504 0H374V276Q374 393 288 393Q245 393 219 361T193 286V0H64V340Q64 408 60 488H173L179 417H182Q230 498 333 498Q406 498 452 451Q504 396 504 291V0Z"/>
<glyph unicode="o" glyph-name="o" horiz-adv-x="557" d="M523 248Q523 134 456 62T276 -11Q166 -11 100 59T34 240Q34 355 101 426T284 498Q393 498 458 428T523 248ZM389 245Q389 306 365 350Q335 404 279 404Q221 404 191 350Q166 307 166 243Q166 181 191 137Q221 83 279 83Q335 83 365 139Q389 184 389 245Z"/>
<glyph unicode="p" glyph-name="p" horiz-adv-x="578" d="M543 250Q543 125 475 53Q415 -11 326 -11Q234 -11 195 51H193V-198H64V326Q64 403 60 488H173L179 415H181Q236 498 343 498Q428 498 485 430T543 250ZM412 244Q412 311 383 353T299 396Q254 396 224 361T193 280V203Q193 156 220 124Q249 89 296 89Q350 89 381 131T412 244Z"/>
<glyph unicode="q" glyph-name="q" horiz-adv-x="574" d="M515 488Q511 394 511 344V-198H382V64H379Q333 -11 234 -11Q151 -11 94 56Q34 126 34 236Q34 361 103 434Q163 498 248 498Q343 498 385 426L387 425L391 488H515ZM382 204V287Q382 332 354 364T281 397Q227 397 197 354T166 242Q166 175 196 134T279 92Q313 92 339 112T376 168Q382 186 382 204Z"/>
<glyph unicode="r" glyph-name="r" horiz-adv-x="357" d="M341 373Q323 377 304 377Q249 377 221 342T193 251V0H64L65 331Q65 421 61 488H173L178 397H181Q198 445 236 473Q271 498 312 498Q329 498 341 496V373Z"/>
<glyph unicode="s" glyph-name="s" horiz-adv-x="414" d="M381 144Q381 74 330 33Q276 -10 182 -10Q94 -10 34 24L59 117Q116 82 182 82Q256 82 256 133Q256 157 240 171T180 201Q46 249 46 344Q46 411 97 454T232 498Q308 498 361 470L336 379Q287 407 235 407Q170 407 170 358Q170 337 188 324T252 293Q380 246 381 144Z"/>
<glyph unicode="t" glyph-name="t" horiz-adv-x="351" d="M325 392H211V184Q211 96 273 96Q300 96 319 101L321 2Q287 -10 230 -10Q162 -10 123 30T84 168V392H17V488H84V578L211 614V488H325V392Z"/>
<glyph unicode="u" glyph-name="u" horiz-adv-x="563" d="M503 0H390L384 71H381Q331 -11 229 -11Q154 -11 111 37Q62 91 62 201V488H191V222Q191 95 276 95Q338 95 363 156Q369 172 369 193V488H499V148Q499 75 503 0Z"/>
<glyph unicode="v" glyph-name="v" horiz-adv-x="505" d="M496 488L314 0H187L10 488H150L224 246Q241 189 255 124H258Q270 184 289 246L360 488H496Z"/>
<glyph unicode="w" glyph-name="w" horiz-adv-x="741" d="M729 488L579 0H459L405 191Q385 262 370 346H368Q355 263 333 192L275 0H155L13 488H145L192 272Q210 189 222 114H224Q235 173 262 271L322 488H426L482 277Q506 190 520 114H522Q533 194 553 277L602 488H729Z"/>
<glyph unicode="x" glyph-name="x" horiz-adv-x="492" d="M485 0H339L284 95Q263 130 242 173H240Q225 142 199 95L146 0H5L169 248L10 488H154L208 398Q223 373 250 323H252Q276 371 293 400L343 488H483L324 254L485 0Z"/>
<glyph unicode="y" glyph-name="y" horiz-adv-x="497" d="M492 488L375 156Q289 -83 208 -156Q147 -211 77 -220L47 -111Q80 -103 118 -77T181 -6Q189 9 189 16Q189 24 183 40L7 488H150L232 231Q242 200 258 138H261Q268 170 285 232L355 488H492Z"/>
<glyph unicode="z" glyph-name="z" horiz-adv-x="447" d="M427 0H20V75L193 300Q213 326 264 382V384H38V488H421V408L253 190Q218 144 181 105V103H427V0Z"/>
<glyph unicode="{" glyph-name="braceleft" horiz-adv-x="301" d="M271 -112H242Q93 -112 93 25Q93 51 99 104T105 184Q105 252 29 253V321Q105 323 105 391Q105 418 99 471T93 552Q93 686 242 686H271V611H254Q187 611 187 536Q187 513 192 469T199 403Q200 308 118 289V287Q200 268 199 172Q198 150 193 106T187 39Q187 -38 254 -38H271V-112Z"/>
<glyph unicode="|" glyph-name="bar" horiz-adv-x="264" d="M179 -250H86V750H179V-250Z"/>
<glyph unicode="}" glyph-name="braceright" horiz-adv-x="301" d="M272 253Q196 252 196 184Q196 157 202 104T208 25Q208 -112 59 -112H30V-38H47Q114 -38 114 39Q114 62 108 106T102 172Q101 268 183 287V289Q101 308 102 403Q102 425 108 469T114 536Q114 611 47 611H30V686H59Q208 686 208 552Q208 525 202 472T196 391Q196 323 272 321V253Z"/>
<glyph unicode="~" glyph-name="asciitilde" horiz-adv-x="596" d="M550 367Q557 192 424 192Q370 192 283 239Q204 282 180 282Q133 282 129 199H46Q45 286 83 331Q118 372 178 372Q229 372 318 326Q395 285 423 285Q465 285 467 367H550Z"/>
<glyph unicode=" " glyph-name="nbspace" horiz-adv-x="202"/>
<glyph unicode="¡" glyph-name="exclamdown" horiz-adv-x="253" d="M205 411Q205 376 184 354T127 331Q92 331 70 353T48 411Q48 447 70 469T128 492Q163 492 184 469T205 411ZM195 -192H59L78 269H176L195 -192Z"/>
<glyph unicode="¢" glyph-name="cent" horiz-adv-x="532" d="M458 110Q416 89 356 85V-12H271V87Q180 100 127 160Q71 223 71 327Q71 421 124 489T271 574V671H357V578Q410 577 454 557L432 461Q394 481 339 481Q277 481 240 439T203 331Q203 262 243 221Q280 183 339 183Q394 183 441 203L458 110Z"/>
<glyph unicode="£" glyph-name="sterling" horiz-adv-x="532" d="M487 0H51V71Q97 91 128 132Q162 177 162 227Q162 256 159 278H61V367H144Q135 418 135 458Q135 549 193 605T347 661Q417 661 459 637L437 539Q403 557 352 557Q256 557 256 454Q256 416 266 367H403V278H277Q280 227 270 192Q255 144 215 108V106H487V0Z"/>
<glyph unicode="¤" glyph-name="currency" horiz-adv-x="532" d="M514 527L430 451Q462 399 462 335Q462 263 428 214L509 135L452 77L380 160Q334 120 264 120Q194 120 151 158L81 77L23 135L102 211Q67 261 67 331Q67 399 102 451L20 527L79 587L152 505Q198 544 267 544Q335 544 381 507L455 587L514 527ZM364 334Q364 383 339 417Q312 456 265 456Q218 456 191 416Q167 381 167 332Q167 284 192 248Q220 208 265 208Q314 208 341 248Q364 283 364 334Z"/>
<glyph unicode="¥" glyph-name="yen" horiz-adv-x="532" d="M526 650L355 359H477V296H322V229H477V165H322V0H200V165H47V229H200V296H47V359H169L7 650H145L225 474Q239 442 265 371H267Q279 405 309 475L391 650H526Z"/>
<glyph unicode="¦" glyph-name="brokenbar" horiz-adv-x="264" d="M179 325H86V675H179V325ZM179 -175H86V175H179V-175Z"/>
<glyph unicode="§" glyph-name="section" horiz-adv-x="538" d="M490 297Q490 224 421 175Q463 142 463 85Q463 6 393 -37Q336 -72 254 -72Q145 -72 80 -29L107 51Q171 10 250 10Q346 10 346 72Q346 100 322 118T236 157Q144 187 103 218Q48 259 48 324Q48 400 128 444Q89 475 89 532Q89 602 148 644Q205 683 294 683Q379 683 442 652L419 572Q364 601 294 601Q201 601 201 544Q201 518 230 500Q253 484 312 466Q400 438 439 406Q490 365 490 297ZM389 278Q389 329 313 357Q266 374 188 407Q149 383 149 345Q149 296 242 263Q288 247 356 218Q389 239 389 278Z"/>
<glyph unicode="¨" glyph-name="dieresis" horiz-adv-x="300" d="M308 612Q308 585 291 568T247 550Q221 550 204 568T187 612Q187 638 204 655T248 673Q274 673 291 656T308 612ZM113 612Q113 585 96 568T52 550Q27 550 9 568T-9 612Q-9 638 9 655T54 673Q79 673 96 656T113 612Z"/>
<glyph unicode="©" glyph-name="copyright" horiz-adv-x="677" d="M644 340Q644 211 556 121T340 30Q211 30 122 120T33 340Q33 468 123 558T341 648Q468 648 556 558T644 340ZM585 339Q585 445 515 520T339 596Q235 596 165 520T94 338Q94 233 165 158T340 82Q445 82 515 158T585 339ZM478 184Q431 153 355 153Q270 153 221 204T171 334Q171 417 229 470Q285 520 364 520Q446 520 474 493L460 443Q420 466 364 466Q302 466 269 432T235 337Q235 280 270 244T364 207Q426 207 464 232L478 184Z"/>
<glyph unicode="ª" glyph-name="ordfeminine" horiz-adv-x="362" d="M324 266H243L237 302H235Q196 261 137 261Q89 261 61 288T33 358Q33 414 85 444T228 473V481Q228 527 164 527Q113 527 75 502L57 559Q108 591 180 591Q319 591 319 451V344Q319 295 324 266ZM231 377V419Q122 421 122 365Q122 346 135 334T169 322Q208 322 224 354Q231 366 231 377Z"/>
<glyph unicode="«" glyph-name="guillemotleft" horiz-adv-x="444" d="M422 64H329L209 252L329 440H422L299 252L422 64ZM240 64H147L27 252L147 440H240L117 252L240 64Z"/>
<glyph unicode="¬" glyph-name="logicalnot" horiz-adv-x="596" d="M556 111H471V333H40V415H556V111Z"/>
<glyph unicode="­" glyph-name="minus" horiz-adv-x="596" d="M556 226H40V308H556V226Z"/>
<glyph unicode="®" glyph-name="registered" horiz-adv-x="510" d="M479 459Q479 365 415 299T256 233Q162 233 97 299T31 459Q31 553 97 618T257 684Q350 684 414 618T479 459ZM431 459Q431 534 381 588T255 642Q182 642 132 588T82 459Q82 384 132 330T257 275Q331 275 381 329T431 459ZM357 328H306Q298 340 291 393Q285 433 241 433H216V328H167V579Q212 585 244 585Q302 585 328 566Q350 549 350 512Q350 466 302 453V451Q336 445 343 390Q348 346 357 328ZM299 509Q299 548 245 548Q225 548 216 547V471H242Q299 471 299 509Z"/>
<glyph unicode="¯" glyph-name="overscore" horiz-adv-x="300" d="M270 583H31V652H270V583Z"/>
<glyph unicode="°" glyph-name="degree" horiz-adv-x="339" d="M315 546Q315 486 273 445T170 404Q111 404 69 443T27 542Q27 603 69 644T173 685Q233 685 274 646T315 546ZM246 545Q246 579 226 601T171 624Q139 624 119 600T99 543Q99 511 119 488T172 465Q205 465 225 488T246 545Z"/>
<glyph unicode="±" glyph-name="plusminus" horiz-adv-x="596" d="M556 314H341V130H255V314H40V396H255V576H341V396H556V314ZM556 0H40V81H556V0Z"/>
<glyph unicode="²" glyph-name="twosuperior" horiz-adv-x="363" d="M329 266H37V315L98 372Q166 434 186 458Q216 495 216 526Q216 582 153 582Q109 582 69 553L42 619Q97 661 177 661Q247 661 286 625Q322 593 322 543Q322 494 286 448Q264 420 202 366L176 344V342H329V266Z"/>
<glyph unicode="³" glyph-name="threesuperior" horiz-adv-x="358" d="M328 379Q328 327 282 294T156 261Q77 261 31 288L52 356Q96 331 146 331Q181 331 201 346T222 384Q222 412 195 426T130 441H102V501H129Q160 501 182 512Q210 526 210 550Q210 591 155 591Q109 591 68 566L48 630Q99 661 177 661Q243 661 279 632Q312 606 312 564Q312 500 233 475V473Q274 468 301 442T328 379Z"/>
<glyph unicode="´" glyph-name="acute" horiz-adv-x="300" d="M295 694L174 546H86L171 694H295Z"/>
<glyph unicode="µ" glyph-name="mu" horiz-adv-x="563" d="M503 0H390L384 73H381Q337 -8 252 -8Q198 -8 173 30H170L179 -198H62V488H191V221Q191 96 277 96Q314 96 342 125Q366 150 369 181V488H499V148Q499 75 503 0Z"/>
<glyph unicode="¶" glyph-name="paragraph" horiz-adv-x="525" d="M449 -48H365V596H295V-48H211V264H205Q147 264 95 310Q33 364 32 452Q30 547 87 604Q160 677 317 677Q405 677 449 668V-48Z"/>
<glyph unicode="·" glyph-name="middot" horiz-adv-x="241" d="M199 272Q199 236 177 213T119 190Q85 190 64 213T42 272Q42 307 64 330T121 354Q156 354 177 331T199 272Z"/>
<glyph unicode="¸" glyph-name="cedilla" horiz-adv-x="300" d="M241 -117Q241 -202 126 -202Q80 -202 50 -183L68 -132Q95 -147 123 -147Q160 -147 160 -120Q160 -87 83 -82L127 4H198L170 -46Q199 -50 219 -68Q241 -89 241 -117Z"/>
<glyph unicode="¹" glyph-name="onesuperior" horiz-adv-x="347" d="M247 266H147V573H145L69 538L54 609L160 656H247V266Z"/>
<glyph unicode="º" glyph-name="ordmasculine" horiz-adv-x="371" d="M348 428Q348 354 303 308T184 261Q113 261 68 306T22 423Q22 497 68 544T188 591Q260 591 304 546T348 428ZM256 426Q256 464 240 492Q220 525 185 525Q150 525 131 490Q116 462 116 424Q116 388 133 360Q152 327 186 327Q222 327 241 360Q256 387 256 426Z"/>
<glyph unicode="»" glyph-name="guillemotright" horiz-adv-x="444" d="M416 252L295 64H203L325 252L202 440H295L416 252ZM236 252L115 64H22L145 252L22 440H115L236 252Z"/>
<glyph unicode="¼" glyph-name="onequarter" horiz-adv-x="797" d="M761 94H707V0H614V94H420V149L596 394H707V160H761V94ZM602 661L232 -11H158L529 661H602ZM229 266H129V573H128L51 538L37 609L142 656H229V266ZM618 318H615Q604 296 581 257L513 161L514 160H614V248Q614 262 618 318Z"/>
<glyph unicode="½" glyph-name="onehalf" horiz-adv-x="797" d="M755 0H463V50L524 106Q592 168 612 192Q642 229 642 261Q642 316 579 316Q535 316 495 288L468 353Q523 395 604 395Q673 395 712 360Q748 328 748 278Q748 229 712 182Q690 154 628 101L602 78V76H755V0ZM579 661L209 -11H136L506 661H579ZM216 266H116V573H115L38 538L24 609L129 656H216V266Z"/>
<glyph unicode="¾" glyph-name="threequarters" horiz-adv-x="797" d="M771 94H717V0H624V94H430V149L605 394H717V160H771V94ZM634 661L264 -11H191L561 661H634ZM324 379Q324 327 278 294T153 261Q73 261 28 288L48 356Q93 331 143 331Q177 331 198 346T219 384Q218 412 192 426T126 441H99V501H125Q156 501 179 512Q207 526 207 550Q207 591 151 591Q107 591 64 566L44 630Q96 661 173 661Q239 661 276 632Q309 606 309 564Q309 500 230 475V473Q271 468 297 442T324 379ZM627 318H625Q614 296 591 257L522 161L524 160H624V248Q624 262 627 318Z"/>
<glyph unicode="¿" glyph-name="questiondown" horiz-adv-x="425" d="M319 411Q319 376 297 353T240 330Q206 330 184 353T162 411Q162 447 184 469T241 492Q276 492 297 469T319 411ZM384 -164Q319 -204 228 -204Q139 -204 90 -158Q46 -116 46 -51Q46 -3 73 44Q88 70 131 120Q185 182 183 252L182 273H296L297 248Q303 163 238 84Q177 10 177 -32Q177 -99 256 -100Q312 -101 354 -71L384 -164Z"/>
<glyph unicode="À" glyph-name="Agrave" horiz-adv-x="629" d="M373 711H272L145 833H284L373 711ZM606 0H467L410 185H206L153 0H19L229 674H394L606 0ZM390 283L341 442Q336 458 308 571H305Q296 527 274 442L227 283H390Z"/>
<glyph unicode="Á" glyph-name="Aacute" horiz-adv-x="629" d="M484 833L357 710H255L345 833H484ZM606 0H467L410 185H206L153 0H19L229 674H394L606 0ZM390 283L341 442Q336 458 308 571H305Q296 527 274 442L227 283H390Z"/>
<glyph unicode="Â" glyph-name="Acircumflex" horiz-adv-x="629" d="M466 710H373L319 779H317L264 710H172L273 833H364L466 710ZM606 0H467L410 185H206L153 0H19L229 674H394L606 0ZM390 283L341 442Q336 458 308 571H305Q296 527 274 442L227 283H390Z"/>
<glyph unicode="Ã" glyph-name="Atilde" horiz-adv-x="629" d="M450 834Q453 721 376 721Q346 721 313 739T268 758Q248 758 244 715H183Q181 770 201 800T255 830Q284 830 317 811T363 791Q386 791 390 834H450ZM606 0H467L410 185H206L153 0H19L229 674H394L606 0ZM390 283L341 442Q336 458 308 571H305Q296 527 274 442L227 283H390Z"/>
<glyph unicode="Ä" glyph-name="Adieresis" horiz-adv-x="629" d="M475 777Q475 751 458 734T414 716Q389 716 372 734T355 777Q355 803 372 820T415 838Q441 838 458 821T475 777ZM280 777Q280 751 263 734T220 716Q195 716 178 734T160 777Q160 803 177 820T221 838Q247 838 263 821T280 777ZM606 0H467L410 185H206L153 0H19L229 674H394L606 0ZM390 283L341 442Q336 458 308 571H305Q296 527 274 442L227 283H390Z"/>
<glyph unicode="Å" glyph-name="Aring" horiz-adv-x="629" d="M608 0H469L412 185H208L155 0H22L231 674Q194 694 194 742Q194 784 227 813T317 843Q375 843 408 815Q438 788 438 743Q438 692 397 672L608 0ZM368 745Q368 797 315 797Q265 797 265 744Q265 721 279 707T316 692Q368 692 368 745ZM391 283L341 447Q336 466 309 571H307Q291 497 278 452L227 283H391Z"/>
<glyph unicode="Æ" glyph-name="AE" horiz-adv-x="824" d="M795 107V0H437L412 202H217L134 0H1L289 674H763V567H490L509 399H757V293H525L549 107H795ZM398 305L378 479Q373 514 366 582H363Q350 546 325 478L255 305H398Z"/>
<glyph unicode="Ç" glyph-name="Ccedilla" horiz-adv-x="580" d="M550 655L522 552Q466 577 396 577Q296 577 235 516Q171 452 171 335Q171 225 230 162T395 98Q471 98 523 121L546 19Q488 -9 376 -10L355 -46Q385 -50 405 -69T426 -118Q426 -202 312 -202Q266 -202 235 -184L253 -132Q281 -147 308 -147Q345 -147 345 -120Q345 -88 268 -81L308 -5Q179 14 107 103T35 329Q35 493 138 591Q236 684 391 684Q496 684 550 655Z"/>
<glyph unicode="È" glyph-name="Egrave" horiz-adv-x="511" d="M339 711H237L110 833H249L339 711ZM474 0H69V674H459V567H198V402H445V296H198V107H474V0Z"/>
<glyph unicode="É" glyph-name="Eacute" horiz-adv-x="511" d="M431 833L305 710H203L293 833H431ZM474 0H69V674H459V567H198V402H445V296H198V107H474V0Z"/>
<glyph unicode="Ê" glyph-name="Ecircumflex" horiz-adv-x="511" d="M415 710H321L268 779H266L213 710H121L221 833H313L415 710ZM474 0H69V674H459V567H198V402H445V296H198V107H474V0Z"/>
<glyph unicode="Ë" glyph-name="Edieresis" horiz-adv-x="511" d="M422 777Q422 751 405 734T361 716Q336 716 319 734T302 777Q302 803 319 820T362 838Q388 838 405 821T422 777ZM227 777Q227 751 210 734T167 716Q142 716 125 734T107 777Q107 803 125 820T168 838Q194 838 210 821T227 777ZM474 0H69V674H459V567H198V402H445V296H198V107H474V0Z"/>
<glyph unicode="Ì" glyph-name="Igrave" horiz-adv-x="267" d="M198 711H96L-30 833H108L198 711ZM198 0H69V674H198V0Z"/>
<glyph unicode="Í" glyph-name="Iacute" horiz-adv-x="267" d="M297 833L171 710H69L159 833H297ZM198 0H69V674H198V0Z"/>
<glyph unicode="Î" glyph-name="Icircumflex" horiz-adv-x="267" d="M281 710H187L134 779H132L79 710H-13L87 833H179L281 710ZM198 0H69V674H198V0Z"/>
<glyph unicode="Ï" glyph-name="Idieresis" horiz-adv-x="267" d="M291 777Q291 751 274 734T230 716Q205 716 188 734T171 777Q171 803 188 820T231 838Q257 838 274 821T291 777ZM96 777Q96 751 79 734T36 716Q11 716 -6 734T-24 777Q-24 803 -7 820T37 838Q63 838 79 821T96 777ZM198 0H69V674H198V0Z"/>
<glyph unicode="Ð" glyph-name="Eth" horiz-adv-x="679" d="M644 353Q644 176 539 81Q439 -9 239 -9Q144 -9 75 0V293H1V394H75V667Q162 681 269 681Q447 681 538 607Q644 521 644 353ZM507 350Q507 463 449 522T282 581Q237 581 205 574V394H350V293H205V97Q222 94 267 94Q382 94 444 158T507 350Z"/>
<glyph unicode="Ñ" glyph-name="Ntilde" horiz-adv-x="668" d="M471 834Q473 721 396 721Q367 721 334 739T289 758Q268 758 264 715H204Q202 770 221 800T276 830Q305 830 338 811T383 791Q407 791 411 834H471ZM599 0H465L301 286Q229 413 184 519L181 518Q188 398 188 228V0H69V674H216L378 395Q439 289 489 169L491 170Q480 287 480 452V674H599V0Z"/>
<glyph unicode="Ò" glyph-name="Ograve" horiz-adv-x="692" d="M408 711H306L180 833H318L408 711ZM657 344Q657 189 577 92Q492 -11 340 -11Q197 -11 113 91Q35 186 35 332Q35 481 117 580Q204 685 350 685Q494 685 578 584Q657 490 657 344ZM519 339Q519 432 480 500Q433 581 346 581Q257 581 210 499Q170 431 170 335Q170 241 210 174Q258 93 346 93Q435 93 481 176Q519 243 519 339Z"/>
<glyph unicode="Ó" glyph-name="Oacute" horiz-adv-x="692" d="M518 833L391 710H289L379 833H518ZM657 344Q657 189 577 92Q492 -11 340 -11Q197 -11 113 91Q35 186 35 332Q35 481 117 580Q204 685 350 685Q494 685 578 584Q657 490 657 344ZM519 339Q519 432 480 500Q433 581 346 581Q257 581 210 499Q170 431 170 335Q170 241 210 174Q258 93 346 93Q435 93 481 176Q519 243 519 339Z"/>
<glyph unicode="Ô" glyph-name="Ocircumflex" horiz-adv-x="692" d="M493 710H400L347 779H345L291 710H199L300 833H392L493 710ZM657 344Q657 189 577 92Q492 -11 340 -11Q197 -11 113 91Q35 186 35 332Q35 481 117 580Q204 685 350 685Q494 685 578 584Q657 490 657 344ZM519 339Q519 432 480 500Q433 581 346 581Q257 581 210 499Q170 431 170 335Q170 241 210 174Q258 93 346 93Q435 93 481 176Q519 243 519 339Z"/>
<glyph unicode="Õ" glyph-name="Otilde" horiz-adv-x="692" d="M480 834Q483 721 405 721Q376 721 343 739T298 758Q277 758 274 715H213Q211 770 230 800T285 830Q314 830 347 811T393 791Q416 791 420 834H480ZM657 344Q657 189 577 92Q492 -11 340 -11Q197 -11 113 91Q35 186 35 332Q35 481 117 580Q204 685 350 685Q494 685 578 584Q657 490 657 344ZM519 339Q519 432 480 500Q433 581 346 581Q257 581 210 499Q170 431 170 335Q170 241 210 174Q258 93 346 93Q435 93 481 176Q519 243 519 339Z"/>
<glyph unicode="Ö" glyph-name="Odieresis" horiz-adv-x="692" d="M503 777Q503 751 486 734T442 716Q417 716 400 734T383 777Q383 803 400 820T444 838Q469 838 486 821T503 777ZM308 777Q308 751 291 734T248 716Q223 716 206 734T188 777Q188 803 206 820T250 838Q275 838 291 821T308 777ZM657 344Q657 178 570 84T341 -11H340Q201 -11 117 87Q35 182 35 332Q35 487 122 586T350 685Q493 685 577 586Q657 491 657 344ZM519 339Q519 440 476 507Q428 581 346 581Q263 581 215 507Q170 439 170 335Q170 232 216 165Q264 93 345 93H346Q427 93 474 164Q519 232 519 339Z"/>
<glyph unicode="×" glyph-name="multiply" horiz-adv-x="596" d="M556 467L356 263L556 59L498 0L298 204L98 0L40 59L240 263L40 467L97 526L298 321L499 526L556 467Z"/>
<glyph unicode="Ø" glyph-name="Oslash" horiz-adv-x="692" d="M657 342Q657 177 567 81Q482 -11 347 -11Q263 -11 197 29L137 -58L67 -3L124 83Q35 179 35 336Q35 488 122 586T348 685Q433 685 499 645L554 725L628 676L571 590Q657 496 657 342ZM439 550Q399 583 347 583Q262 583 212 511Q165 444 165 338Q165 264 197 196L199 197L439 550ZM527 339Q527 412 498 473H495L257 124Q293 91 346 91Q430 91 479 162Q527 230 527 339Z"/>
<glyph unicode="Ù" glyph-name="Ugrave" horiz-adv-x="658" d="M398 711H297L170 833H308L398 711ZM590 288Q590 138 520 64T323 -11Q68 -11 68 288V674H197V279Q197 94 327 94Q460 94 460 279V674H590V288Z"/>
<glyph unicode="Ú" glyph-name="Uacute" horiz-adv-x="658" d="M497 833L370 710H269L358 833H497ZM590 288Q590 138 520 64T323 -11Q68 -11 68 288V674H197V279Q197 94 327 94Q460 94 460 279V674H590V288Z"/>
<glyph unicode="Û" glyph-name="Ucircumflex" horiz-adv-x="658" d="M485 710H392L338 779H336L283 710H191L292 833H383L485 710ZM590 288Q590 138 520 64T323 -11Q68 -11 68 288V674H197V279Q197 94 327 94Q460 94 460 279V674H590V288Z"/>
<glyph unicode="Ü" glyph-name="Udieresis" horiz-adv-x="658" d="M491 777Q491 751 474 734T430 716Q405 716 388 734T370 777Q370 803 387 820T431 838Q457 838 474 821T491 777ZM296 777Q296 751 279 734T236 716Q211 716 194 734T176 777Q176 803 193 820T237 838Q263 838 279 821T296 777ZM590 288Q590 138 520 64T323 -11Q68 -11 68 288V674H197V279Q197 94 327 94Q460 94 460 279V674H590V288Z"/>
<glyph unicode="Ý" glyph-name="Yacute" horiz-adv-x="570" d="M464 833L337 710H236L326 833H464ZM566 674L347 283V0H218V279L9 674H157L232 504Q267 426 288 371H290Q311 428 345 505L421 674H566Z"/>
<glyph unicode="Þ" glyph-name="Thorn" horiz-adv-x="555" d="M522 360Q522 247 447 189Q379 136 265 136Q228 136 196 141V0H69V674H196V549Q231 554 281 554Q399 554 460 501T522 360ZM394 349Q394 455 267 455Q220 455 196 449V243Q221 238 261 238Q326 238 360 268T394 349Z"/>
<glyph unicode="ß" glyph-name="germandbls" horiz-adv-x="575" d="M539 157Q539 81 488 35T347 -11Q282 -11 242 7L259 103Q292 87 333 87Q369 87 389 105T410 150Q410 187 367 231Q330 268 316 290Q291 328 291 369Q291 449 374 492Q381 509 381 531Q381 571 358 595T296 620Q193 620 193 448V0H64V438Q64 592 138 661Q201 720 305 720Q391 720 448 671T506 541Q506 490 482 459Q420 430 420 386Q420 354 459 314T513 248Q539 205 539 157Z"/>
<glyph unicode="à" glyph-name="agrave" horiz-adv-x="506" d="M307 546H218L97 694H221L307 546ZM451 0H335L326 53H323Q274 -11 183 -11Q113 -11 70 34Q31 75 31 135Q31 226 106 273T314 320V328Q314 407 219 407Q147 407 90 372L65 455Q136 498 242 498Q444 498 444 292V117Q444 42 451 0ZM318 172V237Q158 239 158 149Q158 81 225 81Q257 81 281 99T315 145Q318 155 318 172Z"/>
<glyph unicode="á" glyph-name="aacute" horiz-adv-x="506" d="M400 694L279 546H191L276 694H400ZM451 0H335L326 53H323Q274 -11 183 -11Q113 -11 70 34Q31 75 31 135Q31 226 106 273T314 320V328Q314 407 219 407Q147 407 90 372L65 455Q136 498 242 498Q444 498 444 292V117Q444 42 451 0ZM318 172V237Q158 239 158 149Q158 81 225 81Q257 81 281 99T315 145Q318 155 318 172Z"/>
<glyph unicode="â" glyph-name="acircumflex" horiz-adv-x="506" d="M386 546H301L249 634H247L196 546H112L208 694H289L386 546ZM451 0H335L326 53H323Q274 -11 183 -11Q113 -11 70 34Q31 75 31 135Q31 226 106 273T314 320V328Q314 407 219 407Q147 407 90 372L65 455Q136 498 242 498Q444 498 444 292V117Q444 42 451 0ZM318 172V237Q158 239 158 149Q158 81 225 81Q257 81 281 99T315 145Q318 155 318 172Z"/>
<glyph unicode="ã" glyph-name="atilde" horiz-adv-x="506" d="M379 677Q381 564 305 564Q278 564 240 586Q210 602 199 602Q177 602 174 558H115Q113 611 132 642T187 673Q212 673 251 652Q284 634 295 634Q318 634 321 677H379ZM451 0H335L326 53H323Q274 -11 183 -11Q113 -11 70 34Q31 75 31 135Q31 226 106 273T314 320V328Q314 407 219 407Q147 407 90 372L65 455Q136 498 242 498Q444 498 444 292V117Q444 42 451 0ZM318 172V237Q158 239 158 149Q158 81 225 81Q257 81 281 99T315 145Q318 155 318 172Z"/>
<glyph unicode="ä" glyph-name="adieresis" horiz-adv-x="506" d="M411 612Q411 585 394 568T350 550Q324 550 307 568T290 612Q290 638 307 655T351 673Q377 673 394 656T411 612ZM216 612Q216 585 199 568T155 550Q130 550 112 568T94 612Q94 638 112 655T156 673Q182 673 199 656T216 612ZM451 0H335L326 53H323Q274 -11 183 -11Q113 -11 70 34Q31 75 31 135Q31 226 106 273T314 320V328Q314 407 219 407Q147 407 90 372L65 455Q136 498 242 498Q444 498 444 292V117Q444 42 451 0ZM318 172V237Q158 239 158 149Q158 81 225 81Q257 81 281 99T315 145Q318 155 318 172Z"/>
<glyph unicode="å" glyph-name="aring" horiz-adv-x="506" d="M362 632Q362 588 331 563T254 537Q209 537 178 561Q144 587 144 631Q144 677 176 703T255 729Q301 729 331 703T362 632ZM451 0H335L326 53H323Q274 -11 183 -11Q113 -11 70 34Q31 75 31 135Q31 226 106 273T314 320V328Q314 407 219 407Q147 407 90 372L65 455Q136 498 242 498Q444 498 444 292V117Q444 42 451 0ZM301 633Q301 683 252 683Q232 683 220 668T207 631Q207 612 220 597T253 582Q274 582 287 596T301 633ZM318 172V237Q158 239 158 149Q158 81 225 81Q257 81 281 99T315 145Q318 155 318 172Z"/>
<glyph unicode="æ" glyph-name="ae" horiz-adv-x="781" d="M749 265Q749 249 746 214H437Q437 154 475 121T575 87Q646 87 706 113L725 25Q658 -10 556 -10Q495 -10 446 14T373 84H370Q313 -10 192 -10Q117 -10 74 33T31 138Q31 225 107 271T316 316V332Q316 356 297 377Q271 408 217 408Q148 408 92 371L65 455Q142 499 228 499Q345 499 385 413H388Q445 499 553 499Q651 499 704 422Q749 357 749 265ZM629 303Q630 342 611 372Q587 412 538 412Q490 412 461 374Q438 342 436 303H629ZM319 175V235Q157 237 157 148Q157 117 177 100T226 83Q266 83 292 109T319 175Z"/>
<glyph unicode="ç" glyph-name="ccedilla" horiz-adv-x="441" d="M419 14Q369 -8 298 -10L277 -46Q306 -50 326 -68Q348 -89 348 -117Q348 -202 233 -202Q187 -202 157 -183L175 -132Q202 -147 229 -147Q267 -147 267 -120Q267 -87 190 -82L229 -5Q139 10 87 75T34 240Q34 352 105 423Q179 498 303 498Q369 498 418 477L397 379Q360 397 308 397Q243 397 205 354T166 244Q166 174 208 132Q247 92 309 92Q358 92 401 110L419 14Z"/>
<glyph unicode="è" glyph-name="egrave" horiz-adv-x="511" d="M332 546H243L123 694H246L332 546ZM479 262Q479 229 475 207H158Q161 148 203 117Q242 88 303 88Q374 88 434 110L453 21Q381 -9 284 -9Q167 -9 101 57T34 238Q34 345 94 419Q160 499 271 499Q378 499 433 422Q479 358 479 262ZM358 297Q358 340 339 371Q314 411 263 411Q215 411 186 372Q162 341 158 297H358Z"/>
<glyph unicode="é" glyph-name="eacute" horiz-adv-x="511" d="M423 694L302 546H213L299 694H423ZM479 262Q479 229 475 207H158Q161 148 203 117Q242 88 303 88Q374 88 434 110L453 21Q381 -9 284 -9Q167 -9 101 57T34 238Q34 345 94 419Q160 499 271 499Q378 499 433 422Q479 358 479 262ZM358 297Q358 340 339 371Q314 411 263 411Q215 411 186 372Q162 341 158 297H358Z"/>
<glyph unicode="ê" glyph-name="ecircumflex" horiz-adv-x="511" d="M405 546H320L268 634H266L214 546H130L226 694H308L405 546ZM479 262Q479 229 475 207H158Q161 148 203 117Q242 88 303 88Q374 88 434 110L453 21Q381 -9 284 -9Q167 -9 101 57T34 238Q34 345 94 419Q160 499 271 499Q378 499 433 422Q479 358 479 262ZM358 297Q358 340 339 371Q314 411 263 411Q215 411 186 372Q162 341 158 297H358Z"/>
<glyph unicode="ë" glyph-name="edieresis" horiz-adv-x="511" d="M431 612Q431 585 414 568T370 550Q344 550 327 568T310 612Q310 638 327 655T371 673Q397 673 414 656T431 612ZM236 612Q236 585 219 568T175 550Q150 550 132 568T114 612Q114 638 132 655T177 673Q202 673 219 656T236 612ZM479 262Q479 229 475 207H158Q161 148 203 117Q242 88 303 88Q374 88 434 110L453 21Q381 -9 284 -9Q167 -9 101 57T34 238Q34 345 94 419Q160 499 271 499Q378 499 433 422Q479 358 479 262ZM358 297Q358 340 339 371Q314 411 263 411Q215 411 186 372Q162 341 158 297H358Z"/>
<glyph unicode="ì" glyph-name="igrave" horiz-adv-x="257" d="M181 546H92L-28 694H95L181 546ZM193 0H64V488H193V0Z"/>
<glyph unicode="í" glyph-name="iacute" horiz-adv-x="257" d="M283 694L162 546H73L159 694H283ZM193 0H64V488H193V0Z"/>
<glyph unicode="î" glyph-name="icircumflex" horiz-adv-x="257" d="M267 546H181L130 634H128L76 546H-8L88 694H170L267 546ZM193 0H64V488H193V0Z"/>
<glyph unicode="ï" glyph-name="idieresis" horiz-adv-x="257" d="M287 612Q287 585 270 568T226 550Q200 550 183 568T166 612Q166 638 183 655T227 673Q253 673 270 656T287 612ZM92 612Q92 585 75 568T31 550Q6 550 -12 568T-30 612Q-30 638 -12 655T33 673Q58 673 75 656T92 612ZM193 0H64V488H193V0Z"/>
<glyph unicode="ð" glyph-name="eth" horiz-adv-x="553" d="M519 256Q519 124 443 52Q376 -11 276 -11Q171 -11 103 57T35 237Q35 344 102 412Q166 475 259 477Q307 478 342 451L344 454Q304 512 249 551L109 489L85 542L192 592Q154 617 97 644L154 718Q231 687 301 638L433 698L460 645L356 598Q433 535 478 447Q519 363 519 256ZM385 242Q385 396 278 396Q222 396 192 343Q167 299 167 238Q167 179 192 136Q222 83 277 83Q333 83 362 137Q385 180 385 242Z"/>
<glyph unicode="ñ" glyph-name="ntilde" horiz-adv-x="566" d="M418 677Q420 564 344 564Q317 564 278 586Q249 602 238 602Q216 602 213 558H154Q152 611 171 642T226 673Q251 673 290 652Q323 634 334 634Q357 634 360 677H418ZM504 0H374V276Q374 393 288 393Q245 393 219 361T193 286V0H64V340Q64 408 60 488H173L179 417H182Q230 498 333 498Q406 498 452 451Q504 396 504 291V0Z"/>
<glyph unicode="ò" glyph-name="ograve" horiz-adv-x="557" d="M342 546H253L132 694H256L342 546ZM523 248Q523 134 456 62T276 -11Q166 -11 100 59T34 240Q34 355 101 426T284 498Q393 498 458 428T523 248ZM389 245Q389 306 365 350Q335 404 279 404Q221 404 191 350Q166 307 166 243Q166 181 191 137Q221 83 279 83Q335 83 365 139Q389 184 389 245Z"/>
<glyph unicode="ó" glyph-name="oacute" horiz-adv-x="557" d="M428 694L307 546H219L304 694H428ZM523 248Q523 134 456 62T276 -11Q166 -11 100 59T34 240Q34 355 101 426T284 498Q393 498 458 428T523 248ZM389 245Q389 306 365 350Q335 404 279 404Q221 404 191 350Q166 307 166 243Q166 181 191 137Q221 83 279 83Q335 83 365 139Q389 184 389 245Z"/>
<glyph unicode="ô" glyph-name="ocircumflex" horiz-adv-x="557" d="M416 546H331L279 634H277L225 546H142L237 694H319L416 546ZM523 248Q523 134 456 62T276 -11Q166 -11 100 59T34 240Q34 355 101 426T284 498Q393 498 458 428T523 248ZM389 245Q389 306 365 350Q335 404 279 404Q221 404 191 350Q166 307 166 243Q166 181 191 137Q221 83 279 83Q335 83 365 139Q389 184 389 245Z"/>
<glyph unicode="õ" glyph-name="otilde" horiz-adv-x="557" d="M411 677Q413 564 338 564Q311 564 272 586Q243 602 231 602Q209 602 206 558H147Q146 611 165 642T219 673Q245 673 284 652Q317 634 327 634Q350 634 353 677H411ZM523 248Q523 134 456 62T276 -11Q166 -11 100 59T34 240Q34 355 101 426T284 498Q393 498 458 428T523 248ZM389 245Q389 306 365 350Q335 404 279 404Q221 404 191 350Q166 307 166 243Q166 181 191 137Q221 83 279 83Q335 83 365 139Q389 184 389 245Z"/>
<glyph unicode="ö" glyph-name="odieresis" horiz-adv-x="557" d="M437 612Q437 585 420 568T375 550Q350 550 333 568T315 612Q315 638 333 655T377 673Q403 673 420 656T437 612ZM241 612Q241 585 224 568T181 550Q155 550 138 568T120 612Q120 638 138 655T182 673Q208 673 224 656T241 612ZM523 248Q523 134 456 62T276 -11Q166 -11 100 59T34 240Q34 355 101 426T284 498Q393 498 458 428T523 248ZM389 245Q389 306 365 350Q335 404 279 404Q221 404 191 350Q166 307 166 243Q166 181 191 137Q221 83 279 83Q335 83 365 139Q389 184 389 245Z"/>
<glyph unicode="÷" glyph-name="divide" horiz-adv-x="596" d="M364 442Q364 412 346 394T297 375Q268 375 251 394T233 442Q233 472 251 491T298 510Q328 510 346 491T364 442ZM555 226H39V308H555V226ZM363 91Q363 61 345 43T296 24Q267 24 250 43T232 91Q232 121 250 140T297 159Q327 159 345 140T363 91Z"/>
<glyph unicode="ø" glyph-name="oslash" horiz-adv-x="557" d="M523 246Q523 122 446 51Q378 -11 279 -11Q212 -11 163 17L117 -49L71 -13L114 51Q34 120 34 242Q34 359 103 428T279 498H280Q346 498 397 470L441 535L490 501L446 435Q523 366 523 246ZM342 382Q317 404 279 404Q219 404 187 352Q160 307 160 243Q160 189 182 152L185 151L342 382ZM399 242Q399 293 378 331L376 332L219 105Q242 83 279 83Q334 83 366 127T399 242Z"/>
<glyph unicode="ù" glyph-name="ugrave" horiz-adv-x="563" d="M341 546H252L132 694H255L341 546ZM503 0H390L384 71H381Q331 -11 229 -11Q154 -11 111 37Q62 91 62 201V488H191V222Q191 95 276 95Q338 95 363 156Q369 172 369 193V488H499V148Q499 75 503 0Z"/>
<glyph unicode="ú" glyph-name="uacute" horiz-adv-x="563" d="M437 694L316 546H227L313 694H437ZM503 0H390L384 71H381Q331 -11 229 -11Q154 -11 111 37Q62 91 62 201V488H191V222Q191 95 276 95Q338 95 363 156Q369 172 369 193V488H499V148Q499 75 503 0Z"/>
<glyph unicode="û" glyph-name="ucircumflex" horiz-adv-x="563" d="M419 546H334L282 634H280L228 546H145L240 694H322L419 546ZM503 0H390L384 71H381Q331 -11 229 -11Q154 -11 111 37Q62 91 62 201V488H191V222Q191 95 276 95Q338 95 363 156Q369 172 369 193V488H499V148Q499 75 503 0Z"/>
<glyph unicode="ü" glyph-name="udieresis" horiz-adv-x="563" d="M443 612Q443 585 426 568T381 550Q356 550 339 568T321 612Q321 638 338 655T383 673Q409 673 426 656T443 612ZM247 612Q247 585 230 568T187 550Q161 550 144 568T126 612Q126 638 144 655T188 673Q214 673 230 656T247 612ZM503 0H390L384 71H381Q331 -11 229 -11Q154 -11 111 37Q62 91 62 201V488H191V222Q191 95 276 95Q338 95 363 156Q369 172 369 193V488H499V148Q499 75 503 0Z"/>
<glyph unicode="ý" glyph-name="yacute" horiz-adv-x="497" d="M413 694L292 546H204L289 694H413ZM492 488L375 156Q289 -83 208 -156Q147 -211 77 -220L47 -111Q80 -103 118 -77T181 -6Q189 9 189 16Q189 24 183 40L7 488H150L232 231Q242 200 258 138H261Q268 170 285 232L355 488H492Z"/>
<glyph unicode="þ" glyph-name="thorn" horiz-adv-x="578" d="M543 248Q543 123 474 52Q413 -11 328 -11Q238 -11 195 52H193V-198H64V674H193V422H195Q243 497 343 498Q427 499 483 433Q543 362 543 248ZM412 246Q412 311 382 353T301 396Q230 396 203 328Q193 303 193 284V196Q193 170 205 150Q232 89 298 89Q350 89 381 132T412 246Z"/>
<glyph unicode="ÿ" glyph-name="ydieresis" horiz-adv-x="497" d="M417 612Q417 585 400 568T356 550Q331 550 314 568T296 612Q296 638 313 655T357 673Q384 673 400 656T417 612ZM222 612Q222 585 205 568T162 550Q136 550 119 568T101 612Q101 638 119 655T163 673Q189 673 205 656T222 612ZM492 488L375 156Q289 -83 208 -156Q147 -211 77 -220L47 -111Q80 -103 118 -77T181 -6Q189 9 189 16Q189 24 183 40L7 488H150L232 231Q242 200 258 138H261Q268 170 285 232L355 488H492Z"/>
<glyph unicode="ı" glyph-name="dotlessi" horiz-adv-x="257" d="M193 0H64V488H193V0Z"/>
<glyph unicode="Ł" glyph-name="Lslash" horiz-adv-x="495" d="M472 0H74V246L-3 192V285L74 339V674H204V426L330 515V421L204 333V109H472V0Z"/>
<glyph unicode="ł" glyph-name="lslash" horiz-adv-x="268" d="M269 405L199 347V0H69V251L4 197V293L69 347V709H199V443L269 501V405Z"/>
<glyph unicode="Œ" glyph-name="OE" horiz-adv-x="903" d="M866 0H504Q481 0 434 -5T363 -11Q205 -11 116 91Q35 184 35 332Q35 493 126 589T367 685Q392 685 441 680T515 674H851V567H590V401H836V296H590V107H866V0ZM461 105V567Q426 581 375 581Q286 581 230 517Q171 450 171 337Q171 226 228 160T385 93Q432 93 461 105Z"/>
<glyph unicode="œ" glyph-name="oe" horiz-adv-x="852" d="M821 263Q821 236 817 209H507Q509 152 548 120T647 88Q713 88 778 113L797 25Q734 -10 630 -10Q505 -10 448 85H446Q389 -10 265 -10Q165 -10 101 57Q34 128 34 243Q34 359 103 430Q169 499 273 499Q397 499 445 403H447Q504 499 618 499Q722 499 776 422Q821 358 821 263ZM699 298Q699 341 682 371Q658 411 605 411Q558 411 530 372Q507 340 505 298H699ZM386 245Q386 308 363 351Q335 405 278 405Q220 405 190 351Q167 307 167 244Q167 183 192 139Q222 84 277 84Q335 84 364 139Q386 182 386 245Z"/>
<glyph unicode="Š" glyph-name="Scaron" horiz-adv-x="515" d="M417 833L317 710H223L123 833H214L269 764H271L326 833H417ZM477 194Q477 106 413 50Q344 -10 220 -10Q109 -10 40 31L67 139Q141 97 228 97Q284 97 314 120T345 184Q345 221 319 245T229 293Q50 359 50 489Q50 574 115 629T290 684Q384 684 450 651L420 547Q359 578 287 578Q235 578 206 554Q181 533 181 501Q181 466 211 442Q236 422 306 394Q477 327 477 194Z"/>
<glyph unicode="š" glyph-name="scaron" horiz-adv-x="414" d="M351 694L255 546H167L70 694H156L210 605H212L265 694H351ZM381 144Q381 74 330 33Q276 -10 182 -10Q94 -10 34 24L59 117Q116 82 182 82Q256 82 256 133Q256 157 240 171T180 201Q46 249 46 344Q46 411 97 454T232 498Q308 498 361 470L336 379Q287 407 235 407Q170 407 170 358Q170 337 188 324T252 293Q380 246 381 144Z"/>
<glyph unicode="Ÿ" glyph-name="Ydieresis" horiz-adv-x="570" d="M449 777Q449 751 432 734T388 716Q363 716 346 734T328 777Q328 803 345 820T389 838Q415 838 432 821T449 777ZM254 777Q254 751 237 734T194 716Q169 716 152 734T134 777Q134 803 151 820T195 838Q221 838 237 821T254 777ZM566 674L347 283V0H218V279L9 674H157L232 504Q267 426 288 371H290Q311 428 345 505L421 674H566Z"/>
<glyph unicode="Ž" glyph-name="Zcaron" horiz-adv-x="556" d="M435 833L335 710H241L141 833H233L288 764H290L344 833H435ZM527 0H25V72L355 566H54V674H522V597L197 108H527V0Z"/>
<glyph unicode="ž" glyph-name="zcaron" horiz-adv-x="447" d="M372 694L276 546H188L91 694H178L231 605H233L286 694H372ZM427 0H20V75L193 300Q213 326 264 382V384H38V488H421V408L253 190Q218 144 181 105V103H427V0Z"/>
<glyph unicode="ƒ" glyph-name="florin" horiz-adv-x="532" d="M490 645L469 553Q446 562 421 562Q346 562 333 455L327 408H434V317H317L294 129Q281 24 244 -26Q198 -88 105 -88Q51 -88 20 -71L39 20Q63 10 89 10Q128 10 146 42T174 155L192 317H110V408H203L207 446Q217 529 255 583Q310 661 414 661Q461 661 490 645Z"/>
</font>
</defs>
</svg>
