<?xml version="1.0" encoding="utf-8"?>
<svg xmlns="http://www.w3.org/2000/svg" width="100%" height="100%">
<defs>
<font id="MyriadApple-Medium" horiz-adv-x="415"><font-face font-family="MyriadApple-Medium" units-per-em="1000" panose-1="2 0 5 0 0 0 0 0 0 0" ascent="830" descent="-249" alphabetic="0"/>
<missing-glyph horiz-adv-x="500" d="M63 0V750H438V0H63ZM125 63H375V688H125V63Z"/>
<glyph unicode=" " glyph-name="space" horiz-adv-x="239"/>
<glyph unicode="!" glyph-name="exclam" horiz-adv-x="228" d="M162 674L148 193H80L66 674H162ZM172 50Q172 23 156 7T113 -10Q88 -10 72 7T56 50Q56 77 72 95T114 113Q141 113 156 95T172 50Z"/>
<glyph unicode="&quot;" glyph-name="quotedbl" horiz-adv-x="336" d="M285 691L269 452H216L199 691H285ZM136 691L120 452H67L51 691H136Z"/>
<glyph unicode="#" glyph-name="numbersign" horiz-adv-x="490" d="M454 400H365L346 255H431V197H338L312 0H252L278 197H176L151 0H91L117 196H36V255H126L145 400H60V458H153L179 650H237L212 458H315L340 650H399L374 458H454V400ZM306 400H204L185 255H287L306 400Z"/>
<glyph unicode="$" glyph-name="dollar" horiz-adv-x="505" d="M432 188Q432 126 391 79T277 19V-84H214V15Q124 17 64 58L88 125Q152 82 229 82Q281 82 313 110T346 181Q346 255 235 300Q154 333 117 369Q72 412 72 473Q72 535 112 579T221 634V734H283V637Q356 635 410 603L386 537Q326 571 263 571Q210 571 182 543Q158 520 158 485Q158 447 187 422Q212 399 280 370Q358 337 395 295T432 188Z"/>
<glyph unicode="%" glyph-name="percent" horiz-adv-x="782" d="M751 198Q751 115 717 59Q675 -6 598 -6Q524 -6 483 56Q448 110 448 188Q448 270 484 326Q527 391 604 391Q680 391 719 330Q751 278 751 198ZM608 662L228 -11H172L552 662H608ZM333 467Q333 385 299 329Q257 262 180 262Q106 262 65 325Q30 379 30 458Q30 539 66 595Q109 661 186 661Q262 661 301 599Q333 547 333 467ZM684 193Q684 339 600 339Q555 339 534 283Q518 242 518 189Q518 137 534 98Q556 45 601 45Q684 45 684 193ZM266 463Q266 608 182 608Q137 608 116 552Q100 512 100 458Q100 406 116 367Q138 315 183 315Q266 315 266 463Z"/>
<glyph unicode="&amp;" glyph-name="ampersand" horiz-adv-x="597" d="M594 0H491Q478 13 429 66Q347 -10 236 -10Q142 -10 85 46Q31 99 31 178Q31 301 160 375L161 378Q105 449 105 519Q105 586 148 633Q196 685 274 685Q337 685 379 646T421 542Q421 437 276 362L275 359Q380 236 437 171Q481 239 500 368H579Q552 200 484 119L594 0ZM346 538Q346 575 325 600T268 625Q229 625 208 596T186 527Q186 470 236 406Q346 469 346 538ZM386 116Q269 246 200 328Q114 273 114 191Q114 132 152 94T251 55Q332 55 386 116Z"/>
<glyph unicode="'" glyph-name="quotesingle" horiz-adv-x="187" d="M136 691L120 452H67L51 691H136Z"/>
<glyph unicode="(" glyph-name="parenleft" horiz-adv-x="282" d="M261 -119H194Q64 50 64 285Q64 522 194 694H261Q137 525 137 285Q137 56 261 -119Z"/>
<glyph unicode=")" glyph-name="parenright" horiz-adv-x="282" d="M218 287Q218 53 88 -119H20Q144 54 144 288Q144 521 20 694H88Q218 525 218 287Z"/>
<glyph unicode="*" glyph-name="asterisk" horiz-adv-x="412" d="M383 477L233 495V492L328 372L266 337L205 476H203L139 336L82 372L177 493V496L30 477V544L175 525V528L83 649L143 684L205 546H207L267 685L327 651L233 525L383 544V477Z"/>
<glyph unicode="+" glyph-name="plus" horiz-adv-x="596" d="M556 237H330V0H266V237H40V297H266V532H330V297H556V237Z"/>
<glyph unicode="," glyph-name="comma" horiz-adv-x="206" d="M173 125Q130 -29 78 -116L17 -123Q57 -12 76 115L173 125Z"/>
<glyph unicode="-" glyph-name="hyphen" horiz-adv-x="305" d="M275 238H30V302H275V238Z"/>
<glyph unicode="." glyph-name="period" horiz-adv-x="206" d="M170 52Q170 24 154 7T110 -10Q84 -10 68 8T52 52Q52 78 68 96T111 115Q138 115 154 97T170 52Z"/>
<glyph unicode="/" glyph-name="slash" horiz-adv-x="339" d="M342 685L66 -40H0L274 685H342Z"/>
<glyph unicode="0" glyph-name="zero" horiz-adv-x="505" d="M469 331Q469 193 427 105Q370 -10 247 -10Q133 -10 78 106Q35 195 35 323Q35 404 51 468Q73 552 121 603Q177 661 258 661Q374 661 429 547Q469 462 469 331ZM381 327Q381 592 252 592Q178 592 144 487Q122 416 122 322Q122 228 144 160Q177 57 251 57Q381 57 381 327Z"/>
<glyph unicode="1" glyph-name="one" horiz-adv-x="505" d="M317 0H233V569H231L118 508L101 574L243 650H317V0Z"/>
<glyph unicode="2" glyph-name="two" horiz-adv-x="505" d="M452 0H44V53L112 121Q245 253 290 313Q349 393 349 462Q349 589 223 589Q155 589 88 535L60 596Q137 661 240 661Q337 661 390 602Q436 550 436 473Q436 389 376 302Q330 234 217 124L166 75V73H452V0Z"/>
<glyph unicode="3" glyph-name="three" horiz-adv-x="505" d="M440 184Q440 102 381 48Q316 -10 206 -10Q105 -10 41 33L65 99Q128 60 205 60Q280 60 319 102Q351 136 350 186Q350 250 299 285Q254 316 185 316H137V382H184Q239 382 279 408Q327 439 327 492Q327 535 301 561Q271 590 215 590Q147 590 89 548L65 611Q132 661 232 661Q321 661 371 613Q416 571 416 506Q416 397 298 353V351Q359 339 398 296Q440 250 440 184Z"/>
<glyph unicode="4" glyph-name="four" horiz-adv-x="505" d="M483 178H394V0H311V178H15V235L300 650H394V245H483V178ZM315 564L311 565Q295 530 257 466L103 245H311V461Q311 511 315 564Z"/>
<glyph unicode="5" glyph-name="five" horiz-adv-x="505" d="M438 211Q438 115 371 53T200 -10Q102 -10 41 28L63 95Q123 59 199 59Q262 59 306 98T350 202Q349 347 166 347Q122 347 79 341L121 650H426V577H183L158 412Q183 415 209 415Q288 415 348 379Q438 325 438 211Z"/>
<glyph unicode="6" glyph-name="six" horiz-adv-x="505" d="M472 218Q472 124 416 59Q355 -10 259 -10Q157 -10 96 65T34 265Q34 449 142 558Q220 638 347 655Q384 660 409 660L410 589Q378 589 344 584Q248 568 188 500Q135 439 123 353H126Q181 427 279 427Q365 427 418 370T472 218ZM384 212Q384 282 349 321T253 361Q215 361 181 340T129 282Q120 264 120 244Q121 164 153 114Q191 56 260 56Q318 56 352 103Q384 146 384 212Z"/>
<glyph unicode="7" glyph-name="seven" horiz-adv-x="505" d="M459 593L181 0H91L368 577H56V650H459V593Z"/>
<glyph unicode="8" glyph-name="eight" horiz-adv-x="505" d="M468 178Q468 91 401 38Q340 -10 250 -10Q165 -10 104 33Q37 82 37 164Q37 283 164 340L163 343Q61 391 61 489Q61 568 122 616Q178 661 259 661Q336 661 388 620Q445 576 445 501Q445 400 339 349V346Q468 294 468 178ZM363 493Q363 541 334 569T256 598Q208 598 177 570T146 495Q146 408 267 374Q363 408 363 493ZM381 169Q381 270 241 311Q126 277 126 174Q126 120 162 87T254 53Q308 53 344 84T381 169Z"/>
<glyph unicode="9" glyph-name="nine" horiz-adv-x="505" d="M470 387Q470 192 359 83Q286 10 173 -4Q123 -10 94 -9V62Q216 51 297 127Q365 191 382 301H379Q322 232 228 232Q144 232 92 289T40 431Q40 525 101 593T258 661Q356 661 413 587T470 387ZM382 398Q382 480 354 531Q320 594 251 594Q193 594 159 546Q127 502 127 436Q127 374 160 336T249 298Q335 298 374 366Q382 379 382 398Z"/>
<glyph unicode=":" glyph-name="colon" horiz-adv-x="206" d="M169 405Q169 378 153 361T110 343Q84 343 68 361T52 405Q52 432 68 450T111 468Q138 468 153 450T169 405ZM168 51Q168 24 152 7T109 -10Q83 -10 67 7T51 51Q51 78 67 96T110 114Q137 114 152 96T168 51Z"/>
<glyph unicode=";" glyph-name="semicolon" horiz-adv-x="206" d="M177 405Q177 378 161 361T117 343Q92 343 76 361T60 405Q60 432 76 450T119 468Q145 468 161 450T177 405ZM173 125Q130 -29 78 -116L17 -123Q57 -12 76 115L173 125Z"/>
<glyph unicode="&lt;" glyph-name="less" horiz-adv-x="596" d="M530 0L66 239V293L530 532V463L139 267V265L530 69V0Z"/>
<glyph unicode="=" glyph-name="equal" horiz-adv-x="596" d="M556 337H40V397H556V337ZM556 141H40V201H556V141Z"/>
<glyph unicode="&gt;" glyph-name="greater" horiz-adv-x="596" d="M530 238L66 0V69L460 265V267L66 463V532L530 294V238Z"/>
<glyph unicode="?" glyph-name="question" horiz-adv-x="399" d="M356 539Q356 493 331 448Q314 418 270 365Q211 294 215 216L216 191H139L136 216Q127 305 196 390T266 528Q266 614 172 614Q114 614 74 584L50 647Q105 686 191 686Q271 686 316 641Q356 601 356 539ZM234 51Q234 24 218 7T174 -10Q149 -10 133 7T117 51Q117 77 133 95T176 113Q202 113 218 96T234 51Z"/>
<glyph unicode="@" glyph-name="at" horiz-adv-x="727" d="M689 400Q689 289 636 222Q587 158 513 158Q481 158 461 179Q438 202 440 245H437Q385 158 297 158Q253 158 222 192T191 283Q191 378 258 449T427 521Q488 521 532 501L497 318Q491 285 491 262Q491 207 527 206Q568 205 599 255Q634 309 634 392Q634 503 571 571T396 640Q271 640 187 549Q99 454 99 305Q99 182 169 109T352 35Q438 35 501 71L517 28Q442 -11 341 -11Q215 -11 131 71Q42 159 42 300Q42 460 141 570Q244 685 404 685Q532 685 610 605T689 400ZM463 461Q442 469 415 469Q350 469 304 415T257 286Q257 211 321 211Q361 211 398 256Q432 297 441 346L463 461Z"/>
<glyph unicode="A" glyph-name="A" horiz-adv-x="600" d="M577 0H485L415 211H182L114 0H25L249 674H353L577 0ZM398 279L333 471Q322 506 299 596H297Q287 555 264 472L199 279H398Z"/>
<glyph unicode="B" glyph-name="B" horiz-adv-x="534" d="M494 192Q494 111 437 57Q370 -5 208 -5Q139 -5 75 2V665Q140 679 231 679Q352 679 413 630Q469 586 469 511Q469 462 439 422T355 364V361Q412 347 449 308Q494 261 494 192ZM381 503Q381 613 236 613Q187 613 161 606V389H238Q303 389 342 421T381 503ZM403 193Q403 258 352 293Q306 324 231 324H161V66Q183 62 232 62Q307 62 351 91Q403 125 403 193Z"/>
<glyph unicode="C" glyph-name="C" horiz-adv-x="566" d="M535 655L514 585Q458 612 383 612Q266 612 198 540Q127 466 127 334Q127 208 194 136T379 63Q461 63 517 90L534 21Q472 -9 361 -9Q217 -9 129 77Q36 169 36 331Q36 491 131 587T380 684Q481 684 535 655Z"/>
<glyph unicode="D" glyph-name="D" horiz-adv-x="651" d="M615 353Q615 185 519 90T228 -5Q138 -5 75 2V665Q160 679 254 679Q431 679 520 598Q615 510 615 353ZM524 350Q524 474 459 541Q391 610 259 610Q203 610 161 602V68Q185 64 245 64Q380 64 452 138T524 350Z"/>
<glyph unicode="E" glyph-name="E" horiz-adv-x="482" d="M447 0H75V674H432V602H161V388H417V316H161V72H447V0Z"/>
<glyph unicode="F" glyph-name="F" horiz-adv-x="477" d="M431 602H161V377H410V305H161V0H75V674H431V602Z"/>
<glyph unicode="G" glyph-name="G" horiz-adv-x="632" d="M576 29Q481 -6 375 -6Q219 -6 129 81Q36 171 36 332Q36 487 133 584T393 681Q494 681 557 651L535 580Q474 608 391 608Q271 608 199 536T127 337Q127 209 195 137T380 65Q457 65 492 82V284H358V354H576V29Z"/>
<glyph unicode="H" glyph-name="H" horiz-adv-x="640" d="M565 0H478V316H161V0H75V674H161V391H478V674H565V0Z"/>
<glyph unicode="I" glyph-name="I" horiz-adv-x="237" d="M161 0H75V674H161V0Z"/>
<glyph unicode="J" glyph-name="J" horiz-adv-x="363" d="M295 221Q295 -10 94 -10Q41 -10 4 4L16 75Q49 63 88 63Q149 63 176 96Q208 135 208 228V674H295V221Z"/>
<glyph unicode="K" glyph-name="K" horiz-adv-x="533" d="M542 0H440L224 330L161 257V0H75V674H161V349H164Q190 389 216 422L417 674H523L285 387L542 0Z"/>
<glyph unicode="L" glyph-name="L" horiz-adv-x="463" d="M443 0H75V674H161V73H443V0Z"/>
<glyph unicode="M" glyph-name="M" horiz-adv-x="790" d="M733 0H649L633 296Q621 501 622 585H619Q585 464 537 330L420 4H355L248 324Q199 469 172 585H170Q166 439 157 289L139 0H57L104 674H213L325 349Q364 237 392 122H395Q423 234 465 349L582 674H692L733 0Z"/>
<glyph unicode="N" glyph-name="N" horiz-adv-x="645" d="M570 0H483L275 340Q195 471 152 566L149 565Q156 459 156 285V0H75V674H169L379 335Q448 223 497 115H499Q489 226 489 394V674H570V0Z"/>
<glyph unicode="O" glyph-name="O" horiz-adv-x="672" d="M636 344Q636 193 561 96Q478 -10 331 -10Q192 -10 111 93Q36 188 36 332Q36 479 113 577Q197 685 341 685Q481 685 562 582Q636 488 636 344ZM544 340Q544 447 495 524Q437 614 336 614Q232 614 175 522Q126 445 126 334Q126 227 176 150Q234 60 335 60Q439 60 496 152Q544 230 544 340Z"/>
<glyph unicode="P" glyph-name="P" horiz-adv-x="523" d="M484 482Q484 393 432 339Q362 265 229 265Q184 265 161 271V0H75V666Q149 679 239 679Q363 679 425 624Q484 571 484 482ZM397 478Q397 542 355 576T241 611Q192 611 161 604V341Q186 334 230 334Q309 334 353 371T397 478Z"/>
<glyph unicode="Q" glyph-name="Q" horiz-adv-x="672" d="M642 -25L616 -97Q496 -66 365 -20Q338 -10 325 -10Q201 -5 122 80Q36 173 36 331Q36 491 121 588T342 685Q475 685 555 590T636 344Q636 218 584 132Q535 52 449 21V17Q554 -9 642 -25ZM545 340Q545 447 496 524Q440 614 339 614Q234 614 176 522Q127 444 127 333Q127 226 177 149Q235 60 336 60Q440 60 497 152Q545 230 545 340Z"/>
<glyph unicode="R" glyph-name="R" horiz-adv-x="530" d="M507 0H417Q402 28 373 162Q358 232 328 262T240 292H161V0H75V665Q145 679 238 679Q370 679 431 624Q483 577 483 496Q483 432 447 386Q413 344 357 324V321Q430 296 456 184Q491 30 507 0ZM396 486Q396 612 244 612Q189 612 161 604V358H246Q315 358 355 393T396 486Z"/>
<glyph unicode="S" glyph-name="S" horiz-adv-x="484" d="M442 184Q442 101 384 48Q321 -9 209 -9Q104 -9 41 33L63 105Q131 62 215 62Q280 62 317 93T354 177Q354 224 325 255T229 311Q54 377 54 502Q54 581 114 632T270 684Q359 684 415 652L391 581Q339 613 267 613Q205 613 170 580Q142 552 142 512Q142 467 173 437Q202 411 273 382Q360 347 401 301T442 184Z"/>
<glyph unicode="T" glyph-name="T" horiz-adv-x="487" d="M488 601H287V0H200V601H0V674H488V601Z"/>
<glyph unicode="U" glyph-name="U" horiz-adv-x="635" d="M560 278Q560 131 489 57Q425 -10 311 -10Q202 -10 142 54Q74 126 74 274V674H161V271Q161 164 205 110Q244 60 314 60Q474 60 474 271V674H560V278Z"/>
<glyph unicode="V" glyph-name="V" horiz-adv-x="549" d="M551 674L316 0H221L4 674H98L200 343Q251 177 271 91H273Q294 181 348 342L459 674H551Z"/>
<glyph unicode="W" glyph-name="W" horiz-adv-x="833" d="M824 674L637 0H547L464 349Q431 487 420 570H418Q406 493 367 349L274 0H183L15 674H107L185 334Q215 206 234 100H236Q248 173 290 335L379 674H467L548 334Q582 191 595 102H597Q615 202 649 335L736 674H824Z"/>
<glyph unicode="X" glyph-name="X" horiz-adv-x="559" d="M535 0H435L351 150Q323 196 275 282H273Q271 278 203 149L123 0H24L226 342L32 674H131L219 516Q260 442 280 402H282Q303 447 342 516L431 674H530L329 346L535 0Z"/>
<glyph unicode="Y" glyph-name="Y" horiz-adv-x="531" d="M530 674L309 287V0H222V286L13 674H111L203 489Q245 405 269 349H271Q293 403 338 490L432 674H530Z"/>
<glyph unicode="Z" glyph-name="Z" horiz-adv-x="540" d="M509 0H29V51L394 602H60V674H505V621L143 72H509V0Z"/>
<glyph unicode="[" glyph-name="bracketleft" horiz-adv-x="282" d="M262 -112H81V686H262V631H149V-57H262V-112Z"/>
<glyph unicode="\" glyph-name="backslash" horiz-adv-x="341" d="M342 -40H274L2 685H69L342 -40Z"/>
<glyph unicode="]" glyph-name="bracketright" horiz-adv-x="282" d="M201 -112H20V-57H133V631H20V686H201V-112Z"/>
<glyph unicode="^" glyph-name="asciicircum" horiz-adv-x="596" d="M535 189H466L299 577H297L130 189H61L267 650H329L535 189Z"/>
<glyph unicode="_" glyph-name="underscore" horiz-adv-x="500" d="M500 -125H0V-75H500V-125Z"/>
<glyph unicode="`" glyph-name="grave" horiz-adv-x="300" d="M206 543H144L23 686H119L206 543Z"/>
<glyph unicode="a" glyph-name="a" horiz-adv-x="474" d="M414 0H335L327 60H325Q275 -10 180 -10Q112 -10 72 32Q35 71 35 128Q35 216 109 262T320 308V318Q320 430 212 430Q142 430 89 395L69 453Q133 494 226 494Q406 494 406 298V115Q406 44 414 0ZM321 162V247Q122 251 122 138Q122 97 145 76T203 54Q246 54 278 79Q306 101 317 134Q321 147 321 162Z"/>
<glyph unicode="b" glyph-name="b" horiz-adv-x="558" d="M520 248Q520 126 453 54Q394 -10 307 -10Q201 -10 150 78H147L143 0H68Q72 58 72 124V709H158V407H160Q209 494 321 494Q409 494 464 426T520 248ZM433 245Q433 322 397 372Q358 425 292 425Q248 425 212 396T163 319Q158 300 158 282V192Q158 137 196 98T290 59Q357 59 395 110T433 245Z"/>
<glyph unicode="c" glyph-name="c" horiz-adv-x="438" d="M411 469L392 402Q350 425 293 425Q214 425 169 370Q126 320 126 241Q126 159 172 110T291 60Q343 60 395 83L409 17Q354 -9 275 -9Q167 -9 103 58T38 237Q38 350 108 422T293 494Q365 494 411 469Z"/>
<glyph unicode="d" glyph-name="d" horiz-adv-x="553" d="M485 0H407L403 82H401Q354 -10 241 -10Q153 -10 96 58T38 235Q38 353 101 426Q161 494 250 494Q352 494 392 422H394V709H481V124Q481 58 485 0ZM394 201V288Q394 310 391 325Q381 368 348 397T267 426Q202 426 164 374T125 240Q125 162 161 113Q199 59 265 59Q322 59 359 103Q394 144 394 201Z"/>
<glyph unicode="e" glyph-name="e" horiz-adv-x="492" d="M456 270Q456 244 453 227H121Q123 142 171 98Q213 59 284 59Q356 59 414 83L429 21Q364 -8 271 -8Q163 -8 101 58T38 235Q38 348 98 421T261 495Q364 495 416 416Q456 355 456 270ZM372 290Q373 345 349 383Q318 432 254 432Q194 432 158 384Q129 345 122 290H372Z"/>
<glyph unicode="f" glyph-name="f" horiz-adv-x="288" d="M327 706L315 639Q290 649 259 649Q167 649 167 510V484H282V418H168V0H81V418H14V484H81V507Q81 621 136 675Q182 720 252 720Q295 720 327 706Z"/>
<glyph unicode="g" glyph-name="g" horiz-adv-x="549" d="M481 484Q477 425 477 350V70Q477 -87 409 -150Q347 -207 236 -207Q137 -207 79 -169L100 -101Q161 -139 239 -139Q391 -139 391 28V82H389Q343 2 240 2Q152 2 95 69T38 238Q38 356 104 428Q165 494 252 494Q355 494 398 412H400L404 484H481ZM390 204V295Q390 319 386 334Q357 426 266 426Q203 426 164 376T125 243Q125 167 161 120Q199 68 265 68Q305 68 337 92T384 158Q390 178 390 204Z"/>
<glyph unicode="h" glyph-name="h" horiz-adv-x="545" d="M476 0H389V281Q389 422 280 422Q240 422 209 398T164 335Q159 319 159 294V0H72V709H159V410H161Q184 449 224 471T311 494Q374 494 418 454Q476 400 476 290V0Z"/>
<glyph unicode="i" glyph-name="i" horiz-adv-x="231" d="M171 629Q171 604 155 589T114 573Q90 573 75 589T59 629Q59 653 75 669T115 685Q140 685 155 670T171 629ZM159 0H72V484H159V0Z"/>
<glyph unicode="j" glyph-name="j" horiz-adv-x="240" d="M182 629Q182 604 166 589T125 573Q101 573 86 589T70 629Q70 653 86 669T127 685Q151 685 166 669T182 629ZM170 42Q170 -97 112 -155Q60 -209 -34 -210L-43 -141Q21 -136 50 -104Q83 -66 83 75V484H170V42Z"/>
<glyph unicode="k" glyph-name="k" horiz-adv-x="461" d="M470 0H364L202 232L158 182V0H72V709H158V262H160Q181 292 201 317L341 484H445L262 284L470 0Z"/>
<glyph unicode="l" glyph-name="l" horiz-adv-x="231" d="M159 0H72V709H159V0Z"/>
<glyph unicode="m" glyph-name="m" horiz-adv-x="820" d="M751 0H666V275Q666 423 563 423Q516 423 485 386T454 300V0H369V292Q369 351 344 387T271 423Q222 423 188 381Q157 343 157 293V0H72V353Q72 413 68 484H144L148 407H151Q202 494 300 494Q348 494 383 468T434 399H436Q458 437 491 461Q535 494 594 494Q655 494 697 453Q751 399 751 287V0Z"/>
<glyph unicode="n" glyph-name="n" horiz-adv-x="545" d="M476 0H389V281Q389 423 280 423Q228 423 194 384T159 292V0H72V353Q72 413 68 484H145L150 406H152Q172 443 210 467Q254 494 309 494Q373 494 417 454Q476 400 476 291V0Z"/>
<glyph unicode="o" glyph-name="o" horiz-adv-x="538" d="M500 246Q500 135 439 64Q374 -10 265 -10Q160 -10 97 62Q38 132 38 238Q38 349 99 420Q164 494 273 494Q378 494 441 422Q500 353 500 246ZM411 243Q411 316 377 368Q338 429 269 429Q198 429 159 368Q125 316 125 241Q125 169 160 116Q199 55 268 55Q336 55 376 117Q411 171 411 243Z"/>
<glyph unicode="p" glyph-name="p" horiz-adv-x="558" d="M520 249Q520 125 454 54Q395 -10 305 -10Q205 -10 160 64H158V-197H72V327Q72 405 68 484H146L150 403H152Q207 494 319 494Q407 494 463 426T520 249ZM432 245Q432 321 397 371Q358 425 293 425Q248 425 212 395T164 318Q158 295 158 282V196Q158 138 195 98T290 58Q357 58 394 109T432 245Z"/>
<glyph unicode="q" glyph-name="q" horiz-adv-x="552" d="M485 484Q481 411 481 350V-197H394V73H392Q346 -10 238 -10Q153 -10 96 57T38 234Q38 360 107 432Q167 494 252 494Q355 494 397 412H399L402 484H485ZM394 196V289Q394 345 359 385T268 425Q202 425 164 374T126 239Q126 162 160 113Q197 59 265 59Q307 59 340 84T387 154Q394 175 394 196Z"/>
<glyph unicode="r" glyph-name="r" horiz-adv-x="322" d="M308 410Q295 412 278 412Q219 412 187 363Q158 320 158 259V0H72V335Q72 413 68 484H145L149 390H152Q168 438 204 466T284 494Q298 494 308 492V410Z"/>
<glyph unicode="s" glyph-name="s" horiz-adv-x="389" d="M350 135Q350 70 302 31T171 -9Q94 -9 38 23L59 89Q113 55 173 55Q266 55 266 127Q266 158 246 178T178 216Q51 264 51 353Q51 413 96 453T216 494Q285 494 333 465L311 401Q267 429 214 429Q177 429 156 411T135 363Q135 335 157 317Q175 300 225 281Q350 232 350 135Z"/>
<glyph unicode="t" glyph-name="t" horiz-adv-x="326" d="M301 418H177V155Q177 62 242 62Q271 62 292 68L296 2Q266 -9 219 -9Q158 -9 125 27T91 152V418H17V484H91V573L177 599V484H301V418Z"/>
<glyph unicode="u" glyph-name="u" horiz-adv-x="540" d="M473 0H396L391 77H388Q338 -10 232 -10Q164 -10 122 32Q69 86 69 199V484H156V215Q156 61 261 61Q301 61 334 87Q362 109 374 141Q382 161 382 186V484H469V132Q469 67 473 0Z"/>
<glyph unicode="v" glyph-name="v" horiz-adv-x="472" d="M462 484L276 0H193L13 484H106L199 212Q224 139 237 88H240Q251 131 279 212L371 484H462Z"/>
<glyph unicode="w" glyph-name="w" horiz-adv-x="725" d="M710 484L556 0H477L405 231Q377 319 363 390H361Q345 313 317 230L241 0H162L18 484H107L170 239Q192 155 206 84H208Q221 144 251 238L328 484H401L475 242Q500 160 517 84H519Q531 152 556 242L624 484H710Z"/>
<glyph unicode="x" glyph-name="x" horiz-adv-x="455" d="M443 0H344L275 109Q254 141 224 193H222Q208 166 172 109L104 0H8L176 247L16 484H113L180 380Q201 349 228 301H231Q251 338 278 381L344 484H439L277 250L443 0Z"/>
<glyph unicode="y" glyph-name="y" horiz-adv-x="463" d="M455 484L327 141Q278 12 245 -51Q207 -123 164 -162Q112 -209 58 -219L35 -146Q76 -133 112 -102Q157 -64 183 -5Q190 9 190 15Q190 22 184 38L10 484H104L207 198Q222 158 237 100H240Q249 132 270 200L363 484H455Z"/>
<glyph unicode="z" glyph-name="z" horiz-adv-x="420" d="M403 0H18V51L232 336Q250 359 294 412V414H37V484H399V429L187 147Q158 108 126 72V70H403V0Z"/>
<glyph unicode="{" glyph-name="braceleft" horiz-adv-x="282" d="M257 -111H236Q93 -111 93 24Q93 52 100 106T108 188Q108 262 28 262V313Q108 313 108 387Q108 416 101 471T93 555Q93 686 237 686H257V631H239Q161 631 161 545Q161 520 168 471T175 398Q176 308 103 289V287Q176 268 175 177Q175 153 168 104T161 29Q161 -56 239 -56H257V-111Z"/>
<glyph unicode="|" glyph-name="bar" horiz-adv-x="236" d="M151 -250H85V750H151V-250Z"/>
<glyph unicode="}" glyph-name="braceright" horiz-adv-x="282" d="M254 262Q174 262 174 188Q174 160 181 106T189 24Q189 -111 45 -111H25V-56H43Q121 -56 121 29Q121 54 114 103T106 177Q106 268 178 287V289Q106 308 106 398Q107 422 114 471T121 545Q121 631 43 631H25V686H45Q189 686 189 555Q189 527 182 471T174 387Q174 313 254 313V262Z"/>
<glyph unicode="~" glyph-name="asciitilde" horiz-adv-x="596" d="M546 358Q550 280 514 241Q484 207 432 207Q381 207 289 251T169 295Q112 295 110 211H50Q48 283 81 322T169 361Q215 361 310 316Q398 274 433 274Q486 274 487 358H546Z"/>
<glyph unicode=" " glyph-name="nbspace" horiz-adv-x="209"/>
<glyph unicode="¡" glyph-name="exclamdown" horiz-adv-x="228" d="M173 427Q173 400 157 383T114 365Q88 365 72 382T56 427Q56 453 72 471T116 489Q142 489 157 471T173 427ZM162 -193H67L80 283H148L162 -193Z"/>
<glyph unicode="¢" glyph-name="cent" horiz-adv-x="505" d="M433 115Q389 90 325 87V-13H263V87Q176 98 123 156Q66 218 66 326Q66 423 120 490T263 572V672H325V574Q384 574 431 550L412 483Q370 508 310 508Q239 508 197 456T154 329Q154 248 197 201T307 154Q366 154 418 178L433 115Z"/>
<glyph unicode="£" glyph-name="sterling" horiz-adv-x="505" d="M463 0H54V50Q104 75 135 122T167 225Q167 262 162 295H60V358H152Q141 424 141 466Q141 554 194 607T330 661Q397 661 437 636L418 570Q383 590 330 590Q223 590 223 467Q223 419 235 358H376V295H243Q249 222 239 182Q223 120 170 74V72H463V0Z"/>
<glyph unicode="¤" glyph-name="currency" horiz-adv-x="505" d="M481 523L403 452Q437 403 437 334Q437 260 403 212L477 138L433 94L365 170Q321 128 250 128Q179 128 137 168L71 94L28 138L100 209Q64 257 64 329Q64 400 102 452L26 522L71 568L139 493Q184 534 253 534Q322 534 366 493L437 568L481 523ZM367 333Q367 390 338 428Q305 471 251 471Q196 471 164 427Q136 387 136 330Q136 275 165 235Q198 191 251 191Q307 191 339 235Q367 274 367 333Z"/>
<glyph unicode="¥" glyph-name="yen" horiz-adv-x="505" d="M488 650L313 347H441V298H287V225H441V176H287V0H205V176H52V225H205V298H52V347H181L16 650H109L210 445Q228 410 250 354H253Q273 411 292 447L398 650H488Z"/>
<glyph unicode="¦" glyph-name="brokenbar" horiz-adv-x="236" d="M151 325H85V675H151V325ZM151 -175H85V175H151V-175Z"/>
<glyph unicode="§" glyph-name="section" horiz-adv-x="511" d="M455 297Q455 225 390 176Q428 142 428 87Q428 14 369 -26Q317 -61 240 -61Q142 -61 85 -20L108 36Q164 -3 239 -3Q288 -3 319 18T350 77Q350 112 324 135T229 182Q142 212 105 242Q57 280 57 339Q57 408 130 457Q93 485 93 540Q93 605 147 644Q198 682 276 682Q355 682 412 650L391 593Q341 624 273 624Q229 624 200 604T170 550Q170 515 204 492Q228 476 293 454Q372 428 408 398Q455 359 455 297ZM383 285Q383 345 295 378Q253 392 173 429Q128 398 128 351Q128 295 232 257Q261 246 290 235Q323 222 345 208Q383 236 383 285Z"/>
<glyph unicode="¨" glyph-name="dieresis" horiz-adv-x="300" d="M289 606Q289 585 275 571T240 556Q219 556 206 571T192 606Q192 627 206 641T241 656Q262 656 275 642T289 606ZM108 606Q108 585 94 571T59 556Q38 556 25 571T11 606Q11 627 25 641T60 656Q81 656 94 642T108 606Z"/>
<glyph unicode="©" glyph-name="copyright" horiz-adv-x="677" d="M641 340Q641 212 555 121T340 30Q212 30 124 120T36 340Q36 468 124 558T341 648Q468 648 554 558T641 340ZM592 340Q592 450 521 528T340 607Q230 607 159 528T87 337Q87 227 159 149T341 71Q450 71 522 152Q592 229 592 340ZM479 184Q433 153 356 153Q272 153 223 204T173 334Q173 417 231 470Q286 520 364 520Q444 520 474 493L462 454Q421 477 364 477Q297 477 261 439T225 337Q225 276 262 236T365 196Q428 196 467 222L479 184Z"/>
<glyph unicode="ª" glyph-name="ordfeminine" horiz-adv-x="341" d="M300 266H241L236 307H234Q197 261 135 261Q88 261 61 288T33 356Q33 411 85 441T230 470V480Q230 509 209 525T157 542Q108 542 73 516L57 558Q103 591 170 591Q295 591 295 452V343Q295 298 300 266ZM232 371V426Q98 430 98 360Q98 336 114 322T155 308Q198 308 222 344Q232 360 232 371Z"/>
<glyph unicode="«" glyph-name="guillemotleft" d="M392 69H321L191 252L321 435H392L260 252L392 69ZM230 69H159L28 252L159 435H229L98 252L230 69Z"/>
<glyph unicode="¬" glyph-name="logicalnot" horiz-adv-x="596" d="M556 121H493V339H40V399H556V121Z"/>
<glyph unicode="­" glyph-name="minus" horiz-adv-x="596" d="M556 237H40V297H556V237Z"/>
<glyph unicode="®" glyph-name="registered" horiz-adv-x="510" d="M478 459Q478 364 414 299T256 233Q162 233 97 299T32 459Q32 552 97 617T257 683Q350 683 414 618T478 459ZM437 458Q437 536 385 592T256 648Q179 648 128 592T76 458Q76 380 127 325Q180 267 257 267Q334 267 386 325Q437 380 437 458ZM355 328H313Q304 339 295 392Q288 436 241 436H214V328H174V578Q219 585 245 585Q298 585 322 567T346 513Q346 467 297 453V451Q331 444 339 390Q346 344 355 328ZM304 509Q304 553 243 553Q226 553 214 552V466H242Q304 466 304 509Z"/>
<glyph unicode="¯" glyph-name="overscore" horiz-adv-x="300" d="M262 584H39V637H262V584Z"/>
<glyph unicode="°" glyph-name="degree" horiz-adv-x="315" d="M293 556Q293 500 254 462T160 423Q104 423 67 459T29 551Q29 608 67 647T162 686Q218 686 255 649T293 556ZM240 554Q240 591 218 615T160 639Q126 639 105 613T84 552Q84 518 106 494T161 469Q196 469 218 494T240 554Z"/>
<glyph unicode="±" glyph-name="plusminus" horiz-adv-x="596" d="M556 317H330V117H266V317H40V377H266V571H330V377H556V317ZM556 0H40V60H556V0Z"/>
<glyph unicode="²" glyph-name="twosuperior" horiz-adv-x="346" d="M309 266H43V302L105 360Q172 423 197 457Q229 499 229 535Q229 605 155 605Q113 605 72 574L51 619Q100 661 172 661Q237 661 272 625Q303 594 303 549Q303 498 264 447Q241 416 172 352L141 323V321H309V266Z"/>
<glyph unicode="³" glyph-name="threesuperior" horiz-adv-x="336" d="M304 378Q304 329 264 296Q220 261 148 261Q76 261 35 288L53 338Q92 312 144 312Q186 312 210 334Q231 353 231 380Q230 415 198 434Q170 451 126 451H100V496H126Q159 496 185 511Q216 528 217 560Q217 610 154 610Q109 610 71 583L54 630Q102 661 167 661Q227 661 259 632Q288 607 288 567Q288 504 212 477V475Q253 469 278 443T304 378Z"/>
<glyph unicode="´" glyph-name="acute" horiz-adv-x="300" d="M284 686L163 543H102L189 686H284Z"/>
<glyph unicode="µ" glyph-name="mu" horiz-adv-x="540" d="M473 0H396L391 78H388Q341 -8 246 -8Q178 -8 148 43H145L150 -197H69V484H156V209Q156 62 263 62Q311 62 346 98T382 175V484H469V132Q469 67 473 0Z"/>
<glyph unicode="¶" glyph-name="paragraph" horiz-adv-x="504" d="M421 -48H359V616H289V-48H227V265H220Q153 265 99 311Q35 365 33 454Q32 547 88 605Q157 676 305 676Q381 676 421 668V-48Z"/>
<glyph unicode="·" glyph-name="middot" horiz-adv-x="206" d="M162 273Q162 246 146 229T102 211Q76 211 60 229T44 273Q44 300 60 318T103 336Q130 336 146 318T162 273Z"/>
<glyph unicode="¸" glyph-name="cedilla" horiz-adv-x="300" d="M227 -118Q227 -199 124 -199Q84 -199 56 -182L71 -139Q96 -154 125 -154Q168 -154 167 -122Q166 -87 90 -80L136 3H190L158 -49Q186 -53 206 -72T227 -118Z"/>
<glyph unicode="¹" glyph-name="onesuperior" horiz-adv-x="317" d="M214 266H145V595H143L71 560L60 612L153 656H214V266Z"/>
<glyph unicode="º" glyph-name="ordmasculine" horiz-adv-x="352" d="M333 428Q333 356 290 309T175 261Q106 261 63 307T19 423Q19 495 63 543T178 591Q249 591 291 545T333 428ZM267 426Q267 472 245 504Q219 541 176 541Q133 541 108 503Q87 470 87 424Q87 381 110 348Q136 310 177 310Q220 310 245 348Q267 380 267 426Z"/>
<glyph unicode="»" glyph-name="guillemotright" d="M386 252L255 69H185L317 252L185 435H255L386 252ZM224 252L93 69H23L155 252L23 435H93L224 252Z"/>
<glyph unicode="¼" glyph-name="onequarter" horiz-adv-x="750" d="M714 103H655V0H589V103H393V142L583 395H655V152H714V103ZM569 661L192 -10H136L513 661H569ZM197 266H127V595H126L54 560L42 612L136 656H197V266ZM593 332H590Q580 312 557 277L464 153V152H589V269Q589 296 593 332Z"/>
<glyph unicode="½" glyph-name="onehalf" horiz-adv-x="750" d="M701 0H434V37L496 94Q563 157 588 191Q621 233 621 270Q621 339 546 339Q505 339 463 308L443 354Q491 395 563 395Q628 395 664 359Q694 328 694 283Q694 232 656 181Q632 150 563 86L533 57V55H701V0ZM549 661L172 -10H116L493 661H549ZM182 266H113V595H111L39 560L28 612L121 656H182V266Z"/>
<glyph unicode="¾" glyph-name="threequarters" horiz-adv-x="750" d="M725 103H665V0H600V103H403V142L593 395H665V152H725V103ZM604 661L228 -10H172L549 661H604ZM299 378Q299 329 257 295T142 261Q71 261 30 288L47 338Q87 312 139 312Q181 312 205 334Q226 353 226 380Q225 415 195 433T121 451H95V496H121Q154 496 180 511Q211 528 211 560Q212 610 148 610Q105 610 66 583L48 629Q96 661 161 661Q221 661 254 632Q283 607 283 567Q283 504 207 477V475Q247 469 273 443T299 378ZM603 332H601Q590 312 568 277L473 153L474 152H600V269Q600 296 603 332Z"/>
<glyph unicode="¿" glyph-name="questiondown" horiz-adv-x="399" d="M292 426Q292 400 276 382T233 364Q207 364 191 382T174 426Q174 454 190 471T234 489Q260 489 276 471T292 426ZM360 -168Q304 -207 220 -207Q139 -207 94 -162Q54 -122 54 -60Q54 -14 80 30Q96 60 140 113Q199 184 195 262L194 287H271L274 262Q283 173 214 88T144 -49Q144 -135 238 -135Q295 -135 337 -104L360 -168Z"/>
<glyph unicode="À" glyph-name="Agrave" horiz-adv-x="600" d="M349 711H279L151 827H255L349 711ZM577 0H485L415 211H182L114 0H25L249 674H353L577 0ZM398 279L333 471Q322 506 299 596H297Q287 555 264 472L199 279H398Z"/>
<glyph unicode="Á" glyph-name="Aacute" horiz-adv-x="600" d="M454 827L325 710H255L349 827H454ZM577 0H485L415 211H182L114 0H25L249 674H353L577 0ZM398 279L333 471Q322 506 299 596H297Q287 555 264 472L199 279H398Z"/>
<glyph unicode="Â" glyph-name="Acircumflex" horiz-adv-x="600" d="M439 710H368L306 784H304L243 710H173L273 827H337L439 710ZM577 0H485L415 211H182L114 0H25L249 674H353L577 0ZM398 279L333 471Q322 506 299 596H297Q287 555 264 472L199 279H398Z"/>
<glyph unicode="Ã" glyph-name="Atilde" horiz-adv-x="600" d="M424 816Q426 721 357 721Q332 721 297 740T249 759Q228 759 223 715H178Q177 759 195 786T244 813Q269 813 304 793Q335 775 351 775Q377 775 380 816H424ZM577 0H485L415 211H182L114 0H25L249 674H353L577 0ZM398 279L333 471Q322 506 299 596H297Q287 555 264 472L199 279H398Z"/>
<glyph unicode="Ä" glyph-name="Adieresis" horiz-adv-x="600" d="M442 771Q442 749 429 735T393 721Q373 721 360 735T346 771Q346 792 360 806T395 821Q415 821 428 807T442 771ZM261 771Q261 749 248 735T212 721Q191 721 178 735T165 771Q165 792 179 806T213 821Q234 821 247 807T261 771ZM577 0H485L415 211H182L114 0H25L249 674H353L577 0ZM398 279L333 471Q322 506 299 596H297Q287 555 264 472L199 279H398Z"/>
<glyph unicode="Å" glyph-name="Aring" horiz-adv-x="600" d="M579 0H486L416 211H183L115 0H26L247 664Q198 682 198 737Q198 776 227 803T305 830Q354 830 382 804T411 737Q411 681 358 662L579 0ZM358 739Q358 793 303 793Q251 793 251 738Q251 715 266 700T304 685Q358 685 358 739ZM399 279L332 476Q328 488 299 596H297Q285 536 268 486L199 279H399Z"/>
<glyph unicode="Æ" glyph-name="AE" horiz-adv-x="772" d="M741 72V0H424L395 237H194L89 0H0L301 674H714V602H435L460 386H706V314H470L499 72H741ZM386 307L365 501Q360 539 353 612H349Q325 547 307 504L222 307H386Z"/>
<glyph unicode="Ç" glyph-name="Ccedilla" horiz-adv-x="573" d="M535 655L514 585Q458 612 383 612Q266 612 198 540Q127 466 127 334Q127 208 194 136T379 63Q461 63 517 90L535 21Q474 -8 361 -9L336 -49Q365 -53 385 -72T405 -120Q405 -199 303 -199Q263 -199 234 -182L249 -139Q274 -153 302 -153Q344 -153 344 -122Q344 -87 267 -80L309 -5Q186 9 113 94Q36 184 36 331Q36 491 131 587T380 684Q481 684 535 655Z"/>
<glyph unicode="È" glyph-name="Egrave" horiz-adv-x="482" d="M316 711H246L118 827H222L316 711ZM447 0H75V674H432V602H161V388H417V316H161V72H447V0Z"/>
<glyph unicode="É" glyph-name="Eacute" horiz-adv-x="482" d="M403 827L274 710H205L299 827H403ZM447 0H75V674H432V602H161V388H417V316H161V72H447V0Z"/>
<glyph unicode="Ê" glyph-name="Ecircumflex" horiz-adv-x="482" d="M387 710H315L254 784H252L190 710H121L221 827H284L387 710ZM447 0H75V674H432V602H161V388H417V316H161V72H447V0Z"/>
<glyph unicode="Ë" glyph-name="Edieresis" horiz-adv-x="482" d="M395 771Q395 749 381 735T346 721Q325 721 312 735T299 771Q299 792 312 806T347 821Q368 821 381 807T395 771ZM213 771Q213 749 200 735T164 721Q144 721 131 735T117 771Q117 792 131 806T166 821Q187 821 200 807T213 771ZM447 0H75V674H432V602H161V388H417V316H161V72H447V0Z"/>
<glyph unicode="Ì" glyph-name="Igrave" horiz-adv-x="237" d="M169 711H100L-29 827H76L169 711ZM161 0H75V674H161V0Z"/>
<glyph unicode="Í" glyph-name="Iacute" horiz-adv-x="237" d="M266 827L137 710H68L162 827H266ZM161 0H75V674H161V0Z"/>
<glyph unicode="Î" glyph-name="Icircumflex" horiz-adv-x="237" d="M251 710H180L118 784H116L54 710H-15L85 827H149L251 710ZM161 0H75V674H161V0Z"/>
<glyph unicode="Ï" glyph-name="Idieresis" horiz-adv-x="237" d="M257 771Q257 749 243 735T208 721Q187 721 174 735T161 771Q161 792 174 806T209 821Q230 821 243 807T257 771ZM75 771Q75 749 62 735T26 721Q6 721 -7 735T-20 771Q-20 792 -7 806T28 821Q48 821 61 807T75 771ZM161 0H75V674H161V0Z"/>
<glyph unicode="Ð" glyph-name="Eth" horiz-adv-x="657" d="M620 353Q620 184 524 89T233 -6Q143 -6 80 0V308H-1V377H80V667Q165 681 260 681Q436 681 525 599Q620 512 620 353ZM529 352Q529 476 464 543Q396 612 264 612Q209 612 166 604V377H342V308H166V67Q191 63 250 63Q386 63 457 137T529 352Z"/>
<glyph unicode="Ñ" glyph-name="Ntilde" horiz-adv-x="645" d="M455 816Q456 721 388 721Q363 721 328 740T280 759Q258 759 254 715H209Q207 759 225 786T274 813Q300 813 335 793Q366 775 382 775Q407 775 411 816H455ZM570 0H483L275 340Q195 471 152 566L149 565Q156 459 156 285V0H75V674H169L379 335Q448 223 497 115H499Q489 226 489 394V674H570V0Z"/>
<glyph unicode="Ò" glyph-name="Ograve" horiz-adv-x="672" d="M384 711H315L186 827H290L384 711ZM636 344Q636 193 561 96Q478 -10 331 -10Q192 -10 111 93Q36 188 36 332Q36 479 113 577Q197 685 341 685Q481 685 562 582Q636 488 636 344ZM544 340Q544 447 495 524Q437 614 336 614Q232 614 175 522Q126 445 126 334Q126 227 176 150Q234 60 335 60Q439 60 496 152Q544 230 544 340Z"/>
<glyph unicode="Ó" glyph-name="Oacute" horiz-adv-x="672" d="M493 827L365 710H295L389 827H493ZM636 344Q636 193 561 96Q478 -10 331 -10Q192 -10 111 93Q36 188 36 332Q36 479 113 577Q197 685 341 685Q481 685 562 582Q636 488 636 344ZM544 340Q544 447 495 524Q437 614 336 614Q232 614 175 522Q126 445 126 334Q126 227 176 150Q234 60 335 60Q439 60 496 152Q544 230 544 340Z"/>
<glyph unicode="Ô" glyph-name="Ocircumflex" horiz-adv-x="672" d="M470 710H398L336 784H334L273 710H203L304 827H367L470 710ZM636 344Q636 193 561 96Q478 -10 331 -10Q192 -10 111 93Q36 188 36 332Q36 479 113 577Q197 685 341 685Q481 685 562 582Q636 488 636 344ZM544 340Q544 447 495 524Q437 614 336 614Q232 614 175 522Q126 445 126 334Q126 227 176 150Q234 60 335 60Q439 60 496 152Q544 230 544 340Z"/>
<glyph unicode="Õ" glyph-name="Otilde" horiz-adv-x="672" d="M460 816Q461 721 393 721Q368 721 333 740T285 759Q263 759 259 715H213Q212 759 230 786T279 813Q305 813 338 794T387 775Q412 775 415 816H460ZM636 344Q636 193 561 96Q478 -10 331 -10Q192 -10 111 93Q36 188 36 332Q36 479 113 577Q197 685 341 685Q481 685 562 582Q636 488 636 344ZM544 340Q544 447 495 524Q437 614 336 614Q232 614 175 522Q126 445 126 334Q126 227 176 150Q234 60 335 60Q439 60 496 152Q544 230 544 340Z"/>
<glyph unicode="Ö" glyph-name="Odieresis" horiz-adv-x="672" d="M475 771Q475 749 462 735T426 721Q405 721 392 735T379 771Q379 792 393 806T427 821Q448 821 461 807T475 771ZM293 771Q293 749 280 735T245 721Q224 721 211 735T197 771Q197 792 211 806T246 821Q267 821 280 807T293 771ZM636 344Q636 176 547 79Q463 -10 332 -10H331Q200 -10 118 84T36 332Q36 490 121 587T341 685Q474 685 555 591T636 344ZM544 340Q544 450 493 527Q435 614 336 614Q236 614 178 528Q126 450 126 334Q126 221 180 144Q238 60 334 60H335Q433 60 490 143Q544 221 544 340Z"/>
<glyph unicode="×" glyph-name="multiply" horiz-adv-x="596" d="M556 482L341 263L556 44L512 0L298 219L83 0L40 44L255 263L40 482L83 526L298 307L513 526L556 482Z"/>
<glyph unicode="Ø" glyph-name="Oslash" horiz-adv-x="672" d="M636 343Q636 174 546 78Q463 -10 337 -10Q242 -10 171 43L111 -41L62 -3L123 84Q36 179 36 334Q36 492 122 588T339 685Q432 685 503 633L560 713L612 678L552 592Q636 497 636 343ZM460 568Q407 615 338 615Q237 615 178 529Q124 452 124 338Q124 243 171 158L173 159L460 568ZM548 340Q548 438 503 514L500 515L214 107Q263 59 336 59Q435 59 493 143Q548 221 548 340Z"/>
<glyph unicode="Ù" glyph-name="Ugrave" horiz-adv-x="635" d="M374 711H305L176 827H280L374 711ZM560 278Q560 131 489 57Q425 -10 311 -10Q202 -10 142 54Q74 126 74 274V674H161V271Q161 164 205 110Q244 60 314 60Q474 60 474 271V674H560V278Z"/>
<glyph unicode="Ú" glyph-name="Uacute" horiz-adv-x="635" d="M470 827L341 710H271L365 827H470ZM560 278Q560 131 489 57Q425 -10 311 -10Q202 -10 142 54Q74 126 74 274V674H161V271Q161 164 205 110Q244 60 314 60Q474 60 474 271V674H560V278Z"/>
<glyph unicode="Û" glyph-name="Ucircumflex" horiz-adv-x="635" d="M457 710H385L324 784H322L260 710H191L291 827H354L457 710ZM560 278Q560 131 489 57Q425 -10 311 -10Q202 -10 142 54Q74 126 74 274V674H161V271Q161 164 205 110Q244 60 314 60Q474 60 474 271V674H560V278Z"/>
<glyph unicode="Ü" glyph-name="Udieresis" horiz-adv-x="635" d="M458 771Q458 749 445 735T409 721Q389 721 376 735T362 771Q362 792 376 806T411 821Q432 821 445 807T458 771ZM277 771Q277 749 264 735T228 721Q208 721 195 735T181 771Q181 792 195 806T230 821Q250 821 263 807T277 771ZM560 278Q560 131 489 57Q425 -10 311 -10Q202 -10 142 54Q74 126 74 274V674H161V271Q161 164 205 110Q244 60 314 60Q474 60 474 271V674H560V278Z"/>
<glyph unicode="Ý" glyph-name="Yacute" horiz-adv-x="531" d="M428 827L299 710H230L323 827H428ZM530 674L309 287V0H222V286L13 674H111L203 489Q245 405 269 349H271Q293 403 338 490L432 674H530Z"/>
<glyph unicode="Þ" glyph-name="Thorn" horiz-adv-x="522" d="M483 364Q483 261 412 205Q346 152 234 152Q191 152 160 157V0H75V674H160V542Q200 549 253 549Q369 549 428 495Q483 444 483 364ZM397 355Q397 481 245 481Q190 481 160 473V227Q189 221 233 221Q311 221 354 257T397 355Z"/>
<glyph unicode="ß" glyph-name="germandbls" horiz-adv-x="540" d="M499 148Q499 77 451 34T322 -10Q259 -10 218 10L233 76Q273 57 316 57Q362 57 387 81T413 141Q413 192 359 244Q283 317 283 377Q283 456 371 499Q379 518 379 543Q379 594 351 622T277 651Q159 651 159 455V0H72V452Q72 604 143 669Q198 720 287 720Q361 720 410 676Q463 630 463 551Q463 503 440 469Q369 439 369 389Q369 353 419 301Q459 261 474 236Q499 196 499 148Z"/>
<glyph unicode="à" glyph-name="agrave" horiz-adv-x="474" d="M275 543H214L93 686H188L275 543ZM414 0H335L327 60H325Q275 -10 180 -10Q112 -10 72 32Q35 71 35 128Q35 216 109 262T320 308V318Q320 430 212 430Q142 430 89 395L69 453Q133 494 226 494Q406 494 406 298V115Q406 44 414 0ZM321 162V247Q122 251 122 138Q122 97 145 76T203 54Q246 54 278 79Q306 101 317 134Q321 147 321 162Z"/>
<glyph unicode="á" glyph-name="aacute" horiz-adv-x="474" d="M368 686L247 543H186L273 686H368ZM414 0H335L327 60H325Q275 -10 180 -10Q112 -10 72 32Q35 71 35 128Q35 216 109 262T320 308V318Q320 430 212 430Q142 430 89 395L69 453Q133 494 226 494Q406 494 406 298V115Q406 44 414 0ZM321 162V247Q122 251 122 138Q122 97 145 76T203 54Q246 54 278 79Q306 101 317 134Q321 147 321 162Z"/>
<glyph unicode="â" glyph-name="acircumflex" horiz-adv-x="474" d="M355 543H290L233 637H231L174 543H111L203 686H261L355 543ZM414 0H335L327 60H325Q275 -10 180 -10Q112 -10 72 32Q35 71 35 128Q35 216 109 262T320 308V318Q320 430 212 430Q142 430 89 395L69 453Q133 494 226 494Q406 494 406 298V115Q406 44 414 0ZM321 162V247Q122 251 122 138Q122 97 145 76T203 54Q246 54 278 79Q306 101 317 134Q321 147 321 162Z"/>
<glyph unicode="ã" glyph-name="atilde" horiz-adv-x="474" d="M355 662Q356 567 289 567Q266 567 228 588Q197 605 184 605Q162 605 158 561H113Q112 604 129 631T178 659Q200 659 241 637Q273 620 286 620Q309 620 312 662H355ZM414 0H335L327 60H325Q275 -10 180 -10Q112 -10 72 32Q35 71 35 128Q35 216 109 262T320 308V318Q320 430 212 430Q142 430 89 395L69 453Q133 494 226 494Q406 494 406 298V115Q406 44 414 0ZM321 162V247Q122 251 122 138Q122 97 145 76T203 54Q246 54 278 79Q306 101 317 134Q321 147 321 162Z"/>
<glyph unicode="ä" glyph-name="adieresis" horiz-adv-x="474" d="M376 606Q376 585 362 571T327 556Q306 556 293 571T279 606Q279 627 293 641T328 656Q349 656 362 642T376 606ZM195 606Q195 585 181 571T146 556Q126 556 112 571T98 606Q98 627 112 641T148 656Q168 656 181 642T195 606ZM414 0H335L327 60H325Q275 -10 180 -10Q112 -10 72 32Q35 71 35 128Q35 216 109 262T320 308V318Q320 430 212 430Q142 430 89 395L69 453Q133 494 226 494Q406 494 406 298V115Q406 44 414 0ZM321 162V247Q122 251 122 138Q122 97 145 76T203 54Q246 54 278 79Q306 101 317 134Q321 147 321 162Z"/>
<glyph unicode="å" glyph-name="aring" horiz-adv-x="474" d="M336 626Q336 585 307 560T237 534Q195 534 166 559T136 625Q136 668 165 693T238 719Q280 719 308 693T336 626ZM414 0H335L327 60H325Q275 -10 180 -10Q112 -10 72 32Q35 71 35 128Q35 216 109 262T320 308V318Q320 430 212 430Q142 430 89 395L69 453Q133 494 226 494Q406 494 406 298V115Q406 44 414 0ZM287 627Q287 650 273 666T235 682Q213 682 200 665T186 625Q186 604 200 588T236 572Q259 572 273 588T287 627ZM321 162V247Q122 251 122 138Q122 97 145 76T203 54Q246 54 278 79Q306 101 317 134Q321 147 321 162Z"/>
<glyph unicode="æ" glyph-name="ae" horiz-adv-x="759" d="M723 274Q723 251 720 234H403Q401 149 443 104T555 58Q627 58 683 85L699 23Q636 -9 543 -9Q481 -9 432 18T363 96H360Q313 -9 184 -9Q114 -9 73 32Q35 71 35 128Q35 212 110 258T321 303V323Q321 358 302 387Q273 430 211 430Q140 430 89 395L69 452Q137 495 217 495Q338 495 371 394H373Q424 495 538 495Q635 495 685 415Q723 353 723 274ZM639 296Q642 345 617 384Q586 433 529 433Q471 433 435 386Q405 346 403 296H639ZM323 171V244Q121 248 121 135Q121 98 144 77T203 55Q255 55 289 88T323 171Z"/>
<glyph unicode="ç" glyph-name="ccedilla" horiz-adv-x="438" d="M411 469L392 402Q350 425 293 425Q214 425 169 370Q126 320 126 241Q126 159 172 110T291 60Q344 60 395 83L411 17Q357 -8 284 -9L259 -49Q288 -53 308 -72T329 -118Q329 -199 225 -199Q186 -199 158 -182L173 -139Q197 -154 226 -154Q269 -154 269 -122Q268 -87 191 -80L233 -6Q144 5 91 71T38 237Q38 350 108 422T293 494Q365 494 411 469Z"/>
<glyph unicode="è" glyph-name="egrave" horiz-adv-x="492" d="M313 543H251L130 686H226L313 543ZM456 270Q456 244 453 227H121Q123 142 171 98Q213 59 284 59Q356 59 414 83L429 21Q364 -8 271 -8Q163 -8 101 58T38 235Q38 348 98 421T261 495Q364 495 416 416Q456 355 456 270ZM372 290Q373 345 349 383Q318 432 254 432Q194 432 158 384Q129 345 122 290H372Z"/>
<glyph unicode="é" glyph-name="eacute" horiz-adv-x="492" d="M396 686L275 543H214L301 686H396ZM456 270Q456 244 453 227H121Q123 142 171 98Q213 59 284 59Q356 59 414 83L429 21Q364 -8 271 -8Q163 -8 101 58T38 235Q38 348 98 421T261 495Q364 495 416 416Q456 355 456 270ZM372 290Q373 345 349 383Q318 432 254 432Q194 432 158 384Q129 345 122 290H372Z"/>
<glyph unicode="ê" glyph-name="ecircumflex" horiz-adv-x="492" d="M381 543H316L259 637H257L200 543H137L229 686H287L381 543ZM456 270Q456 244 453 227H121Q123 142 171 98Q213 59 284 59Q356 59 414 83L429 21Q364 -8 271 -8Q163 -8 101 58T38 235Q38 348 98 421T261 495Q364 495 416 416Q456 355 456 270ZM372 290Q373 345 349 383Q318 432 254 432Q194 432 158 384Q129 345 122 290H372Z"/>
<glyph unicode="ë" glyph-name="edieresis" horiz-adv-x="492" d="M403 606Q403 585 389 571T354 556Q333 556 320 571T306 606Q306 627 320 641T355 656Q376 656 389 642T403 606ZM222 606Q222 585 208 571T173 556Q152 556 139 571T125 606Q125 627 139 641T174 656Q195 656 208 642T222 606ZM456 270Q456 244 453 227H121Q123 142 171 98Q213 59 284 59Q356 59 414 83L429 21Q364 -8 271 -8Q163 -8 101 58T38 235Q38 348 98 421T261 495Q364 495 416 416Q456 355 456 270ZM372 290Q373 345 349 383Q318 432 254 432Q194 432 158 384Q129 345 122 290H372Z"/>
<glyph unicode="ì" glyph-name="igrave" horiz-adv-x="231" d="M155 543H94L-27 686H68L155 543ZM159 0H72V484H159V0Z"/>
<glyph unicode="í" glyph-name="iacute" horiz-adv-x="231" d="M254 686L133 543H72L159 686H254ZM159 0H72V484H159V0Z"/>
<glyph unicode="î" glyph-name="icircumflex" horiz-adv-x="231" d="M238 543H173L116 637H114L57 543H-7L86 686H144L238 543ZM159 0H72V484H159V0Z"/>
<glyph unicode="ï" glyph-name="idieresis" horiz-adv-x="231" d="M254 606Q254 585 241 571T205 556Q185 556 172 571T158 606Q158 627 172 641T207 656Q227 656 240 642T254 606ZM73 606Q73 585 60 571T25 556Q4 556 -9 571T-22 606Q-22 627 -9 641T26 656Q47 656 60 642T73 606ZM159 0H72V484H159V0Z"/>
<glyph unicode="ð" glyph-name="eth" horiz-adv-x="531" d="M492 252Q492 122 420 51Q357 -10 263 -10Q165 -10 102 57T39 236Q39 348 105 418Q167 483 256 484Q320 485 365 443L367 446Q325 517 254 572L115 507L96 550L209 604Q171 633 107 665L146 719Q222 684 283 638L408 698L430 655L325 605Q406 537 449 450T492 252ZM402 242Q402 335 369 377Q331 425 265 425Q197 425 159 363Q126 310 126 238Q126 168 159 116Q198 55 263 55Q332 55 370 117Q402 169 402 242Z"/>
<glyph unicode="ñ" glyph-name="ntilde" horiz-adv-x="545" d="M395 662Q396 567 329 567Q305 567 268 588Q237 605 224 605Q201 605 198 561H153Q152 604 169 631T217 659Q239 659 280 637Q312 620 326 620Q349 620 351 662H395ZM476 0H389V281Q389 423 280 423Q228 423 194 384T159 292V0H72V353Q72 413 68 484H145L150 406H152Q172 443 210 467Q254 494 309 494Q373 494 417 454Q476 400 476 291V0Z"/>
<glyph unicode="ò" glyph-name="ograve" horiz-adv-x="538" d="M321 543H259L138 686H234L321 543ZM500 246Q500 135 439 64Q374 -10 265 -10Q160 -10 97 62Q38 132 38 238Q38 349 99 420Q164 494 273 494Q378 494 441 422Q500 353 500 246ZM411 243Q411 316 377 368Q338 429 269 429Q198 429 159 368Q125 316 125 241Q125 169 160 116Q199 55 268 55Q336 55 376 117Q411 171 411 243Z"/>
<glyph unicode="ó" glyph-name="oacute" horiz-adv-x="538" d="M401 686L280 543H219L306 686H401ZM500 246Q500 135 439 64Q374 -10 265 -10Q160 -10 97 62Q38 132 38 238Q38 349 99 420Q164 494 273 494Q378 494 441 422Q500 353 500 246ZM411 243Q411 316 377 368Q338 429 269 429Q198 429 159 368Q125 316 125 241Q125 169 160 116Q199 55 268 55Q336 55 376 117Q411 171 411 243Z"/>
<glyph unicode="ô" glyph-name="ocircumflex" horiz-adv-x="538" d="M392 543H326L269 637H267L210 543H147L239 686H297L392 543ZM500 246Q500 135 439 64Q374 -10 265 -10Q160 -10 97 62Q38 132 38 238Q38 349 99 420Q164 494 273 494Q378 494 441 422Q500 353 500 246ZM411 243Q411 316 377 368Q338 429 269 429Q198 429 159 368Q125 316 125 241Q125 169 160 116Q199 55 268 55Q336 55 376 117Q411 171 411 243Z"/>
<glyph unicode="õ" glyph-name="otilde" horiz-adv-x="538" d="M390 662Q391 567 324 567Q301 567 263 588Q232 605 219 605Q197 605 193 561H148Q147 604 164 631T213 659Q235 659 276 637Q308 620 321 620Q344 620 347 662H390ZM500 246Q500 135 439 64Q374 -10 265 -10Q160 -10 97 62Q38 132 38 238Q38 349 99 420Q164 494 273 494Q378 494 441 422Q500 353 500 246ZM411 243Q411 316 377 368Q338 429 269 429Q198 429 159 368Q125 316 125 241Q125 169 160 116Q199 55 268 55Q336 55 376 117Q411 171 411 243Z"/>
<glyph unicode="ö" glyph-name="odieresis" horiz-adv-x="538" d="M408 606Q408 585 394 571T359 556Q338 556 325 571T311 606Q311 627 325 641T360 656Q381 656 394 642T408 606ZM227 606Q227 585 213 571T178 556Q158 556 144 571T130 606Q130 627 144 641T180 656Q200 656 213 642T227 606ZM500 246Q500 135 439 64Q374 -10 265 -10Q160 -10 97 62Q38 132 38 238Q38 349 99 420Q164 494 273 494Q378 494 441 422Q500 353 500 246ZM411 243Q411 316 377 368Q338 429 269 429Q198 429 159 368Q125 316 125 241Q125 169 160 116Q199 55 268 55Q336 55 376 117Q411 171 411 243Z"/>
<glyph unicode="÷" glyph-name="divide" horiz-adv-x="596" d="M351 442Q351 387 297 387Q274 387 260 403T246 442Q246 466 260 481T299 497Q322 497 336 482T351 442ZM555 237H39V297H555V237ZM350 91Q350 37 296 37Q273 37 259 52T245 91Q245 115 259 131T298 147Q321 147 335 131T350 91Z"/>
<glyph unicode="ø" glyph-name="oslash" horiz-adv-x="538" d="M500 245Q500 121 426 51Q362 -10 269 -10Q200 -10 149 23L106 -37L69 -7L110 52Q38 122 38 239Q38 357 106 427Q170 494 270 494H271Q338 494 390 461L431 520L471 493L429 431Q500 360 500 245ZM352 400Q320 429 269 429Q197 429 157 367Q123 315 123 241Q123 171 157 121L159 120L352 400ZM416 242Q416 310 383 360H381L189 83Q221 55 268 55Q334 55 375 108T416 242Z"/>
<glyph unicode="ù" glyph-name="ugrave" horiz-adv-x="540" d="M324 543H262L142 686H237L324 543ZM473 0H396L391 77H388Q338 -10 232 -10Q164 -10 122 32Q69 86 69 199V484H156V215Q156 61 261 61Q301 61 334 87Q362 109 374 141Q382 161 382 186V484H469V132Q469 67 473 0Z"/>
<glyph unicode="ú" glyph-name="uacute" horiz-adv-x="540" d="M411 686L290 543H229L316 686H411ZM473 0H396L391 77H388Q338 -10 232 -10Q164 -10 122 32Q69 86 69 199V484H156V215Q156 61 261 61Q301 61 334 87Q362 109 374 141Q382 161 382 186V484H469V132Q469 67 473 0Z"/>
<glyph unicode="û" glyph-name="ucircumflex" horiz-adv-x="540" d="M393 543H327L270 637H268L211 543H148L241 686H298L393 543ZM473 0H396L391 77H388Q338 -10 232 -10Q164 -10 122 32Q69 86 69 199V484H156V215Q156 61 261 61Q301 61 334 87Q362 109 374 141Q382 161 382 186V484H469V132Q469 67 473 0Z"/>
<glyph unicode="ü" glyph-name="udieresis" horiz-adv-x="540" d="M412 606Q412 585 398 571T363 556Q342 556 329 571T315 606Q315 627 329 641T364 656Q385 656 398 642T412 606ZM231 606Q231 585 217 571T182 556Q162 556 148 571T134 606Q134 627 148 641T184 656Q204 656 217 642T231 606ZM473 0H396L391 77H388Q338 -10 232 -10Q164 -10 122 32Q69 86 69 199V484H156V215Q156 61 261 61Q301 61 334 87Q362 109 374 141Q382 161 382 186V484H469V132Q469 67 473 0Z"/>
<glyph unicode="ý" glyph-name="yacute" horiz-adv-x="463" d="M378 686L257 543H196L283 686H378ZM455 484L327 141Q278 12 245 -51Q207 -123 164 -162Q112 -209 58 -219L35 -146Q76 -133 112 -102Q157 -64 183 -5Q190 9 190 15Q190 22 184 38L10 484H104L207 198Q222 158 237 100H240Q249 132 270 200L363 484H455Z"/>
<glyph unicode="þ" glyph-name="thorn" horiz-adv-x="558" d="M520 248Q520 123 453 52Q393 -10 305 -10Q208 -10 160 64H158V-197H72V669H158V409H160Q212 494 320 494Q406 495 463 427T520 248ZM432 246Q432 322 395 373T294 425Q252 425 217 399T168 330Q158 303 158 282V190Q158 166 167 146Q181 105 215 82T292 58Q356 58 394 109T432 246Z"/>
<glyph unicode="ÿ" glyph-name="ydieresis" horiz-adv-x="463" d="M381 606Q381 585 367 571T332 556Q312 556 298 571T284 606Q284 627 298 641T333 656Q354 656 367 642T381 606ZM200 606Q200 585 187 571T151 556Q131 556 117 571T103 606Q103 627 117 641T153 656Q173 656 186 642T200 606ZM455 484L327 141Q278 12 245 -51Q207 -123 164 -162Q112 -209 58 -219L35 -146Q76 -133 112 -102Q157 -64 183 -5Q190 9 190 15Q190 22 184 38L10 484H104L207 198Q222 158 237 100H240Q249 132 270 200L363 484H455Z"/>
<glyph unicode="ı" glyph-name="dotlessi" horiz-adv-x="231" d="M159 0H72V484H159V0Z"/>
<glyph unicode="Ł" glyph-name="Lslash" horiz-adv-x="468" d="M447 0H79V269L-4 207V275L79 336V674H166V396L298 493V425L166 328V73H447V0Z"/>
<glyph unicode="ł" glyph-name="lslash" horiz-adv-x="239" d="M233 417L163 355V0H76V289L8 230V299L76 358V709H163V425L233 487V417Z"/>
<glyph unicode="Œ" glyph-name="OE" horiz-adv-x="875" d="M839 0H501Q477 0 429 -5T356 -10Q206 -10 119 89Q36 183 36 332Q36 496 128 592Q216 685 362 685Q387 685 435 680T509 674H824V602H553V387H808V316H553V72H839V0ZM466 73V600Q423 614 363 614Q255 614 191 539T127 336Q127 209 192 135T372 60Q432 60 466 73Z"/>
<glyph unicode="œ" glyph-name="oe" horiz-adv-x="846" d="M810 270Q810 245 808 229H486Q486 147 531 101Q573 58 643 58Q706 58 770 85L786 23Q728 -9 632 -9Q498 -9 445 104H442Q417 48 365 17Q317 -9 259 -9Q163 -9 101 59T38 240Q38 356 104 427Q167 495 265 495Q326 495 374 465T444 381H446Q499 495 619 495Q720 495 771 415Q810 354 810 270ZM725 291Q727 345 703 383Q673 432 611 432Q553 432 518 384Q489 345 485 291H725ZM405 243Q405 318 373 369Q335 430 265 430Q195 430 158 368Q126 316 126 242Q126 171 160 118Q199 56 266 56Q335 56 373 117Q405 169 405 243Z"/>
<glyph unicode="Š" glyph-name="Scaron" horiz-adv-x="484" d="M386 827L286 710H222L120 827H191L254 754H256L317 827H386ZM442 184Q442 101 384 48Q321 -9 209 -9Q104 -9 41 33L63 105Q131 62 215 62Q280 62 317 93T354 177Q354 224 325 255T229 311Q54 377 54 502Q54 581 114 632T270 684Q359 684 415 652L391 581Q339 613 267 613Q205 613 170 580Q142 552 142 512Q142 467 173 437Q202 411 273 382Q360 347 401 301T442 184Z"/>
<glyph unicode="š" glyph-name="scaron" horiz-adv-x="389" d="M323 686L230 543H169L74 686H140L198 591H200L259 686H323ZM350 135Q350 70 302 31T171 -9Q94 -9 38 23L59 89Q113 55 173 55Q266 55 266 127Q266 158 246 178T178 216Q51 264 51 353Q51 413 96 453T216 494Q285 494 333 465L311 401Q267 429 214 429Q177 429 156 411T135 363Q135 335 157 317Q175 300 225 281Q350 232 350 135Z"/>
<glyph unicode="Ÿ" glyph-name="Ydieresis" horiz-adv-x="531" d="M408 771Q408 749 394 735T358 721Q338 721 325 735T312 771Q312 792 325 806T360 821Q381 821 394 807T408 771ZM226 771Q226 749 213 735T177 721Q157 721 144 735T130 771Q130 792 144 806T179 821Q199 821 212 807T226 771ZM530 674L309 287V0H222V286L13 674H111L203 489Q245 405 269 349H271Q293 403 338 490L432 674H530Z"/>
<glyph unicode="Ž" glyph-name="Zcaron" horiz-adv-x="540" d="M414 827L314 710H250L148 827H219L282 754H284L345 827H414ZM509 0H29V51L394 602H60V674H505V621L143 72H509V0Z"/>
<glyph unicode="ž" glyph-name="zcaron" horiz-adv-x="420" d="M347 686L253 543H193L98 686H164L222 591H224L283 686H347ZM403 0H18V51L232 336Q250 359 294 412V414H37V484H399V429L187 147Q158 108 126 72V70H403V0Z"/>
<glyph unicode="ƒ" glyph-name="florin" horiz-adv-x="505" d="M469 646L453 583Q426 593 401 593Q313 593 297 454L291 402H409V338H283L258 132Q245 27 210 -23Q168 -83 86 -83Q38 -83 10 -66L25 -4Q50 -15 80 -15Q124 -15 147 24Q168 60 177 141L199 338H109V402H207L213 448Q239 662 401 661Q442 661 469 646Z"/>
</font>
</defs>
</svg>
