<?xml version="1.0" encoding="utf-8"?>
<svg xmlns="http://www.w3.org/2000/svg" width="100%" height="100%">
<defs>
<font id="MyriadApple-MediumItalic" horiz-adv-x="393"><font-face font-family="MyriadApple-MediumItalic" units-per-em="1000" panose-1="2 0 5 0 0 0 0 0 0 0" ascent="831" descent="-250" alphabetic="0"/>
<missing-glyph horiz-adv-x="500" d="M63 0V750H438V0H63ZM125 63H375V688H125V63Z"/>
<glyph unicode=" " glyph-name="space" horiz-adv-x="206"/>
<glyph unicode="!" glyph-name="exclam" horiz-adv-x="233" d="M247 674L141 193H75L154 674H247ZM139 54Q139 27 121 8T76 -11Q52 -11 37 6T22 47Q22 74 39 93T84 113Q109 113 124 97T139 54Z"/>
<glyph unicode="&quot;" glyph-name="quotedbl" horiz-adv-x="301" d="M355 691L293 450H239L269 691H355ZM206 691L145 450H91L121 691H206Z"/>
<glyph unicode="#" glyph-name="numbersign" horiz-adv-x="485" d="M481 458L471 401H383L337 253H423L413 197H319L259 0H200L261 197H172L111 0H53L114 196H33L43 253H132L178 401H92L102 458H195L256 650H312L253 458H343L403 650H460L400 458H481ZM325 401H235L190 253H280L325 401Z"/>
<glyph unicode="$" glyph-name="dollar" horiz-adv-x="485" d="M456 604L428 542Q373 574 316 574Q264 574 233 546T201 475Q201 442 222 419T297 366Q411 303 411 207Q411 127 357 75Q307 25 226 15L206 -85H147L166 15Q89 18 36 58L63 123Q124 80 194 80Q250 80 287 111T324 191Q324 259 241 304Q114 372 114 464Q114 531 163 580T289 637L308 734H368L349 637Q416 634 456 604Z"/>
<glyph unicode="%" glyph-name="percent" horiz-adv-x="765" d="M729 257Q729 162 687 85Q635 -7 547 -7Q488 -7 455 37Q426 76 426 137Q426 229 472 304Q526 392 612 392Q669 392 700 351Q729 314 729 257ZM671 662L182 -12H123L612 662H671ZM371 526Q371 431 329 354Q277 262 189 262Q130 262 97 306Q68 345 68 406Q68 498 114 573Q168 661 254 661Q311 661 342 620Q371 583 371 526ZM663 252Q663 340 602 340Q551 340 519 260Q494 197 494 135Q494 46 556 46Q608 46 639 127Q663 191 663 252ZM305 521Q305 609 244 609Q193 609 161 528Q136 466 136 404Q136 314 198 314Q250 314 281 396Q305 460 305 521Z"/>
<glyph unicode="&amp;" glyph-name="ampersand" horiz-adv-x="582" d="M583 368Q525 199 442 111Q489 45 526 0H429Q411 22 384 62Q304 -11 197 -11Q113 -11 63 38Q16 84 16 157Q16 293 183 375V378Q146 444 146 500Q146 577 196 631T323 685Q387 685 424 645Q458 609 458 553Q458 437 286 356V353Q343 255 405 166Q463 239 505 368H583ZM383 550Q383 626 316 626Q273 626 247 588Q223 554 223 510Q223 456 255 403Q383 465 383 550ZM350 113Q302 184 212 327Q100 259 100 170Q100 116 132 85T219 54Q293 54 350 113Z"/>
<glyph unicode="'" glyph-name="quotesingle" horiz-adv-x="164" d="M211 691L150 450H96L126 691H211Z"/>
<glyph unicode="(" glyph-name="parenleft" horiz-adv-x="282" d="M348 691Q138 454 138 158Q138 11 193 -119H130Q67 8 67 159Q67 322 135 473Q190 595 278 691H348Z"/>
<glyph unicode=")" glyph-name="parenright" horiz-adv-x="282" d="M234 415Q234 252 166 100Q112 -21 24 -119H-46Q163 122 163 416Q163 564 108 691H172Q234 567 234 415Z"/>
<glyph unicode="*" glyph-name="asterisk" horiz-adv-x="411" d="M435 544L422 477L279 495V492L361 372L297 337L249 476H246L168 336L115 372L223 493V496L74 477L87 544L226 525L227 528L147 650L212 684L259 546H261L336 685L392 651L284 527V525L435 544Z"/>
<glyph unicode="+" glyph-name="plus" horiz-adv-x="596" d="M555 238H335V0H274V238H54V296H274V532H335V296H555V238Z"/>
<glyph unicode="," glyph-name="comma" horiz-adv-x="210" d="M152 125Q89 -24 20 -117L-43 -124Q19 -3 54 115L152 125Z"/>
<glyph unicode="-" glyph-name="hyphen" horiz-adv-x="305" d="M285 302L273 238H35L47 302H285Z"/>
<glyph unicode="." glyph-name="period" horiz-adv-x="210" d="M138 55Q138 27 120 9T74 -10Q50 -10 35 7T20 48Q20 76 38 95T83 115Q108 115 123 98T138 55Z"/>
<glyph unicode="/" glyph-name="slash" horiz-adv-x="323" d="M413 685L13 -40H-54L345 685H413Z"/>
<glyph unicode="0" glyph-name="zero" horiz-adv-x="485" d="M481 458Q481 367 458 274Q429 161 373 86Q301 -11 202 -11Q42 -11 42 210Q42 302 68 393Q98 499 156 571Q229 661 323 661Q406 661 447 598Q481 546 481 458ZM398 454Q398 594 314 594Q248 594 196 498Q159 431 140 344Q123 271 123 206Q123 56 212 56Q299 56 354 219Q398 345 398 454Z"/>
<glyph unicode="1" glyph-name="one" horiz-adv-x="485" d="M382 650L258 0H178L286 566H284L173 510L164 575L312 650H382Z"/>
<glyph unicode="2" glyph-name="two" horiz-adv-x="485" d="M463 503Q463 407 381 303Q317 221 184 115L131 73V71H399L386 0H-1L10 55L104 135Q245 254 304 327Q377 416 377 492Q377 533 355 559Q329 590 278 590Q211 590 147 544L126 604Q202 661 295 661Q379 661 424 611Q463 568 463 503Z"/>
<glyph unicode="3" glyph-name="three" horiz-adv-x="485" d="M447 522Q447 461 404 413Q364 370 305 353L304 351Q355 339 383 299T412 205Q412 112 340 51T161 -11Q60 -11 15 29L43 94Q102 60 165 60Q241 60 286 106Q325 147 325 203Q325 261 285 291Q249 318 188 318H156L169 383H200Q255 383 303 414Q360 450 360 509Q360 590 269 590Q200 590 150 555L132 618Q202 661 284 661Q361 661 406 619Q447 581 447 522Z"/>
<glyph unicode="4" glyph-name="four" horiz-adv-x="485" d="M464 245L451 179H364L330 0H253L287 179H11L22 235L364 650H454L377 245H464ZM366 565H362Q340 528 289 456L112 245H299L341 459Q343 468 366 565Z"/>
<glyph unicode="5" glyph-name="five" horiz-adv-x="485" d="M481 650L466 578H248L197 413Q211 415 228 415Q287 415 340 383Q415 337 415 241Q415 128 338 59T151 -11Q60 -11 15 24L40 89Q88 60 158 60Q228 60 279 108T330 224Q330 349 175 349Q152 349 105 345L195 650H481Z"/>
<glyph unicode="6" glyph-name="six" horiz-adv-x="485" d="M464 660L455 589Q427 590 397 584Q310 569 242 506T141 348H143Q206 427 299 427Q372 427 414 377Q453 329 453 253Q453 152 387 73Q317 -11 218 -11Q129 -11 81 50Q36 106 36 201Q36 307 86 410Q131 503 198 560Q293 641 412 656Q447 660 464 660ZM369 247Q369 362 268 362Q188 362 134 274Q125 260 123 244Q118 212 118 190Q118 130 143 94Q171 55 223 55Q286 55 329 118Q369 176 369 247Z"/>
<glyph unicode="7" glyph-name="seven" horiz-adv-x="485" d="M516 650L505 594Q288 245 132 1H42Q194 234 412 577L411 579H119L132 650H516Z"/>
<glyph unicode="8" glyph-name="eight" horiz-adv-x="485" d="M472 515Q472 405 346 345L345 342Q440 289 440 188Q440 99 371 42Q306 -11 215 -11Q135 -11 82 29Q24 73 24 150Q24 218 68 271Q107 319 175 347V350Q105 401 105 477Q105 558 169 611Q229 661 311 661Q380 661 426 622T472 515ZM394 505Q394 598 300 598Q253 598 220 564T186 483Q186 407 279 373Q327 390 358 422Q394 459 394 505ZM356 181Q356 273 244 313Q187 297 150 259Q110 216 110 159Q110 110 141 81T223 52Q279 52 317 88T356 181Z"/>
<glyph unicode="9" glyph-name="nine" horiz-adv-x="485" d="M485 458Q485 347 431 235Q384 138 319 83Q235 11 126 -5Q86 -11 55 -10L65 61Q92 60 125 65Q212 79 283 148Q346 211 379 301H376Q316 232 230 232Q156 232 114 284Q76 330 76 400Q76 501 144 579Q216 661 313 661Q399 661 445 601Q485 547 485 458ZM402 468Q402 595 304 595Q244 595 200 534Q160 478 160 409Q160 358 184 328T255 297Q333 297 382 371Q392 386 395 400Q402 429 402 468Z"/>
<glyph unicode=":" glyph-name="colon" horiz-adv-x="210" d="M205 409Q205 381 188 362T142 343Q118 343 103 360T88 401Q88 429 105 448T150 468Q175 468 190 451T205 409ZM137 55Q137 27 119 8T73 -11Q49 -11 35 6T20 47Q20 74 37 94T82 114Q107 114 122 97T137 55Z"/>
<glyph unicode=";" glyph-name="semicolon" horiz-adv-x="210" d="M210 409Q210 381 192 362T146 343Q123 343 108 360T93 401Q93 429 110 448T155 468Q180 468 195 451T210 409ZM152 125Q89 -24 20 -117L-43 -124Q19 -3 54 115L152 125Z"/>
<glyph unicode="&lt;" glyph-name="less" horiz-adv-x="596" d="M527 0L78 240V292L527 532V464L151 267V265L527 68V0Z"/>
<glyph unicode="=" glyph-name="equal" horiz-adv-x="596" d="M557 338H56V397H557V338ZM557 141H56V200H557V141Z"/>
<glyph unicode="&gt;" glyph-name="greater" horiz-adv-x="596" d="M541 238L92 0V68L472 265V267L92 464V532L541 294V238Z"/>
<glyph unicode="?" glyph-name="question" horiz-adv-x="379" d="M396 562Q396 508 363 456Q341 420 287 364Q217 292 208 219Q207 210 204 192H124Q130 257 152 303T223 400Q268 448 283 470Q310 510 310 547Q310 616 234 617Q181 617 137 590L122 650Q183 686 256 686Q324 686 362 647Q396 612 396 562ZM196 55Q196 27 178 9T132 -10Q108 -10 93 7T78 48Q78 75 96 94T140 114Q166 114 181 98T196 55Z"/>
<glyph unicode="@" glyph-name="at" horiz-adv-x="710" d="M698 400Q698 289 647 224T523 158Q490 158 470 179Q447 202 449 245H446Q394 158 307 158Q262 158 232 192T201 283Q201 378 266 448Q335 521 436 521Q497 521 541 501L506 318Q500 285 500 262Q500 207 536 206Q577 205 609 255Q644 309 644 392Q644 503 581 571T405 640Q280 640 196 549Q108 454 108 305Q108 181 178 108T365 35Q448 35 510 71L526 28Q454 -12 353 -12Q223 -12 139 71Q52 158 52 300Q52 460 151 570Q253 685 413 685Q541 685 619 605T698 400ZM473 461Q451 469 424 469Q359 469 312 415T265 286Q265 211 330 211Q371 211 407 256Q441 297 451 346L473 461Z"/>
<glyph unicode="A" glyph-name="A" horiz-adv-x="558" d="M502 0H418L393 212H166L60 0H-26L317 674H414L502 0ZM387 278L362 471Q358 501 351 598H349Q331 555 294 472L195 278H387Z"/>
<glyph unicode="B" glyph-name="B" horiz-adv-x="511" d="M498 528Q498 467 455 419Q415 375 354 359V356Q403 342 432 305Q463 264 463 207Q463 111 383 51Q310 -4 168 -4Q80 -4 31 5L156 665Q223 678 297 678Q398 678 451 633Q498 591 498 528ZM414 521Q414 613 293 613Q246 613 226 607L185 388H244Q318 388 366 424T414 521ZM377 211Q377 267 335 298Q297 325 237 325H172L123 67Q149 62 189 62Q270 62 320 97Q377 136 377 211Z"/>
<glyph unicode="C" glyph-name="C" horiz-adv-x="542" d="M581 653L554 586Q510 613 427 613Q317 613 238 538Q135 441 135 279Q135 181 180 125Q231 61 334 61Q417 61 473 88L484 21Q415 -10 315 -10Q190 -10 119 65T48 267Q48 363 85 449T191 594Q296 684 440 684Q541 684 581 653Z"/>
<glyph unicode="D" glyph-name="D" horiz-adv-x="633" d="M623 412Q623 318 587 230T488 88Q379 -4 190 -4Q98 -4 31 5L156 665Q232 678 318 678Q483 678 561 592Q623 523 623 412ZM535 410Q535 611 317 611Q259 611 227 604L125 69Q160 64 209 64Q358 64 444 153Q535 248 535 410Z"/>
<glyph unicode="E" glyph-name="E" horiz-adv-x="462" d="M495 674L481 604H227L186 387H426L412 317H172L126 71H396L382 0H30L158 674H495Z"/>
<glyph unicode="F" glyph-name="F" horiz-adv-x="457" d="M494 674L480 604H227L183 375H417L403 305H170L112 0H30L158 674H494Z"/>
<glyph unicode="G" glyph-name="G" horiz-adv-x="610" d="M606 651L578 581Q524 609 442 609Q324 609 238 529Q191 485 164 417T136 278Q136 64 345 64Q403 64 444 82L482 285H349L362 352H576L515 28Q427 -7 330 -7Q189 -7 114 76Q48 151 48 271Q48 358 81 439Q116 525 180 582Q290 681 451 681Q554 681 606 651Z"/>
<glyph unicode="H" glyph-name="H" horiz-adv-x="616" d="M625 674L496 0H414L474 317H172L112 0H30L158 674H240L186 389H488L542 674H625Z"/>
<glyph unicode="I" glyph-name="I" horiz-adv-x="231" d="M239 674L111 0H29L157 674H239Z"/>
<glyph unicode="J" glyph-name="J" horiz-adv-x="356" d="M372 674L284 207Q262 91 211 40T66 -11Q2 -11 -31 6L-14 77Q20 62 68 62Q123 62 154 95Q188 132 204 216L290 674H372Z"/>
<glyph unicode="K" glyph-name="K" horiz-adv-x="507" d="M582 674L303 384L471 0H382L239 331L160 257L111 0H30L158 674H239L177 346L181 347Q211 385 247 423L480 674H582Z"/>
<glyph unicode="L" glyph-name="L" horiz-adv-x="434" d="M391 72L378 0H30L158 674H240L125 72H391Z"/>
<glyph unicode="M" glyph-name="M" horiz-adv-x="767" d="M750 674L664 0H585L633 365Q650 492 669 590H666Q604 452 563 375L365 4H302L254 368Q241 467 234 590H231Q214 510 181 365L89 0H12L186 674H290L342 287Q355 187 357 119H360Q394 203 437 285L643 674H750Z"/>
<glyph unicode="N" glyph-name="N" horiz-adv-x="620" d="M629 674L501 0H420L272 379Q232 482 212 574L209 573Q198 480 173 351L107 0H30L158 674H247L396 294Q429 210 454 105L456 106Q462 201 484 319L552 674H629Z"/>
<glyph unicode="O" glyph-name="O" horiz-adv-x="653" d="M643 412Q643 324 613 238Q581 147 526 89Q433 -11 296 -11Q181 -11 114 63T47 259Q47 349 79 438T169 588Q261 685 396 685Q521 685 586 601Q643 528 643 412ZM555 409Q555 615 384 615Q278 615 202 498Q133 390 133 266Q133 172 175 118Q221 59 306 59Q412 59 488 180Q555 289 555 409Z"/>
<glyph unicode="P" glyph-name="P" horiz-adv-x="499" d="M511 506Q511 398 431 330Q355 265 229 265Q193 265 162 271L111 0H30L156 664Q218 678 300 678Q409 678 462 627Q511 581 511 506ZM428 500Q428 611 296 611Q250 611 226 604L175 340Q205 334 240 334Q324 334 376 381T428 500Z"/>
<glyph unicode="Q" glyph-name="Q" horiz-adv-x="653" d="M643 413Q643 327 613 241T534 99Q476 35 400 13V10Q511 -15 574 -25L542 -94Q404 -60 314 -23Q284 -11 270 -10Q173 -4 110 68T47 260Q47 349 79 436Q112 527 169 587Q261 685 396 685Q521 685 587 599Q643 527 643 413ZM556 411Q556 503 518 555Q474 615 385 615Q275 615 199 490Q134 382 134 264Q134 174 173 120Q217 58 304 58Q417 58 492 183Q556 290 556 411Z"/>
<glyph unicode="R" glyph-name="R" horiz-adv-x="514" d="M508 519Q508 449 462 396T349 323V321Q414 299 423 184Q434 28 443 0H358Q351 27 343 163Q336 294 238 294H167L112 0H30L156 664Q219 678 301 678Q405 678 459 630Q508 586 508 519ZM422 509Q422 612 295 612Q251 612 227 605L180 358H252Q327 358 376 403Q422 446 422 509Z"/>
<glyph unicode="S" glyph-name="S" horiz-adv-x="457" d="M456 650L427 583Q376 614 313 613Q255 613 218 580T181 503Q181 464 207 435Q229 408 284 378Q409 307 409 198Q409 108 344 49T169 -10Q121 -10 77 3T10 35L40 103Q102 61 180 61Q240 61 280 94Q324 130 324 188Q324 260 227 315Q97 388 97 487Q97 575 162 629T322 684Q407 684 456 650Z"/>
<glyph unicode="T" glyph-name="T" horiz-adv-x="465" d="M547 674L533 602H340L226 0H144L258 602H66L80 674H547Z"/>
<glyph unicode="U" glyph-name="U" horiz-adv-x="609" d="M619 674L541 268Q488 -11 265 -11Q178 -11 127 36Q72 87 72 184Q72 229 81 277L157 674H239L163 271Q154 227 154 187Q154 125 187 93T276 60Q419 60 460 270L537 674H619Z"/>
<glyph unicode="V" glyph-name="V" horiz-adv-x="531" d="M603 674L254 0H163L84 674H168L214 244Q226 139 226 90H229Q264 177 302 253L513 674H603Z"/>
<glyph unicode="W" glyph-name="W" horiz-adv-x="816" d="M881 674L572 0H485L469 383Q465 473 471 576H469Q449 517 401 398L216 0H128L97 674H180L193 270Q195 206 192 95H195Q224 180 263 266L447 674H535L548 285Q551 174 549 96H551Q570 153 616 269L795 674H881Z"/>
<glyph unicode="X" glyph-name="X" horiz-adv-x="512" d="M581 674L325 344L456 0H369L307 167Q292 208 266 285H263Q241 250 186 169L67 0H-31L228 343L106 674H192L254 503Q273 449 287 399H289Q311 434 357 503L483 674H581Z"/>
<glyph unicode="Y" glyph-name="Y" horiz-adv-x="508" d="M575 674L292 281L239 0H157L210 280L84 674H172L235 457Q254 393 263 344H265Q284 377 336 460L479 674H575Z"/>
<glyph unicode="Z" glyph-name="Z" horiz-adv-x="511" d="M561 674L551 620L105 74L106 71H451L438 0H-20L-11 51L438 600V603H125L139 674H561Z"/>
<glyph unicode="[" glyph-name="bracketleft" horiz-adv-x="282" d="M343 686L333 632H227L95 -58H201L191 -112H18L170 686H343Z"/>
<glyph unicode="\" glyph-name="backslash" horiz-adv-x="326" d="M307 -40H242L60 685H124L307 -40Z"/>
<glyph unicode="]" glyph-name="bracketright" horiz-adv-x="282" d="M283 686L131 -112H-42L-32 -58H74L206 632H99L110 686H283Z"/>
<glyph unicode="^" glyph-name="asciicircum" horiz-adv-x="596" d="M535 189H467L303 577H301L137 189H70L272 650H332L535 189Z"/>
<glyph unicode="_" glyph-name="underscore" horiz-adv-x="500" d="M451 -75L441 -125H-59L-49 -75H451Z"/>
<glyph unicode="`" glyph-name="grave" horiz-adv-x="379" d="M301 543H243L143 686H235L301 543Z"/>
<glyph unicode="a" glyph-name="a" horiz-adv-x="513" d="M488 476L439 223Q415 97 419 0H342Q342 34 353 123H351Q280 -11 167 -11Q105 -11 68 33T31 147Q31 282 118 384Q212 494 361 494Q431 494 488 476ZM396 422Q375 429 340 429Q249 429 183 347T116 163Q116 57 196 57Q249 57 299 119T368 274L396 422Z"/>
<glyph unicode="b" glyph-name="b" horiz-adv-x="516" d="M487 324Q487 200 411 101Q324 -11 190 -11Q44 -11 44 112Q44 144 53 185L157 709H239L176 398L178 397Q242 494 344 494Q417 494 455 440Q487 394 487 324ZM402 312Q402 361 381 391Q357 426 312 426Q259 426 212 375T146 242L134 184Q128 155 128 124Q129 54 204 54Q290 54 349 143Q402 223 402 312Z"/>
<glyph unicode="c" glyph-name="c" horiz-adv-x="414" d="M423 473L400 408Q363 425 321 425Q232 425 173 348Q119 277 119 186Q119 126 149 92T236 58Q289 58 344 84L352 18Q294 -10 215 -10Q127 -10 78 45Q33 95 33 176Q33 303 115 396Q200 494 326 494Q388 494 423 473Z"/>
<glyph unicode="d" glyph-name="d" horiz-adv-x="515" d="M534 709L428 154Q412 68 408 0H333L345 94H343Q276 -11 173 -11Q106 -11 69 38T31 163Q31 295 116 394T326 494Q375 494 409 478L452 709H534ZM396 408Q366 429 319 429Q235 429 175 349Q116 273 116 175Q116 57 205 57Q254 57 299 106Q348 158 363 236L396 408Z"/>
<glyph unicode="e" glyph-name="e" horiz-adv-x="445" d="M432 371Q432 208 116 214Q107 165 125 121Q153 56 231 56Q298 56 358 89L370 27Q303 -10 213 -10Q123 -10 75 47Q33 98 33 183Q33 298 105 393Q182 494 293 494Q358 494 395 460T432 371ZM353 369Q353 430 281 430Q225 430 180 380Q141 337 125 277H139Q353 276 353 369Z"/>
<glyph unicode="f" glyph-name="f" horiz-adv-x="279" d="M393 707L375 641Q356 650 327 650Q242 650 216 507L212 484H319L306 419H200L120 0H38L118 419H54L66 484H130L135 510Q156 625 213 677Q261 720 328 720Q371 720 393 707Z"/>
<glyph unicode="g" glyph-name="g" horiz-adv-x="514" d="M487 461L412 60Q383 -97 316 -155Q255 -208 150 -208Q58 -208 8 -175L31 -110Q80 -141 156 -141Q289 -141 327 29L343 101H340Q278 0 176 0Q108 0 68 51Q32 97 32 166Q32 295 113 391Q201 494 335 494Q417 494 487 461ZM397 412Q365 428 319 428Q233 428 174 349Q118 275 118 181Q117 66 207 66Q259 66 305 121T365 248L397 412Z"/>
<glyph unicode="h" glyph-name="h" horiz-adv-x="524" d="M473 367Q473 328 465 285L411 0H329L382 282Q389 316 389 348Q389 426 316 426Q266 426 219 375Q169 322 154 245L109 0H27L161 709H244L184 400L186 399Q253 494 355 494Q403 494 435 466Q473 432 473 367Z"/>
<glyph unicode="i" glyph-name="i" horiz-adv-x="225" d="M241 631Q241 606 224 590T181 573Q133 573 133 627Q133 651 149 668T190 685Q241 685 241 631ZM201 484L109 0H27L119 484H201Z"/>
<glyph unicode="j" glyph-name="j" horiz-adv-x="224" d="M241 631Q241 606 224 590T182 573Q134 573 134 627Q134 651 150 668T190 685Q241 685 241 631ZM206 484L114 2Q92 -118 53 -161Q12 -208 -57 -208Q-91 -208 -111 -202L-101 -138Q-87 -141 -64 -141Q5 -141 29 -16L124 484H206Z"/>
<glyph unicode="k" glyph-name="k" horiz-adv-x="448" d="M474 484L266 284L407 0H317L203 238L143 184L108 0H27L162 709H243L159 265H161Q184 292 205 314L373 484H474Z"/>
<glyph unicode="l" glyph-name="l" horiz-adv-x="225" d="M244 709L109 0H27L162 709H244Z"/>
<glyph unicode="m" glyph-name="m" horiz-adv-x="794" d="M743 370Q743 330 735 287L681 0H600L653 281Q660 318 660 345Q660 426 589 426Q543 426 500 378Q454 327 440 249L393 0H313L368 285Q374 320 374 345Q374 426 304 426Q259 426 213 374Q166 319 152 245L107 0H27L91 341Q104 410 113 484H186L173 394H176Q243 494 343 494Q395 494 423 465T454 388Q519 494 628 494Q675 495 707 465Q743 431 743 370Z"/>
<glyph unicode="n" glyph-name="n" horiz-adv-x="525" d="M473 363Q473 330 465 284L411 0H329L382 282Q389 317 389 344Q389 426 315 426Q267 426 220 376Q168 321 153 237L109 0H27L91 341Q104 409 114 484H188L176 390H178Q245 494 354 494Q403 494 435 465Q473 430 473 363Z"/>
<glyph unicode="o" glyph-name="o" horiz-adv-x="512" d="M482 296Q482 178 410 87Q333 -11 218 -11Q133 -11 82 46Q34 100 34 185Q34 305 105 396Q182 494 298 494Q384 494 433 439T482 296ZM397 297Q397 352 371 388Q341 429 288 429Q211 429 161 344Q117 272 117 189Q117 133 144 96Q174 54 228 54Q302 54 353 142Q397 217 397 297Z"/>
<glyph unicode="p" glyph-name="p" horiz-adv-x="517" d="M487 322Q487 192 407 92Q325 -11 208 -11Q144 -11 107 10H104L65 -198H-16L80 312Q94 386 108 485H183L169 393H171Q240 494 342 494Q414 494 453 441Q487 394 487 322ZM401 316Q401 360 382 390Q358 426 312 426Q260 426 213 372Q161 313 144 219L119 80Q152 54 208 54Q286 54 345 139Q401 220 401 316Z"/>
<glyph unicode="q" glyph-name="q" horiz-adv-x="515" d="M487 463L362 -198H280L338 88H336Q307 41 263 15T172 -11Q104 -11 66 40Q31 88 31 163Q31 291 113 389Q202 494 335 494Q418 494 487 463ZM396 412Q368 428 319 428Q237 428 177 352T116 173Q116 119 138 88T198 57Q254 57 302 112T364 242L396 412Z"/>
<glyph unicode="r" glyph-name="r" horiz-adv-x="314" d="M342 493L326 411Q317 413 304 413Q252 413 209 357T149 216L109 0H27L86 312Q97 371 110 484H183Q179 450 169 380H172Q228 494 319 494Q332 494 342 493Z"/>
<glyph unicode="s" glyph-name="s" horiz-adv-x="367" d="M345 471L322 409Q285 430 240 430Q203 430 179 410T154 357Q154 314 219 276Q308 225 308 149Q308 75 256 32T125 -10Q49 -10 7 22L31 83Q80 54 133 54Q173 54 198 77T224 133Q224 185 158 222Q72 271 72 345Q72 409 121 451T246 494Q310 494 345 471Z"/>
<glyph unicode="t" glyph-name="t" horiz-adv-x="308" d="M331 484L318 419H204L159 182Q150 132 150 106Q150 59 195 59Q219 59 233 63L229 -2Q207 -10 166 -10Q115 -10 89 18Q66 42 66 83Q66 118 76 172L124 419H55L68 484H136L153 573L239 599L217 484H331Z"/>
<glyph unicode="u" glyph-name="u" horiz-adv-x="517" d="M492 484L427 142Q414 71 406 0H331L344 90H342Q273 -11 174 -11Q49 -11 49 127Q49 159 58 208L111 484H193L141 212Q133 168 133 140Q133 59 208 59Q255 59 301 108T363 234L410 484H492Z"/>
<glyph unicode="v" glyph-name="v" horiz-adv-x="447" d="M478 484L212 0H131L52 484H135L175 208Q187 121 189 90H192Q203 119 243 202L388 484H478Z"/>
<glyph unicode="w" glyph-name="w" horiz-adv-x="697" d="M725 484L488 0H412L381 263Q374 325 375 391H373Q356 349 317 265L180 0H104L61 484H142L158 212Q162 145 160 82H162Q185 145 215 203L357 484H428L457 208Q465 131 464 82H467Q479 121 512 205L641 484H725Z"/>
<glyph unicode="x" glyph-name="x" horiz-adv-x="433" d="M465 484L264 247L376 0H286L239 109Q219 156 205 195H203Q189 172 153 121L57 0H-38L171 249L62 484H151L197 378Q208 350 228 300H231Q246 322 283 374L371 484H465Z"/>
<glyph unicode="y" glyph-name="y" horiz-adv-x="434" d="M462 484L282 114Q197 -60 116 -140Q49 -206 -20 -221L-41 -151Q10 -132 46 -104Q103 -60 139 7Q144 17 141 29L48 484H133L179 223Q187 178 200 96H202Q226 156 253 215L375 484H462Z"/>
<glyph unicode="z" glyph-name="z" horiz-adv-x="407" d="M429 484L419 429L189 170Q142 117 92 70V67H354L341 0H-22L-14 51L219 313Q255 354 317 413L318 416H75L88 484H429Z"/>
<glyph unicode="{" glyph-name="braceleft" horiz-adv-x="282" d="M332 686L321 632H303Q232 632 215 546Q209 521 207 474Q205 423 201 398Q186 307 111 288V286Q164 272 164 215Q164 177 139 105T113 4Q113 -58 172 -58H190L180 -112H162Q45 -112 45 -10Q45 29 72 102T99 209Q99 263 33 263L42 313Q119 313 133 387Q139 415 142 471T150 555Q175 686 308 686H332Z"/>
<glyph unicode="|" glyph-name="bar" horiz-adv-x="214" d="M156 -250H94V750H156V-250Z"/>
<glyph unicode="}" glyph-name="braceright" horiz-adv-x="282" d="M262 311L253 261Q176 261 161 187Q156 159 153 103T144 19Q120 -112 -13 -112H-37L-26 -58H-8Q63 -58 80 28Q85 53 88 100Q90 151 94 176Q109 267 184 286V288Q131 303 131 359Q131 394 156 467T182 570Q182 632 123 632H105L115 686H133Q249 686 249 584Q249 543 223 471T196 365Q196 311 262 311Z"/>
<glyph unicode="~" glyph-name="asciitilde" horiz-adv-x="596" d="M550 356Q554 280 519 242Q489 209 436 209Q382 209 296 254Q219 294 180 294Q125 294 124 213H64Q62 283 97 322Q129 359 182 359Q233 359 315 317T437 275Q490 275 491 356H550Z"/>
<glyph unicode=" " glyph-name="nbspace" horiz-adv-x="179"/>
<glyph unicode="¡" glyph-name="exclamdown" horiz-adv-x="233" d="M212 431Q212 404 195 385T150 365Q125 365 110 381T95 423Q95 451 113 470T159 489Q183 489 197 472T212 431ZM160 283L81 -194H-12L93 283H160Z"/>
<glyph unicode="¢" glyph-name="cent" horiz-adv-x="485" d="M471 550L443 487Q404 509 349 509Q279 509 224 442T168 281Q168 224 199 188T289 152Q338 152 389 175L397 112Q353 88 286 87L267 -14H208L227 88Q154 100 115 154Q81 202 81 274Q81 387 151 472T323 572L341 672H401L382 574Q438 573 471 550Z"/>
<glyph unicode="£" glyph-name="sterling" horiz-adv-x="485" d="M480 638L455 574Q423 592 381 592Q281 592 260 471Q252 423 252 358H397L385 296H249Q246 254 238 217Q217 128 146 73L145 70H432L420 0H23L32 51Q79 73 114 117T163 214Q170 244 171 296H82L93 358H173Q174 433 184 482Q201 566 254 613T390 661Q445 661 480 638Z"/>
<glyph unicode="¤" glyph-name="currency" horiz-adv-x="485" d="M487 521L410 451Q444 404 444 333Q444 260 410 212L485 140L441 94L373 170Q329 128 259 128Q188 128 147 168L81 94L37 140L109 209Q73 259 73 329Q73 401 111 451L35 521L80 568L148 493Q191 534 260 534Q331 534 373 493L443 568L487 521ZM378 332Q378 390 348 430Q315 474 259 474Q204 474 171 429Q141 388 141 331Q141 274 171 233Q204 188 260 188Q318 188 350 232Q378 272 378 332Z"/>
<glyph unicode="¥" glyph-name="yen" horiz-adv-x="485" d="M547 650L322 347H442L432 299H287L273 225H419L409 177H264L230 0H153L186 177H42L51 225H195L209 299H65L74 347H196L95 650H179L236 445Q249 399 259 353H262Q293 411 319 447L458 650H547Z"/>
<glyph unicode="¦" glyph-name="brokenbar" horiz-adv-x="214" d="M156 325H94V675H156V325ZM156 -175H94V175H156V-175Z"/>
<glyph unicode="§" glyph-name="section" horiz-adv-x="495" d="M469 650L444 596Q396 626 333 626Q289 626 259 604T228 545Q228 515 253 494Q272 478 326 453Q451 397 451 312Q451 227 362 169Q385 141 385 99Q385 22 325 -22Q271 -60 191 -60Q98 -60 44 -20L70 36Q130 -3 194 -3Q244 -3 276 21T308 86Q308 140 211 186Q76 249 76 328Q76 413 175 469Q152 498 152 533Q152 601 210 643Q264 684 342 684Q421 684 469 650ZM378 294Q378 349 304 387Q271 403 212 437Q149 404 149 350Q149 295 230 256Q296 224 322 204Q378 239 378 294Z"/>
<glyph unicode="¨" glyph-name="dieresis" horiz-adv-x="379" d="M399 612Q399 589 385 574T347 559Q327 559 314 573T301 607Q301 629 316 644T353 660Q373 660 386 646T399 612ZM219 612Q219 589 205 574T167 559Q147 559 134 573T121 607Q121 629 136 644T173 660Q193 660 206 646T219 612Z"/>
<glyph unicode="©" glyph-name="copyright" horiz-adv-x="675" d="M665 340Q665 212 579 121T366 30Q238 30 151 121T63 340Q63 468 151 558T367 648Q493 648 579 558T665 340ZM617 340Q617 450 547 527Q474 607 365 607Q256 607 183 526Q114 448 114 337Q114 227 186 149T366 71Q476 71 548 152Q617 229 617 340ZM505 185Q459 153 382 153Q297 153 248 204T199 334Q199 416 257 470Q312 520 390 520Q470 520 500 493L488 453Q449 477 390 477Q323 477 287 439T251 337Q251 276 288 236T391 196Q455 196 494 223L505 185Z"/>
<glyph unicode="ª" glyph-name="ordfeminine" horiz-adv-x="346" d="M365 574L329 367Q321 325 321 267H262Q262 297 266 330L265 329Q222 261 151 261Q109 261 84 292T59 375Q59 462 112 523Q172 591 269 591Q323 591 365 574ZM297 535Q279 541 253 541Q200 541 162 496T124 385Q123 313 178 313Q210 313 239 345T277 421L297 535Z"/>
<glyph unicode="«" glyph-name="guillemotleft" horiz-adv-x="405" d="M413 435L262 250L363 69H297L194 252L341 435H413ZM250 435L100 250L200 69H134L32 252L178 435H250Z"/>
<glyph unicode="¬" glyph-name="logicalnot" horiz-adv-x="596" d="M550 120H488V340H49V399H550V120Z"/>
<glyph unicode="­" glyph-name="minus" horiz-adv-x="596" d="M557 238H56V296H557V238Z"/>
<glyph unicode="®" glyph-name="registered" horiz-adv-x="508" d="M522 459Q522 365 459 299T302 233Q208 233 144 299T80 459Q80 552 144 617T303 683Q395 683 458 617T522 459ZM481 458Q481 536 431 591Q378 648 301 648Q225 648 174 592T122 458Q122 380 173 325Q226 267 303 267Q380 267 431 325Q481 380 481 458ZM400 328H358Q350 339 341 392Q333 435 287 435H260V328H220V578Q264 585 290 585Q343 585 369 565Q391 548 391 513Q391 467 343 453V451Q377 444 385 390Q391 344 400 328ZM349 509Q349 553 288 553Q272 553 260 551V466H288Q349 466 349 509Z"/>
<glyph unicode="¯" glyph-name="overscore" horiz-adv-x="379" d="M375 637L366 584H148L158 637H375Z"/>
<glyph unicode="°" glyph-name="degree" horiz-adv-x="315" d="M351 560Q351 505 312 465T219 425Q165 425 129 461T92 552Q92 607 131 646T225 686Q279 686 315 650T351 560ZM298 558Q298 593 278 616T223 639Q190 639 169 613T147 553Q147 520 168 496T221 472Q255 472 278 498Q298 524 298 558Z"/>
<glyph unicode="±" glyph-name="plusminus" horiz-adv-x="596" d="M557 318H337V117H275V318H55V377H275V571H337V377H557V318ZM557 0H55V59H557V0Z"/>
<glyph unicode="²" glyph-name="twosuperior" horiz-adv-x="333" d="M352 561Q352 507 301 451Q271 417 189 351L153 322V320H317L306 266H46L53 305L125 363Q206 428 236 462Q280 511 280 552Q280 606 220 606Q179 606 137 575L121 620Q176 661 240 661Q293 661 322 633T352 561Z"/>
<glyph unicode="³" glyph-name="threesuperior" horiz-adv-x="323" d="M341 575Q341 506 252 478V476Q283 468 303 444T322 387Q322 331 277 296T160 261Q90 261 52 289L74 337Q112 311 160 311Q202 311 227 333T252 387Q252 419 224 436Q200 452 162 452H142L151 497H170Q207 497 238 516T270 565Q270 610 214 610Q171 610 134 582L124 627Q169 661 233 661Q284 661 314 635Q341 611 341 575Z"/>
<glyph unicode="´" glyph-name="acute" horiz-adv-x="379" d="M396 686L264 543H201L299 686H396Z"/>
<glyph unicode="µ" glyph-name="mu" horiz-adv-x="512" d="M490 484L425 142Q411 71 405 0H331L341 86H339Q273 -10 188 -10Q123 -9 105 44H103L62 -198H-17L114 484H196L144 214Q136 173 136 145Q137 60 212 60Q258 60 301 104T356 209L408 484H490Z"/>
<glyph unicode="¶" glyph-name="paragraph" horiz-adv-x="488" d="M487 666L349 -51H290L418 617H346L218 -51H159L220 263Q155 267 114 319Q74 368 74 434Q74 540 155 607T379 674Q451 674 487 666Z"/>
<glyph unicode="·" glyph-name="middot" horiz-adv-x="210" d="M170 278Q170 250 153 231T106 212Q82 212 68 229T53 270Q53 298 70 317T115 337Q140 337 155 320T170 278Z"/>
<glyph unicode="¸" glyph-name="cedilla" horiz-adv-x="379" d="M199 -115Q199 -154 167 -177T90 -200Q48 -200 25 -183L43 -141Q66 -155 95 -155Q139 -155 139 -119Q139 -87 73 -80L131 3H184L144 -51Q199 -63 199 -115Z"/>
<glyph unicode="¹" glyph-name="onesuperior" horiz-adv-x="303" d="M280 656L206 266H138L201 595H199L127 562L121 612L221 656H280Z"/>
<glyph unicode="º" glyph-name="ordmasculine" horiz-adv-x="342" d="M363 457Q363 377 313 319T184 261Q127 261 90 298T53 393Q53 472 102 531T229 591Q290 591 326 555T363 457ZM297 460Q297 542 223 542Q175 542 145 489Q120 445 120 394Q120 358 138 334T192 310Q241 310 271 362Q297 407 297 460Z"/>
<glyph unicode="»" glyph-name="guillemotright" horiz-adv-x="405" d="M388 252L241 69H169L319 255L219 435H285L388 252ZM225 252L79 69H7L157 255L57 435H123L225 252Z"/>
<glyph unicode="¼" glyph-name="onequarter" horiz-adv-x="743" d="M694 152L685 103H628L608 0H543L563 103H373L381 142L610 395H683L637 152H694ZM640 661L156 -11H95L579 661H640ZM271 656L196 266H128L191 595H189L117 562L111 612L211 656H271ZM610 332H607Q593 312 564 275L454 153V152H572L594 269Q598 290 610 332Z"/>
<glyph unicode="½" glyph-name="onehalf" horiz-adv-x="743" d="M699 295Q699 242 648 185Q618 151 535 85L499 57V54H663L652 0H393L400 39L471 97Q553 163 583 197Q626 245 626 286Q626 340 567 340Q525 340 483 309L468 355Q523 395 588 395Q639 395 669 367T699 295ZM622 661L137 -11H77L562 661H622ZM266 656L192 266H124L186 595H185L112 562L106 612L206 656H266Z"/>
<glyph unicode="¾" glyph-name="threequarters" horiz-adv-x="743" d="M705 152L696 103H639L619 0H554L573 103H384L391 142L621 395H694L648 152H705ZM673 661L189 -11H128L612 661H673ZM330 575Q330 506 241 478V476Q272 468 291 444T311 387Q310 331 265 296T148 261Q78 261 41 289L63 337Q100 311 148 311Q191 311 216 333T241 387Q241 419 213 436Q189 452 150 452H131L140 497H159Q196 497 227 516T259 565Q259 610 203 610Q160 610 123 582L113 627Q158 661 222 661Q273 661 303 635Q330 611 330 575ZM620 332H618Q604 312 575 275L464 153L465 152H582L605 269Q609 290 620 332Z"/>
<glyph unicode="¿" glyph-name="questiondown" horiz-adv-x="379" d="M313 430Q313 403 295 384T250 364Q225 364 210 381T195 423Q195 451 213 469T259 488Q283 488 298 472T313 430ZM271 -173Q209 -208 139 -208Q69 -208 30 -167Q-3 -131 -3 -78Q-3 -23 34 31Q43 45 110 120Q158 174 173 218Q180 237 184 259L188 286H268Q262 221 239 176T168 79Q83 -11 83 -68Q83 -138 158 -138Q212 -139 256 -112L271 -173Z"/>
<glyph unicode="À" glyph-name="Agrave" horiz-adv-x="558" d="M394 711H328L217 827H318L394 711ZM502 0H418L393 212H166L60 0H-26L317 674H414L502 0ZM387 278L362 471Q358 501 351 598H349Q331 555 294 472L195 278H387Z"/>
<glyph unicode="Á" glyph-name="Aacute" horiz-adv-x="558" d="M526 827L389 710H317L419 827H526ZM502 0H418L393 212H166L60 0H-26L317 674H414L502 0ZM387 278L362 471Q358 501 351 598H349Q331 555 294 472L195 278H387Z"/>
<glyph unicode="Â" glyph-name="Acircumflex" horiz-adv-x="558" d="M492 710H426L377 784H375L305 710H233L351 827H412L492 710ZM502 0H418L393 212H166L60 0H-26L317 674H414L502 0ZM387 278L362 471Q358 501 351 598H349Q331 555 294 472L195 278H387Z"/>
<glyph unicode="Ã" glyph-name="Atilde" horiz-adv-x="558" d="M493 816Q488 722 422 722Q394 722 361 740T317 759Q294 758 288 716H242Q244 760 263 786T312 813Q341 813 373 793Q402 775 418 775Q442 775 448 816H493ZM502 0H418L393 212H166L60 0H-26L317 674H414L502 0ZM387 278L362 471Q358 501 351 598H349Q331 555 294 472L195 278H387Z"/>
<glyph unicode="Ä" glyph-name="Adieresis" horiz-adv-x="558" d="M511 773Q511 751 496 736T459 721Q440 721 427 735T414 768Q414 789 429 805T465 821Q485 821 498 807T511 773ZM330 773Q330 751 316 736T279 721Q259 721 246 735T233 768Q233 789 248 805T284 821Q304 821 317 807T330 773ZM502 0H418L393 212H166L60 0H-26L317 674H414L502 0ZM387 278L362 471Q358 501 351 598H349Q331 555 294 472L195 278H387Z"/>
<glyph unicode="Å" glyph-name="Aring" horiz-adv-x="560" d="M500 0H416L391 213H163L57 0H-29L309 663Q270 686 270 730Q270 772 300 801T379 831Q426 831 452 804Q476 781 476 743Q476 715 459 691T414 659L500 0ZM423 740Q423 795 376 795Q351 795 338 778T324 734Q324 713 337 698T371 682Q393 682 408 699T423 740ZM384 278L359 473Q356 492 348 599H345Q311 517 290 474L191 278H384Z"/>
<glyph unicode="Æ" glyph-name="AE" horiz-adv-x="757" d="M764 674L750 604H504L480 385H713L700 315H474L448 71H701L687 0H364L388 237H191L36 0H-51L389 674H764ZM428 612H424Q387 546 360 503L232 306H394L415 501Q419 539 428 612Z"/>
<glyph unicode="Ç" glyph-name="Ccedilla" horiz-adv-x="545" d="M581 653L554 586Q509 613 427 613Q319 613 238 538Q191 494 163 425T135 279Q135 181 180 125Q231 61 334 61Q417 61 473 90L484 22Q420 -7 337 -10L306 -50Q360 -63 360 -115Q360 -155 326 -178Q296 -200 253 -200Q210 -200 187 -182L205 -141Q228 -155 255 -155Q299 -155 299 -120Q299 -86 234 -80L286 -8Q172 0 110 74T48 267Q48 363 85 450T191 595Q297 684 440 684Q541 684 581 653Z"/>
<glyph unicode="È" glyph-name="Egrave" horiz-adv-x="462" d="M383 711H316L206 827H307L383 711ZM495 674L481 604H227L186 387H426L412 317H172L126 71H396L382 0H30L158 674H495Z"/>
<glyph unicode="É" glyph-name="Eacute" horiz-adv-x="462" d="M493 827L356 710H284L386 827H493ZM495 674L481 604H227L186 387H426L412 317H172L126 71H396L382 0H30L158 674H495Z"/>
<glyph unicode="Ê" glyph-name="Ecircumflex" horiz-adv-x="462" d="M461 710H395L346 784H344L274 710H202L319 827H381L461 710ZM495 674L481 604H227L186 387H426L412 317H172L126 71H396L382 0H30L158 674H495Z"/>
<glyph unicode="Ë" glyph-name="Edieresis" horiz-adv-x="462" d="M482 773Q482 751 467 736T430 721Q411 721 398 735T384 768Q384 789 399 805T435 821Q455 821 468 807T482 773ZM301 773Q301 751 286 736T249 721Q230 721 217 735T203 768Q203 789 218 805T255 821Q274 821 287 807T301 773ZM495 674L481 604H227L186 387H426L412 317H172L126 71H396L382 0H30L158 674H495Z"/>
<glyph unicode="Ì" glyph-name="Igrave" horiz-adv-x="231" d="M255 711H188L78 827H179L255 711ZM239 674L111 0H29L157 674H239Z"/>
<glyph unicode="Í" glyph-name="Iacute" horiz-adv-x="231" d="M359 827L222 710H150L252 827H359ZM239 674L111 0H29L157 674H239Z"/>
<glyph unicode="Î" glyph-name="Icircumflex" horiz-adv-x="231" d="M327 710H261L212 784H210L140 710H68L185 827H247L327 710ZM239 674L111 0H29L157 674H239Z"/>
<glyph unicode="Ï" glyph-name="Idieresis" horiz-adv-x="231" d="M351 773Q351 751 336 736T299 721Q280 721 267 735T254 768Q254 789 269 805T305 821Q324 821 337 807T351 773ZM170 773Q170 751 155 736T118 721Q99 721 86 735T73 768Q73 789 88 805T124 821Q144 821 157 807T170 773ZM239 674L111 0H29L157 674H239Z"/>
<glyph unicode="Ð" glyph-name="Eth" horiz-adv-x="640" d="M630 413Q630 319 593 231T491 89Q379 -3 197 -3Q105 -3 38 6L97 318H14L28 386H110L163 665Q244 678 330 678Q490 678 568 592Q630 523 630 413ZM542 410Q542 611 323 611Q268 611 235 606L193 386H355L341 318H179L132 70Q167 65 219 65Q359 65 447 154Q542 251 542 410Z"/>
<glyph unicode="Ñ" glyph-name="Ntilde" horiz-adv-x="620" d="M536 816Q531 722 465 722Q438 722 405 740T360 759Q337 758 331 716H285Q287 760 306 786T355 813Q384 813 416 793Q445 775 461 775Q485 775 491 816H536ZM629 674L501 0H420L272 379Q232 482 212 574L209 573Q198 480 173 351L107 0H30L158 674H247L396 294Q429 210 454 105L456 106Q462 201 484 319L552 674H629Z"/>
<glyph unicode="Ò" glyph-name="Ograve" horiz-adv-x="653" d="M455 711H389L278 827H379L455 711ZM643 412Q643 324 613 238Q581 147 526 89Q433 -11 296 -11Q181 -11 114 63T47 259Q47 349 79 438T169 588Q261 685 396 685Q521 685 586 601Q643 528 643 412ZM555 409Q555 615 384 615Q278 615 202 498Q133 390 133 266Q133 172 175 118Q221 59 306 59Q412 59 488 180Q555 289 555 409Z"/>
<glyph unicode="Ó" glyph-name="Oacute" horiz-adv-x="653" d="M572 827L436 710H364L466 827H572ZM643 412Q643 324 613 238Q581 147 526 89Q433 -11 296 -11Q181 -11 114 63T47 259Q47 349 79 438T169 588Q261 685 396 685Q521 685 586 601Q643 528 643 412ZM555 409Q555 615 384 615Q278 615 202 498Q133 390 133 266Q133 172 175 118Q221 59 306 59Q412 59 488 180Q555 289 555 409Z"/>
<glyph unicode="Ô" glyph-name="Ocircumflex" horiz-adv-x="653" d="M541 710H474L426 784H424L353 710H281L399 827H461L541 710ZM643 412Q643 324 613 238Q581 147 526 89Q433 -11 296 -11Q181 -11 114 63T47 259Q47 349 79 438T169 588Q261 685 396 685Q521 685 586 601Q643 528 643 412ZM555 409Q555 615 384 615Q278 615 202 498Q133 390 133 266Q133 172 175 118Q221 59 306 59Q412 59 488 180Q555 289 555 409Z"/>
<glyph unicode="Õ" glyph-name="Otilde" horiz-adv-x="653" d="M546 816Q540 722 474 722Q447 722 414 740T369 759Q346 758 341 716H295Q297 760 315 786T365 813Q393 813 425 793Q454 775 470 775Q495 775 500 816H546ZM643 412Q643 324 613 238Q581 147 526 89Q433 -11 296 -11Q181 -11 114 63T47 259Q47 349 79 438T169 588Q261 685 396 685Q521 685 586 601Q643 528 643 412ZM555 409Q555 615 384 615Q278 615 202 498Q133 390 133 266Q133 172 175 118Q221 59 306 59Q412 59 488 180Q555 289 555 409Z"/>
<glyph unicode="Ö" glyph-name="Odieresis" horiz-adv-x="653" d="M562 773Q562 751 547 736T510 721Q491 721 478 735T465 768Q465 789 480 805T516 821Q536 821 549 807T562 773ZM381 773Q381 751 366 736T330 721Q310 721 297 735T284 768Q284 789 299 805T335 821Q355 821 368 807T381 773ZM643 412Q643 324 613 238Q581 147 526 89Q433 -11 296 -11Q181 -11 114 63T47 259Q47 349 79 438T169 588Q261 685 396 685Q521 685 586 601Q643 528 643 412ZM555 409Q555 615 384 615Q278 615 202 498Q133 390 133 266Q133 172 175 118Q221 59 306 59Q412 59 488 180Q555 289 555 409Z"/>
<glyph unicode="×" glyph-name="multiply" horiz-adv-x="596" d="M560 44L516 0L309 222L103 0L63 45L269 263L63 482L105 526L311 304L517 526L560 483L351 263L560 44Z"/>
<glyph unicode="Ø" glyph-name="Oslash" horiz-adv-x="651" d="M674 678L595 586Q642 518 642 414Q642 323 610 234T523 87Q431 -11 298 -11Q198 -11 138 46L61 -42L20 -4L97 85Q46 159 46 264Q46 355 78 441T167 586Q263 685 394 685Q497 685 555 628L629 713L674 678ZM505 568Q464 616 385 616Q271 616 197 500Q132 399 132 278Q132 212 153 156H156L505 568ZM537 512H534L188 105Q231 58 310 58Q383 58 445 116T536 266Q557 331 557 396Q557 459 537 512Z"/>
<glyph unicode="Ù" glyph-name="Ugrave" horiz-adv-x="609" d="M445 711H378L267 827H368L445 711ZM619 674L541 268Q488 -11 265 -11Q178 -11 127 36Q72 87 72 184Q72 229 81 277L157 674H239L163 271Q154 227 154 187Q154 125 187 93T276 60Q419 60 460 270L537 674H619Z"/>
<glyph unicode="Ú" glyph-name="Uacute" horiz-adv-x="609" d="M546 827L409 710H338L440 827H546ZM619 674L541 268Q488 -11 265 -11Q178 -11 127 36Q72 87 72 184Q72 229 81 277L157 674H239L163 271Q154 227 154 187Q154 125 187 93T276 60Q419 60 460 270L537 674H619Z"/>
<glyph unicode="Û" glyph-name="Ucircumflex" horiz-adv-x="609" d="M526 710H460L412 784H410L339 710H267L385 827H447L526 710ZM619 674L541 268Q488 -11 265 -11Q178 -11 127 36Q72 87 72 184Q72 229 81 277L157 674H239L163 271Q154 227 154 187Q154 125 187 93T276 60Q419 60 460 270L537 674H619Z"/>
<glyph unicode="Ü" glyph-name="Udieresis" horiz-adv-x="609" d="M544 773Q544 751 529 736T492 721Q472 721 459 735T446 768Q446 789 461 805T497 821Q517 821 530 807T544 773ZM363 773Q363 751 348 736T311 721Q292 721 279 735T265 768Q265 789 280 805T316 821Q336 821 349 807T363 773ZM619 674L541 268Q488 -11 265 -11Q178 -11 127 36Q72 87 72 184Q72 229 81 277L157 674H239L163 271Q154 227 154 187Q154 125 187 93T276 60Q419 60 460 270L537 674H619Z"/>
<glyph unicode="Ý" glyph-name="Yacute" horiz-adv-x="508" d="M495 827L358 710H286L388 827H495ZM575 674L292 281L239 0H157L210 280L84 674H172L235 457Q254 393 263 344H265Q284 377 336 460L479 674H575Z"/>
<glyph unicode="Þ" glyph-name="Thorn" horiz-adv-x="499" d="M486 385Q486 276 403 211Q327 152 213 152Q171 152 140 157L110 0H30L158 674H239L213 542Q246 549 291 549Q391 549 442 498Q486 454 486 385ZM403 375Q403 482 272 482Q228 482 200 475L153 226Q183 220 221 220Q296 220 349 263T403 375Z"/>
<glyph unicode="ß" glyph-name="germandbls" horiz-adv-x="531" d="M513 578Q513 512 472 471Q386 439 386 378Q386 343 422 294Q472 227 472 165Q472 84 414 36Q360 -11 277 -11Q216 -11 178 12L200 74Q236 55 277 55Q325 55 356 83T388 157Q388 201 351 248Q302 313 302 361Q302 454 409 501Q431 524 431 571Q431 605 412 627Q389 652 346 652Q233 652 199 472L109 0H27L114 460Q164 720 358 720Q429 720 471 680T513 578Z"/>
<glyph unicode="à" glyph-name="agrave" horiz-adv-x="513" d="M381 543H323L222 686H314L381 543ZM488 476L439 223Q415 97 419 0H342Q342 34 353 123H351Q280 -11 167 -11Q105 -11 68 33T31 147Q31 282 118 384Q212 494 361 494Q431 494 488 476ZM396 422Q375 429 340 429Q249 429 183 347T116 163Q116 57 196 57Q249 57 299 119T368 274L396 422Z"/>
<glyph unicode="á" glyph-name="aacute" horiz-adv-x="513" d="M492 686L361 543H297L395 686H492ZM488 476L439 223Q415 97 419 0H342Q342 34 353 123H351Q280 -11 167 -11Q105 -11 68 33T31 147Q31 282 118 384Q212 494 361 494Q431 494 488 476ZM396 422Q375 429 340 429Q249 429 183 347T116 163Q116 57 196 57Q249 57 299 119T368 274L396 422Z"/>
<glyph unicode="â" glyph-name="acircumflex" horiz-adv-x="513" d="M449 543H388L346 636H344L275 543H209L324 686H381L449 543ZM488 476L439 223Q415 97 419 0H342Q342 34 353 123H351Q280 -11 167 -11Q105 -11 68 33T31 147Q31 282 118 384Q212 494 361 494Q431 494 488 476ZM396 422Q375 429 340 429Q249 429 183 347T116 163Q116 57 196 57Q249 57 299 119T368 274L396 422Z"/>
<glyph unicode="ã" glyph-name="atilde" horiz-adv-x="513" d="M456 663Q450 568 385 568Q356 568 327 587T283 606Q262 606 255 562H209Q211 605 229 632T280 660Q303 660 341 638Q370 621 382 621Q405 621 410 663H456ZM488 476L439 223Q415 97 419 0H342Q342 34 353 123H351Q280 -11 167 -11Q105 -11 68 33T31 147Q31 282 118 384Q212 494 361 494Q431 494 488 476ZM396 422Q375 429 340 429Q249 429 183 347T116 163Q116 57 196 57Q249 57 299 119T368 274L396 422Z"/>
<glyph unicode="ä" glyph-name="adieresis" horiz-adv-x="513" d="M471 612Q471 589 456 574T418 559Q398 559 386 573T373 607Q373 629 387 644T424 660Q445 660 458 646T471 612ZM291 612Q291 589 277 574T239 559Q219 559 206 573T193 607Q193 629 208 644T244 660Q265 660 278 646T291 612ZM488 476L439 223Q415 97 419 0H342Q342 34 353 123H351Q280 -11 167 -11Q105 -11 68 33T31 147Q31 282 118 384Q212 494 361 494Q431 494 488 476ZM396 422Q375 429 340 429Q249 429 183 347T116 163Q116 57 196 57Q249 57 299 119T368 274L396 422Z"/>
<glyph unicode="å" glyph-name="aring" horiz-adv-x="513" d="M433 629Q433 587 403 561T330 534Q290 534 262 558T234 621Q234 665 264 692T338 719Q379 719 406 695T433 629ZM488 476L439 223Q415 97 419 0H342Q342 34 353 123H351Q280 -11 167 -11Q105 -11 68 33T31 147Q31 282 118 384Q212 494 361 494Q431 494 488 476ZM384 630Q384 682 335 682Q312 682 299 665T285 624Q285 602 298 587T332 572Q356 572 370 589T384 630ZM396 422Q375 429 340 429Q249 429 183 347T116 163Q116 57 196 57Q249 57 299 119T368 274L396 422Z"/>
<glyph unicode="æ" glyph-name="ae" horiz-adv-x="706" d="M693 379Q693 296 616 261Q554 233 430 233Q406 233 378 234Q365 164 382 121Q408 56 491 56Q555 56 619 89L629 29Q565 -11 473 -11Q350 -11 318 95H316Q255 -11 136 -11Q75 -11 39 26Q5 60 5 112Q5 207 94 258Q179 307 315 302L318 322Q320 332 320 342Q320 379 300 403Q276 432 228 432Q165 432 105 394L88 449Q159 494 238 494Q357 494 375 393H377Q438 494 557 494Q622 494 660 458Q693 426 693 379ZM612 374Q612 401 592 416T543 431Q489 431 445 388Q404 349 389 294Q415 294 435 294Q508 294 544 303Q612 321 612 374ZM305 243Q223 247 165 224Q88 193 88 123Q88 55 158 55Q205 55 242 88Q283 125 295 188L305 243Z"/>
<glyph unicode="ç" glyph-name="ccedilla" horiz-adv-x="414" d="M423 473L400 408Q363 425 321 425Q232 425 173 348Q119 277 119 185Q119 127 149 93T235 58Q287 58 344 84L352 20Q298 -5 248 -8L217 -50Q271 -63 271 -115Q271 -154 240 -177T165 -200Q121 -200 98 -182L116 -140Q140 -155 168 -155Q212 -155 212 -119Q212 -86 146 -80L196 -9Q115 -3 72 52Q33 101 33 176Q33 303 115 396Q200 494 326 494Q387 494 423 473Z"/>
<glyph unicode="è" glyph-name="egrave" horiz-adv-x="445" d="M342 543H284L184 686H276L342 543ZM432 371Q432 208 116 214Q107 165 125 121Q153 56 231 56Q298 56 358 89L370 27Q303 -10 213 -10Q123 -10 75 47Q33 98 33 183Q33 298 105 393Q182 494 293 494Q358 494 395 460T432 371ZM353 369Q353 430 281 430Q225 430 180 380Q141 337 125 277H139Q353 276 353 369Z"/>
<glyph unicode="é" glyph-name="eacute" horiz-adv-x="445" d="M444 686L313 543H249L347 686H444ZM432 371Q432 208 116 214Q107 165 125 121Q153 56 231 56Q298 56 358 89L370 27Q303 -10 213 -10Q123 -10 75 47Q33 98 33 183Q33 298 105 393Q182 494 293 494Q358 494 395 460T432 371ZM353 369Q353 430 281 430Q225 430 180 380Q141 337 125 277H139Q353 276 353 369Z"/>
<glyph unicode="ê" glyph-name="ecircumflex" horiz-adv-x="445" d="M418 543H357L315 636H313L244 543H178L292 686H350L418 543ZM432 371Q432 208 116 214Q107 165 125 121Q153 56 231 56Q298 56 358 89L370 27Q303 -10 213 -10Q123 -10 75 47Q33 98 33 183Q33 298 105 393Q182 494 293 494Q358 494 395 460T432 371ZM353 369Q353 430 281 430Q225 430 180 380Q141 337 125 277H139Q353 276 353 369Z"/>
<glyph unicode="ë" glyph-name="edieresis" horiz-adv-x="445" d="M447 612Q447 589 432 574T395 559Q375 559 362 573T349 607Q349 629 364 644T400 660Q421 660 434 646T447 612ZM267 612Q267 589 253 574T215 559Q195 559 182 573T169 607Q169 629 184 644T220 660Q241 660 254 646T267 612ZM432 371Q432 208 116 214Q107 165 125 121Q153 56 231 56Q298 56 358 89L370 27Q303 -10 213 -10Q123 -10 75 47Q33 98 33 183Q33 298 105 393Q182 494 293 494Q358 494 395 460T432 371ZM353 369Q353 430 281 430Q225 430 180 380Q141 337 125 277H139Q353 276 353 369Z"/>
<glyph unicode="ì" glyph-name="igrave" horiz-adv-x="225" d="M208 543H150L50 686H142L208 543ZM201 484L109 0H27L119 484H201Z"/>
<glyph unicode="í" glyph-name="iacute" horiz-adv-x="225" d="M319 686L188 543H124L222 686H319ZM201 484L109 0H27L119 484H201Z"/>
<glyph unicode="î" glyph-name="icircumflex" horiz-adv-x="225" d="M286 543H226L184 636H182L113 543H47L161 686H219L286 543ZM201 484L109 0H27L119 484H201Z"/>
<glyph unicode="ï" glyph-name="idieresis" horiz-adv-x="225" d="M318 612Q318 589 303 574T266 559Q246 559 233 573T220 607Q220 629 234 644T271 660Q292 660 305 646T318 612ZM138 612Q138 589 124 574T86 559Q66 559 53 573T40 607Q40 629 55 644T91 660Q112 660 125 646T138 612ZM201 484L109 0H27L119 484H201Z"/>
<glyph unicode="ð" glyph-name="eth" horiz-adv-x="507" d="M489 654L378 604Q478 491 478 337Q478 185 400 85Q324 -11 217 -11Q126 -11 77 50Q33 102 33 183Q33 303 106 393T285 484Q352 485 385 439L389 440Q363 518 307 573L163 507L147 549L272 606Q240 640 185 669L225 718Q282 691 342 637L471 696L489 654ZM391 308Q391 359 365 390T288 422Q210 422 160 338Q117 267 117 184Q117 129 142 94Q171 54 223 54Q302 54 351 145Q391 221 391 308Z"/>
<glyph unicode="ñ" glyph-name="ntilde" horiz-adv-x="525" d="M449 663Q443 568 378 568Q349 568 320 587T276 606Q255 606 248 562H202Q204 605 222 632T273 660Q296 660 334 638Q363 621 375 621Q398 621 403 663H449ZM473 363Q473 330 465 284L411 0H329L382 282Q389 317 389 344Q389 426 315 426Q267 426 220 376Q168 321 153 237L109 0H27L91 341Q104 409 114 484H188L176 390H178Q245 494 354 494Q403 494 435 465Q473 430 473 363Z"/>
<glyph unicode="ò" glyph-name="ograve" horiz-adv-x="512" d="M360 543H302L201 686H293L360 543ZM482 296Q482 178 410 87Q333 -11 218 -11Q133 -11 82 46Q34 100 34 185Q34 305 105 396Q182 494 298 494Q384 494 433 439T482 296ZM397 297Q397 352 371 388Q341 429 288 429Q211 429 161 344Q117 272 117 189Q117 133 144 96Q174 54 228 54Q302 54 353 142Q397 217 397 297Z"/>
<glyph unicode="ó" glyph-name="oacute" horiz-adv-x="512" d="M461 686L329 543H266L363 686H461ZM482 296Q482 178 410 87Q333 -11 218 -11Q133 -11 82 46Q34 100 34 185Q34 305 105 396Q182 494 298 494Q384 494 433 439T482 296ZM397 297Q397 352 371 388Q341 429 288 429Q211 429 161 344Q117 272 117 189Q117 133 144 96Q174 54 228 54Q302 54 353 142Q397 217 397 297Z"/>
<glyph unicode="ô" glyph-name="ocircumflex" horiz-adv-x="512" d="M434 543H373L331 636H329L260 543H194L309 686H366L434 543ZM482 296Q482 178 410 87Q333 -11 218 -11Q133 -11 82 46Q34 100 34 185Q34 305 105 396Q182 494 298 494Q384 494 433 439T482 296ZM397 297Q397 352 371 388Q341 429 288 429Q211 429 161 344Q117 272 117 189Q117 133 144 96Q174 54 228 54Q302 54 353 142Q397 217 397 297Z"/>
<glyph unicode="õ" glyph-name="otilde" horiz-adv-x="512" d="M434 663Q428 568 364 568Q335 568 306 587T262 606Q240 606 234 562H187Q190 605 208 632T258 660Q282 660 319 638Q349 621 360 621Q383 621 389 663H434ZM482 296Q482 178 410 87Q333 -11 218 -11Q133 -11 82 46Q34 100 34 185Q34 305 105 396Q182 494 298 494Q384 494 433 439T482 296ZM397 297Q397 352 371 388Q341 429 288 429Q211 429 161 344Q117 272 117 189Q117 133 144 96Q174 54 228 54Q302 54 353 142Q397 217 397 297Z"/>
<glyph unicode="ö" glyph-name="odieresis" horiz-adv-x="512" d="M463 612Q463 589 449 574T411 559Q391 559 378 573T365 607Q365 629 380 644T416 660Q437 660 450 646T463 612ZM283 612Q283 589 269 574T231 559Q211 559 198 573T185 607Q185 629 200 644T237 660Q257 660 270 646T283 612ZM482 296Q482 178 410 87Q333 -11 218 -11Q133 -11 82 46Q34 100 34 185Q34 305 105 396Q182 494 298 494Q384 494 433 439T482 296ZM397 297Q397 352 371 388Q341 429 288 429Q211 429 161 344Q117 272 117 189Q117 133 144 96Q174 54 228 54Q302 54 353 142Q397 217 397 297Z"/>
<glyph unicode="÷" glyph-name="divide" horiz-adv-x="596" d="M358 442Q358 387 304 387Q281 387 267 403T253 442Q253 466 267 481T306 497Q330 497 344 482T358 442ZM555 238H54V296H555V238ZM357 91Q357 37 303 37Q280 37 266 52T252 91Q252 115 266 131T305 147Q329 147 343 131T357 91Z"/>
<glyph unicode="ø" glyph-name="oslash" horiz-adv-x="513" d="M496 492L441 428Q483 374 483 298Q483 173 407 81T225 -11Q150 -11 105 27L49 -38L19 -8L75 58Q33 109 33 191Q33 311 107 400Q184 494 296 494Q365 494 409 460L462 520L496 492ZM361 402Q336 431 286 431Q213 431 163 353Q118 284 117 203Q117 156 133 125H135L361 402ZM399 283Q399 323 384 358H382L154 84Q182 53 232 53Q297 53 347 125T399 283Z"/>
<glyph unicode="ù" glyph-name="ugrave" horiz-adv-x="517" d="M365 543H307L206 686H298L365 543ZM492 484L427 142Q414 71 406 0H331L344 90H342Q273 -11 174 -11Q49 -11 49 127Q49 159 58 208L111 484H193L141 212Q133 168 133 140Q133 59 208 59Q255 59 301 108T363 234L410 484H492Z"/>
<glyph unicode="ú" glyph-name="uacute" horiz-adv-x="517" d="M472 686L341 543H277L375 686H472ZM492 484L427 142Q414 71 406 0H331L344 90H342Q273 -11 174 -11Q49 -11 49 127Q49 159 58 208L111 484H193L141 212Q133 168 133 140Q133 59 208 59Q255 59 301 108T363 234L410 484H492Z"/>
<glyph unicode="û" glyph-name="ucircumflex" horiz-adv-x="517" d="M437 543H376L334 636H332L263 543H197L311 686H369L437 543ZM492 484L427 142Q414 71 406 0H331L344 90H342Q273 -11 174 -11Q49 -11 49 127Q49 159 58 208L111 484H193L141 212Q133 168 133 140Q133 59 208 59Q255 59 301 108T363 234L410 484H492Z"/>
<glyph unicode="ü" glyph-name="udieresis" horiz-adv-x="517" d="M462 612Q462 589 447 574T410 559Q390 559 377 573T364 607Q364 629 379 644T415 660Q436 660 449 646T462 612ZM282 612Q282 589 268 574T230 559Q210 559 197 573T184 607Q184 629 199 644T235 660Q256 660 269 646T282 612ZM492 484L427 142Q414 71 406 0H331L344 90H342Q273 -11 174 -11Q49 -11 49 127Q49 159 58 208L111 484H193L141 212Q133 168 133 140Q133 59 208 59Q255 59 301 108T363 234L410 484H492Z"/>
<glyph unicode="ý" glyph-name="yacute" horiz-adv-x="434" d="M417 686L285 543H222L320 686H417ZM462 484L282 114Q197 -60 116 -140Q49 -206 -20 -221L-41 -151Q10 -132 46 -104Q103 -60 139 7Q144 17 141 29L48 484H133L179 223Q187 178 200 96H202Q226 156 253 215L375 484H462Z"/>
<glyph unicode="þ" glyph-name="thorn" horiz-adv-x="517" d="M487 321Q487 189 405 89T208 -11Q144 -11 107 10H104L65 -198H-16L148 669H230L177 398H179Q243 494 342 494Q414 494 453 442Q487 396 487 321ZM401 314Q401 360 382 390Q359 426 314 426Q262 426 215 374Q162 315 144 218L118 79Q149 54 208 54Q286 54 345 138Q401 218 401 314Z"/>
<glyph unicode="ÿ" glyph-name="ydieresis" horiz-adv-x="434" d="M415 612Q415 589 400 574T363 559Q343 559 330 573T317 607Q317 629 332 644T368 660Q389 660 402 646T415 612ZM235 612Q235 589 221 574T183 559Q163 559 150 573T137 607Q137 629 152 644T188 660Q209 660 222 646T235 612ZM462 484L282 114Q197 -60 116 -140Q49 -206 -20 -221L-41 -151Q10 -132 46 -104Q103 -60 139 7Q144 17 141 29L48 484H133L179 223Q187 178 200 96H202Q226 156 253 215L375 484H462Z"/>
<glyph unicode="ı" glyph-name="dotlessi" horiz-adv-x="225" d="M201 484L109 0H27L119 484H201Z"/>
<glyph unicode="Ł" glyph-name="Lslash" horiz-adv-x="440" d="M398 72L384 0H36L87 269L-7 207L6 275L100 336L164 674H246L193 396L334 489L321 420L180 327L132 72H398Z"/>
<glyph unicode="ł" glyph-name="lslash" horiz-adv-x="234" d="M272 475L259 407L181 350L114 0H32L86 284L11 230L23 298L99 352L167 709H249L194 418L272 475Z"/>
<glyph unicode="Œ" glyph-name="OE" horiz-adv-x="849" d="M881 674L868 604H605L564 386H812L798 316H551L505 71H782L769 0H452Q430 0 387 -3T321 -7Q186 -7 112 76Q46 152 46 274Q46 439 146 554Q258 681 446 681Q470 681 517 678T587 674H881ZM523 603Q493 612 439 612Q298 612 211 509Q133 415 133 280Q133 183 180 127Q235 62 344 62Q384 62 422 71L523 603Z"/>
<glyph unicode="œ" glyph-name="oe" horiz-adv-x="785" d="M772 377Q772 284 674 247Q602 220 459 219Q448 165 467 121Q495 56 575 56Q639 56 698 89L710 29Q647 -11 558 -11Q432 -11 400 102H397Q333 -11 211 -11Q130 -11 81 47Q34 102 34 187Q34 310 105 400Q180 494 290 494Q350 494 392 462Q431 431 444 378H446Q478 433 530 463T638 494Q706 494 742 456Q772 423 772 377ZM695 372Q695 401 672 417Q653 431 623 431Q568 431 524 382Q486 341 470 282Q562 283 605 292Q695 312 695 372ZM391 298Q391 430 288 430Q210 430 160 346Q118 275 118 191Q118 135 144 98Q173 55 227 55Q300 55 350 143Q391 218 391 298Z"/>
<glyph unicode="Š" glyph-name="Scaron" horiz-adv-x="457" d="M473 827L356 710H293L214 827H281L328 754H331L401 827H473ZM456 650L427 583Q376 614 313 613Q255 613 218 580T181 503Q181 464 207 435Q229 408 284 378Q409 307 409 198Q409 108 344 49T169 -10Q121 -10 77 3T10 35L40 103Q102 61 180 61Q240 61 280 94Q324 130 324 188Q324 260 227 315Q97 388 97 487Q97 575 162 629T322 684Q407 684 456 650Z"/>
<glyph unicode="š" glyph-name="scaron" horiz-adv-x="367" d="M385 686L269 543H211L142 686H203L246 591H248L320 686H385ZM345 471L322 409Q285 430 240 430Q203 430 179 410T154 357Q154 314 219 276Q308 225 308 149Q308 75 256 32T125 -10Q49 -10 7 22L31 83Q80 54 133 54Q173 54 198 77T224 133Q224 185 158 222Q72 271 72 345Q72 409 121 451T246 494Q310 494 345 471Z"/>
<glyph unicode="Ÿ" glyph-name="Ydieresis" horiz-adv-x="508" d="M481 773Q481 751 466 736T430 721Q410 721 397 735T384 768Q384 789 399 805T435 821Q455 821 468 807T481 773ZM301 773Q301 751 286 736T249 721Q229 721 216 735T203 768Q203 789 218 805T254 821Q274 821 287 807T301 773ZM575 674L292 281L239 0H157L210 280L84 674H172L235 457Q254 393 263 344H265Q284 377 336 460L479 674H575Z"/>
<glyph unicode="Ž" glyph-name="Zcaron" horiz-adv-x="511" d="M503 827L386 710H323L244 827H311L358 754H361L431 827H503ZM561 674L551 620L105 74L106 71H451L438 0H-20L-11 51L438 600V603H125L139 674H561Z"/>
<glyph unicode="ž" glyph-name="zcaron" horiz-adv-x="407" d="M414 686L298 543H239L171 686H232L274 591H277L348 686H414ZM429 484L419 429L189 170Q142 117 92 70V67H354L341 0H-22L-14 51L219 313Q255 354 317 413L318 416H75L88 484H429Z"/>
<glyph unicode="ƒ" glyph-name="florin" horiz-adv-x="485" d="M506 645L483 584Q459 595 430 595Q351 595 315 442L305 401H420L410 339H291L239 131Q213 25 175 -24Q129 -84 52 -84Q4 -84 -22 -66L-3 -6Q18 -18 53 -18Q122 -18 163 145L211 339H123L133 401H225L237 447Q263 546 301 594Q352 661 440 661Q483 661 506 645Z"/>
</font>
</defs>
</svg>
