<?xml version="1.0" encoding="utf-8"?>
<svg xmlns="http://www.w3.org/2000/svg" width="100%" height="100%">
<defs>
<font id="MyriadApple-TextItalic" horiz-adv-x="388"><font-face font-family="MyriadApple-TextItalic" units-per-em="1000" panose-1="2 0 4 0 0 0 0 0 0 0" ascent="827" descent="-250" alphabetic="0"/>
<missing-glyph horiz-adv-x="500" d="M63 0V750H438V0H63ZM125 63H375V688H125V63Z"/>
<glyph unicode=" " glyph-name="space" horiz-adv-x="206"/>
<glyph unicode="!" glyph-name="exclam" horiz-adv-x="228" d="M240 674L134 189H75L157 674H240ZM131 49Q131 24 115 7T73 -11Q51 -11 38 5T24 43Q24 68 40 86T80 104Q103 104 117 88T131 49Z"/>
<glyph unicode="&quot;" glyph-name="quotedbl" horiz-adv-x="288" d="M341 691L282 455H234L264 691H341ZM199 691L140 455H92L122 691H199Z"/>
<glyph unicode="#" glyph-name="numbersign" horiz-adv-x="477" d="M472 455L463 404H375L328 251H414L405 199H312L251 0H197L259 199H169L108 0H54L116 199H35L44 251H133L179 404H94L103 455H195L256 650H308L248 455H338L399 650H451L391 455H472ZM322 404H232L186 251H275L322 404Z"/>
<glyph unicode="$" glyph-name="dollar" horiz-adv-x="477" d="M447 604L421 550Q367 581 313 581Q259 581 226 551T193 476Q193 442 214 418T289 363Q400 301 400 207Q400 127 350 77T219 16L200 -85H146L165 16Q90 19 39 58L64 115Q123 74 191 74Q248 74 286 106T325 191Q325 263 242 308Q118 376 118 466Q118 532 166 581T288 637L307 735H362L343 637Q409 634 447 604Z"/>
<glyph unicode="%" glyph-name="percent" horiz-adv-x="749" d="M714 259Q714 164 673 87Q623 -6 536 -6Q478 -6 447 37Q419 76 419 136Q419 227 464 303Q516 392 601 392Q656 392 685 354T714 259ZM662 662L172 -13H117L607 662H662ZM364 528Q364 433 323 356Q273 263 186 263Q128 263 97 306Q70 344 70 405Q70 496 114 572Q166 661 251 661Q306 661 337 621Q364 584 364 528ZM655 253Q655 345 592 345Q538 345 506 262Q480 198 480 135Q480 41 545 41Q598 41 630 125Q655 190 655 253ZM305 522Q305 614 242 614Q189 614 156 531Q131 467 131 403Q131 310 195 310Q248 310 280 394Q305 459 305 522Z"/>
<glyph unicode="&amp;" glyph-name="ampersand" horiz-adv-x="570" d="M569 364Q512 195 432 109Q456 75 513 0H428Q409 23 381 65Q300 -11 193 -11Q111 -11 62 38Q17 84 17 155Q17 292 184 375V378Q147 445 147 502Q147 577 196 631T319 685Q381 685 416 646Q447 610 447 556Q447 438 275 357V355Q336 248 399 157Q458 233 501 364H569ZM381 553Q381 632 312 632Q268 632 240 592Q216 557 216 510Q216 454 247 400Q381 465 381 553ZM351 111Q303 184 210 332Q90 261 90 166Q90 111 123 79T212 46Q291 46 351 111Z"/>
<glyph unicode="'" glyph-name="quotesingle" horiz-adv-x="158" d="M205 691L146 456H98L128 691H205Z"/>
<glyph unicode="(" glyph-name="parenleft" horiz-adv-x="277" d="M345 692Q132 454 132 158Q132 12 189 -119H132Q69 8 69 161Q69 323 138 475Q193 595 281 692H345Z"/>
<glyph unicode=")" glyph-name="parenright" horiz-adv-x="277" d="M228 413Q228 251 159 99Q105 -21 17 -119H-48Q165 122 165 416Q165 563 108 692H165Q228 567 228 413Z"/>
<glyph unicode="*" glyph-name="asterisk" horiz-adv-x="406" d="M429 545L417 483L275 500V497L355 378L296 345L247 482H245L165 344L117 377L223 501L76 483L88 545L226 529V531L149 652L208 684L257 548H259L334 685L386 653L280 530V528L429 545Z"/>
<glyph unicode="+" glyph-name="plus" horiz-adv-x="596" d="M555 240H333V0H278V240H56V294H278V532H333V294H555V240Z"/>
<glyph unicode="," glyph-name="comma" horiz-adv-x="202" d="M143 118Q81 -30 16 -118L-41 -124Q19 -10 54 108L143 118Z"/>
<glyph unicode="-" glyph-name="hyphen" horiz-adv-x="303" d="M282 300L271 242H36L47 300H282Z"/>
<glyph unicode="." glyph-name="period" horiz-adv-x="202" d="M129 50Q129 24 113 7T71 -10Q48 -10 35 5T21 44Q21 69 37 87T78 105Q101 105 115 90T129 50Z"/>
<glyph unicode="/" glyph-name="slash" horiz-adv-x="323" d="M414 685L5 -40H-55L351 685H414Z"/>
<glyph unicode="0" glyph-name="zero" horiz-adv-x="477" d="M474 461Q474 369 451 276Q422 164 368 89Q296 -11 199 -11H198Q43 -11 43 208Q43 301 69 392Q99 497 155 569Q228 661 321 661Q402 661 441 599Q474 547 474 461ZM401 457Q401 601 312 601Q244 601 190 505Q152 437 132 349Q114 273 114 204Q114 49 208 49Q297 49 355 214Q401 344 401 457Z"/>
<glyph unicode="1" glyph-name="one" horiz-adv-x="477" d="M372 650L248 0H178L288 575H286L177 519L167 576L310 650H372Z"/>
<glyph unicode="2" glyph-name="two" horiz-adv-x="477" d="M455 506Q455 409 371 302Q304 218 166 106L115 64V62H389L378 0H0L9 49L97 124Q244 251 304 325Q380 418 380 497Q380 539 358 566Q331 599 278 599Q212 599 148 551L128 604Q203 661 293 661Q375 661 419 611Q455 569 455 506Z"/>
<glyph unicode="3" glyph-name="three" horiz-adv-x="477" d="M439 524Q439 462 395 414Q355 371 296 354V352Q347 339 375 299T403 205Q403 113 333 51T157 -11Q60 -11 16 29L41 86Q99 51 161 51Q240 51 286 101Q327 144 327 203Q327 263 285 295Q248 323 188 323H156L167 380H200Q255 380 304 413Q362 452 362 513Q362 599 269 599Q201 599 151 563L134 618Q203 661 282 661Q357 661 400 619Q439 581 439 524Z"/>
<glyph unicode="4" glyph-name="four" horiz-adv-x="477" d="M456 241L445 183H355L321 0H253L287 183H11L21 232L369 650H445L367 241H456ZM366 570L363 571Q341 535 291 464L102 241H299L342 468Q345 482 366 570Z"/>
<glyph unicode="5" glyph-name="five" horiz-adv-x="477" d="M473 650L460 586H244L189 411Q203 413 220 413Q277 413 330 382Q406 338 406 240Q406 128 327 57Q253 -11 147 -11Q60 -11 15 23L38 81Q86 51 154 51Q227 51 279 102T331 225Q331 354 177 354Q154 354 107 350L197 650H473Z"/>
<glyph unicode="6" glyph-name="six" horiz-adv-x="477" d="M457 660L449 597Q339 599 249 523Q167 453 130 342L132 341Q160 380 204 403T292 426Q365 426 406 375Q445 328 445 252Q445 153 380 74Q311 -11 213 -11Q127 -11 80 49Q37 104 37 199Q37 305 87 409Q132 502 199 559Q292 639 405 656Q440 661 457 660ZM371 248Q371 368 267 368Q182 368 125 275Q116 261 114 245Q109 212 109 188Q109 126 136 87T219 48Q284 48 329 114Q371 174 371 248Z"/>
<glyph unicode="7" glyph-name="seven" horiz-adv-x="477" d="M510 650L500 600Q280 246 123 1H44Q195 234 418 585L417 588H122L135 650H510Z"/>
<glyph unicode="8" glyph-name="eight" horiz-adv-x="477" d="M465 517Q465 406 336 345V342Q432 288 432 185Q432 98 367 44T212 -11Q134 -11 82 29Q25 73 25 149Q25 218 69 272Q110 320 178 347V351Q107 402 107 479Q107 558 169 611Q227 661 308 661Q375 661 420 622T465 517ZM395 508Q395 605 298 605Q249 605 214 570T179 484Q179 406 275 370Q325 387 358 421Q395 459 395 508ZM358 180Q358 275 242 317Q181 301 143 261Q100 217 100 157Q100 106 133 76T218 45Q278 45 318 83T358 180Z"/>
<glyph unicode="9" glyph-name="nine" horiz-adv-x="477" d="M478 462Q478 350 422 237Q375 139 311 83Q230 13 127 -5Q88 -11 57 -10L65 53Q93 52 125 57Q214 73 286 147Q349 213 383 306L380 307Q318 233 230 233Q156 233 115 286Q78 332 78 400Q78 500 147 580T311 661Q395 661 439 601Q478 549 478 462ZM405 470Q405 602 303 602Q239 602 194 539Q152 480 152 407Q152 355 177 323T251 291Q333 291 384 370Q394 385 397 399Q405 430 405 470Z"/>
<glyph unicode=":" glyph-name="colon" horiz-adv-x="202" d="M197 408Q197 383 181 366T139 349Q117 349 104 364T90 403Q90 427 105 445T146 463Q169 463 183 448T197 408ZM127 49Q127 24 111 7T70 -11Q48 -11 34 5T20 43Q20 68 36 86T77 104Q100 104 113 89T127 49Z"/>
<glyph unicode=";" glyph-name="semicolon" horiz-adv-x="202" d="M202 408Q202 383 186 366T144 349Q122 349 108 364T94 403Q94 427 110 445T151 463Q174 463 188 448T202 408ZM142 118Q81 -30 15 -118L-41 -124Q19 -10 54 108L142 118Z"/>
<glyph unicode="&lt;" glyph-name="less" horiz-adv-x="596" d="M527 0L82 242V290L527 532V470L148 267V265L527 62V0Z"/>
<glyph unicode="=" glyph-name="equal" horiz-adv-x="596" d="M557 341H58V394H557V341ZM557 145H58V198H557V145Z"/>
<glyph unicode="&gt;" glyph-name="greater" horiz-adv-x="596" d="M540 241L94 0V62L476 265V267L94 470V532L540 291V241Z"/>
<glyph unicode="?" glyph-name="question" horiz-adv-x="370" d="M387 564Q387 510 355 458Q332 421 278 365Q206 290 198 215Q197 206 194 188L124 187Q130 253 152 300T223 398Q268 446 284 471Q312 512 312 551Q312 624 234 624Q181 624 137 597L122 651Q183 686 252 686Q319 686 356 646Q387 612 387 564ZM185 50Q185 24 169 7T127 -10Q105 -10 92 6T78 44Q78 69 94 87T134 105Q157 105 171 89T185 50Z"/>
<glyph unicode="@" glyph-name="at" horiz-adv-x="706" d="M694 400Q694 289 641 221Q592 158 520 158Q488 158 469 179Q446 203 449 247H445Q393 158 304 158Q260 158 230 192T199 282Q199 377 266 449T434 521Q494 521 537 501L502 319Q496 285 496 261Q496 205 532 204Q574 203 607 253Q642 308 642 392Q642 505 579 573T403 642Q278 642 192 550Q104 454 104 303Q104 179 174 106T361 33Q445 33 507 69L522 28Q452 -12 351 -12Q221 -12 138 71Q52 157 52 299Q52 460 149 570Q251 686 411 686Q538 686 616 606T694 400ZM475 465Q453 473 423 473Q355 473 307 417T258 284Q258 207 326 207Q368 207 407 254Q442 296 452 347L475 465Z"/>
<glyph unicode="A" glyph-name="A" horiz-adv-x="550" d="M494 0H421L393 219H160L50 0H-26L321 674H403L494 0ZM387 277L360 479Q356 514 349 603H346Q329 562 291 480L187 277H387Z"/>
<glyph unicode="B" glyph-name="B" horiz-adv-x="500" d="M488 529Q488 468 446 422T342 359V356Q391 342 421 305Q453 265 453 206Q453 111 374 51Q302 -4 165 -4Q80 -4 33 5L158 665Q223 678 294 678Q395 678 445 631Q488 591 488 529ZM414 524Q414 621 289 621Q240 621 220 614L176 385H238Q314 385 364 423T414 524ZM377 211Q377 268 334 300Q295 329 233 329H165L114 59Q141 55 182 55Q266 54 318 91Q377 132 377 211Z"/>
<glyph unicode="C" glyph-name="C" horiz-adv-x="537" d="M577 653L553 594Q508 622 424 622Q311 622 229 543Q124 443 124 277Q124 176 169 119Q221 52 327 52Q412 52 469 81L479 21Q409 -10 311 -10Q187 -10 118 64T48 266Q48 360 84 446T186 591Q292 684 436 684Q538 684 577 653Z"/>
<glyph unicode="D" glyph-name="D" horiz-adv-x="627" d="M618 413Q618 320 583 233Q547 143 483 88Q375 -4 188 -4Q98 -4 33 4L158 665Q233 678 317 678Q483 678 560 589Q618 521 618 413ZM541 411Q541 619 314 619Q254 619 220 612L116 61Q152 56 203 56Q357 56 446 147Q541 244 541 411Z"/>
<glyph unicode="E" glyph-name="E" horiz-adv-x="454" d="M488 674L476 612H220L177 384H418L406 322H165L116 62H387L375 0H32L160 674H488Z"/>
<glyph unicode="F" glyph-name="F" horiz-adv-x="449" d="M487 674L475 612H220L174 373H409L397 311H163L104 0H32L160 674H487Z"/>
<glyph unicode="G" glyph-name="G" horiz-adv-x="602" d="M598 651L574 590Q519 618 437 618Q316 618 227 533Q180 488 153 418T125 277Q125 55 341 55Q401 55 444 75L484 287H346L357 347H567L507 28Q423 -7 327 -7Q185 -7 112 78Q48 152 48 271Q48 357 81 438Q116 524 179 582Q289 681 447 681Q548 681 598 651Z"/>
<glyph unicode="H" glyph-name="H" horiz-adv-x="609" d="M617 674L489 0H417L477 322H165L104 0H32L160 674H232L177 386H490L545 674H617Z"/>
<glyph unicode="I" glyph-name="I" horiz-adv-x="224" d="M231 674L103 0H31L159 674H231Z"/>
<glyph unicode="J" glyph-name="J" horiz-adv-x="351" d="M366 674L277 204Q255 89 205 39T65 -11Q2 -11 -31 6L-15 68Q19 54 68 54Q124 54 155 88Q190 125 206 212L294 674H366Z"/>
<glyph unicode="K" glyph-name="K" horiz-adv-x="494" d="M570 674L290 384L460 0H382L233 337L153 262L103 0H32L160 674H232L168 342H173Q204 380 240 419L481 674H570Z"/>
<glyph unicode="L" glyph-name="L" horiz-adv-x="426" d="M384 63L372 0H32L160 674H232L115 63H384Z"/>
<glyph unicode="M" glyph-name="M" horiz-adv-x="760" d="M742 674L657 0H587L637 380Q653 508 671 599H668Q607 465 566 390L358 3H304L251 383Q238 483 230 599H228Q211 521 178 380L82 0H14L189 674H279L335 266Q349 167 351 105H354Q387 184 429 264L649 674H742Z"/>
<glyph unicode="N" glyph-name="N" horiz-adv-x="614" d="M623 674L494 0H424L267 398Q226 501 207 587L204 585Q193 492 170 370L100 0H32L160 674H237L396 273Q429 188 453 92L455 93Q461 186 483 299L554 674H623Z"/>
<glyph unicode="O" glyph-name="O" horiz-adv-x="646" d="M637 413Q637 326 607 239Q576 148 521 89Q429 -11 293 -11Q179 -11 113 63T47 258Q47 348 79 437T169 588Q260 685 393 685Q518 685 582 601Q637 528 637 413ZM561 410Q561 623 382 623Q273 623 194 503Q122 393 122 265Q122 168 166 112Q213 51 302 51Q413 51 491 176Q561 287 561 410Z"/>
<glyph unicode="P" glyph-name="P" horiz-adv-x="491" d="M501 508Q501 402 425 336T224 270Q186 270 155 275L103 0H32L158 665Q219 678 297 678Q405 678 457 626Q501 581 501 508ZM429 503Q429 619 292 619Q244 619 219 612L167 337Q197 330 234 330Q321 330 375 379T429 503Z"/>
<glyph unicode="Q" glyph-name="Q" horiz-adv-x="646" d="M637 413Q637 328 607 241T528 98Q467 31 388 10V6Q506 -19 567 -28L538 -89Q401 -57 313 -23Q282 -11 269 -10Q172 -5 111 66Q47 140 47 259Q47 347 79 435Q112 527 169 587Q260 685 393 685Q518 685 583 599Q637 527 637 413ZM562 411Q562 507 522 561Q476 623 383 623Q269 623 191 496Q123 385 123 263Q123 170 163 114Q209 50 299 50Q416 50 494 177Q562 287 562 411Z"/>
<glyph unicode="R" glyph-name="R" horiz-adv-x="504" d="M498 521Q498 451 449 395Q404 343 338 324V322Q405 300 413 183Q423 30 432 0H358Q351 27 344 162T236 298H160L103 0H32L158 665Q220 678 297 678Q401 678 453 628Q498 585 498 521ZM422 512Q422 620 290 620Q245 620 220 613L171 355H245Q324 355 373 401T422 512Z"/>
<glyph unicode="S" glyph-name="S" horiz-adv-x="450" d="M449 650L423 591Q371 622 310 622Q249 622 211 587T173 505Q173 464 197 435T276 375Q401 305 401 195Q401 108 340 51Q275 -10 166 -10Q121 -10 77 3T12 35L39 94Q99 53 176 52Q239 52 281 88Q327 126 327 187Q327 264 229 319Q99 392 99 490Q99 576 162 630T318 684Q401 684 449 650Z"/>
<glyph unicode="T" glyph-name="T" horiz-adv-x="456" d="M541 674L528 611H333L217 0H145L261 611H66L78 674H541Z"/>
<glyph unicode="U" glyph-name="U" horiz-adv-x="603" d="M612 674L534 265Q481 -11 262 -11Q178 -11 129 35Q74 85 74 182Q74 227 83 274L159 674H231L154 269Q146 224 146 184Q146 119 180 85T272 51Q421 51 462 268L540 674H612Z"/>
<glyph unicode="V" glyph-name="V" horiz-adv-x="520" d="M593 674L242 0H164L85 674H158L208 226Q219 122 219 81H222Q256 165 292 237L514 674H593Z"/>
<glyph unicode="W" glyph-name="W" horiz-adv-x="811" d="M875 674L563 0H488L470 402Q466 492 471 589H469Q450 533 404 420L206 0H130L98 674H171L186 253Q188 190 186 85H188Q214 159 255 248L450 674H526L542 271Q546 157 544 86H546Q583 192 610 252L800 674H875Z"/>
<glyph unicode="X" glyph-name="X" horiz-adv-x="504" d="M574 674L316 344L448 0H372L307 173Q291 214 264 290H262Q220 227 182 175L57 0H-29L232 343L108 674H184L249 495Q270 439 283 393H285Q307 427 354 495L488 674H574Z"/>
<glyph unicode="Y" glyph-name="Y" horiz-adv-x="500" d="M566 674L284 282L231 0H159L213 281L87 674H164L230 449Q250 383 258 338H260Q280 371 332 453L482 674H566Z"/>
<glyph unicode="Z" glyph-name="Z" horiz-adv-x="506" d="M557 674L547 626L90 65L91 62H445L433 0H-19L-11 46L449 609L448 612H128L140 674H557Z"/>
<glyph unicode="[" glyph-name="bracketleft" horiz-adv-x="277" d="M342 686L333 637H225L91 -63H199L190 -112H22L174 686H342Z"/>
<glyph unicode="\" glyph-name="backslash" horiz-adv-x="324" d="M307 -40H248L61 685H120L307 -40Z"/>
<glyph unicode="]" glyph-name="bracketright" horiz-adv-x="277" d="M276 686L124 -112H-45L-36 -63H73L206 637H97L107 686H276Z"/>
<glyph unicode="^" glyph-name="asciicircum" horiz-adv-x="596" d="M533 191H472L305 584H303L135 191H75L276 650L332 649L533 191Z"/>
<glyph unicode="_" glyph-name="underscore" horiz-adv-x="500" d="M451 -75L441 -125H-59L-49 -75H451Z"/>
<glyph unicode="`" glyph-name="grave" horiz-adv-x="377" d="M296 542H245L146 683H231L296 542Z"/>
<glyph unicode="a" glyph-name="a" horiz-adv-x="507" d="M481 476L432 223Q408 96 412 0H344Q344 35 355 127H353Q281 -11 166 -11Q105 -11 69 33T32 146Q32 280 119 382Q214 493 359 493Q427 493 481 476ZM400 428Q379 435 342 435Q246 435 177 351T107 159Q106 49 190 49Q246 49 299 114T371 274L400 428Z"/>
<glyph unicode="b" glyph-name="b" horiz-adv-x="510" d="M481 322Q481 200 404 101Q319 -11 187 -11Q46 -11 46 109Q46 141 54 181L159 709H231L167 392H169Q235 493 338 493Q411 493 449 439Q481 393 481 322ZM406 314Q406 365 384 397Q359 433 312 433Q256 433 206 380T138 241L125 181Q119 152 119 119Q120 47 199 47Q289 47 351 139Q406 221 406 314Z"/>
<glyph unicode="c" glyph-name="c" horiz-adv-x="412" d="M420 471L399 413Q361 432 317 432Q226 432 165 351Q109 277 109 183Q109 50 230 50Q285 50 341 77L350 19Q291 -10 213 -10Q126 -10 78 45Q34 95 34 174Q34 300 115 394Q199 493 323 493Q386 493 420 471Z"/>
<glyph unicode="d" glyph-name="d" horiz-adv-x="509" d="M526 709L420 149Q404 64 400 0H334L347 97H345Q277 -11 172 -11Q106 -11 68 40Q32 87 32 162Q32 294 117 393T325 493Q377 493 411 476L455 709H526ZM399 414Q369 435 319 435Q231 435 169 354T107 171Q107 49 199 49Q251 49 300 102T365 235L399 414Z"/>
<glyph unicode="e" glyph-name="e" horiz-adv-x="437" d="M425 374Q425 213 108 218Q97 167 116 118Q144 49 224 49Q291 49 350 82L362 27Q297 -10 209 -10Q121 -10 75 47Q33 97 33 181Q33 296 105 391Q182 493 290 493Q354 493 391 458Q425 425 425 374ZM354 373Q354 436 280 436Q221 436 174 383Q134 337 116 274H130Q354 273 354 373Z"/>
<glyph unicode="f" glyph-name="f" horiz-adv-x="271" d="M388 707L371 649Q352 658 323 658Q235 658 208 506L204 483H312L301 425H192L111 0H40L121 425H56L67 483H132L137 509Q158 626 215 678Q260 720 325 720Q367 720 388 707Z"/>
<glyph unicode="g" glyph-name="g" horiz-adv-x="509" d="M480 461L405 60Q376 -97 310 -155Q250 -208 147 -208Q57 -208 8 -174L29 -117Q79 -149 154 -149Q290 -149 329 28L346 106H344Q281 -1 175 -1Q108 -1 68 50Q33 96 33 164Q33 293 114 390Q201 493 332 493Q412 493 480 461ZM400 418Q366 435 318 435Q229 435 166 352Q108 275 108 178Q107 58 202 58Q255 58 306 117Q354 175 368 248L400 418Z"/>
<glyph unicode="h" glyph-name="h" horiz-adv-x="519" d="M467 367Q467 327 459 286L404 0H332L386 284Q393 318 393 351Q393 433 316 433Q265 433 215 381Q162 326 147 247L101 0H29L164 709H236L175 395H177Q244 493 349 493Q395 493 427 466Q467 432 467 367Z"/>
<glyph unicode="i" glyph-name="i" horiz-adv-x="219" d="M233 630Q233 607 218 592T179 577Q135 577 135 627Q135 648 150 664T187 680Q233 680 233 630ZM193 483L101 0H29L122 483H193Z"/>
<glyph unicode="j" glyph-name="j" horiz-adv-x="216" d="M233 630Q233 607 218 592T178 577Q134 577 134 627Q134 648 149 664T186 680Q233 680 233 630ZM197 483L105 -1Q82 -120 45 -162Q4 -208 -62 -208Q-95 -208 -114 -202L-105 -145Q-90 -149 -66 -149Q5 -149 29 -21L125 483H197Z"/>
<glyph unicode="k" glyph-name="k" horiz-adv-x="436" d="M461 483L252 284L395 0H316L197 243L137 189L101 0H30L164 709H236L151 262H153Q174 286 197 309L372 483H461Z"/>
<glyph unicode="l" glyph-name="l" horiz-adv-x="219" d="M237 709L101 0H29L164 709H237Z"/>
<glyph unicode="m" glyph-name="m" horiz-adv-x="789" d="M737 369Q737 330 729 287L675 0H604L657 283Q665 321 665 347Q665 433 590 433Q542 433 497 384Q449 332 434 253L387 0H317L372 288Q378 323 378 349Q378 433 304 433Q257 433 209 379T146 249L100 0H29L94 343Q107 411 116 483H180L167 391H169Q237 493 337 493Q441 493 447 385Q513 492 623 493Q668 494 700 465Q737 432 737 369Z"/>
<glyph unicode="n" glyph-name="n" horiz-adv-x="520" d="M467 362Q467 330 458 284L404 0H332L386 283Q393 319 393 347Q393 433 315 433Q265 433 216 381Q161 325 146 240L101 0H29L94 343Q107 411 116 483H181L169 387H171Q238 493 348 493Q396 493 428 465Q467 430 467 362Z"/>
<glyph unicode="o" glyph-name="o" horiz-adv-x="506" d="M476 295Q476 179 405 88Q329 -11 215 -11Q132 -11 82 46Q35 100 35 185Q35 303 104 394Q181 493 295 493Q380 493 430 436Q476 382 476 295ZM401 296Q401 354 373 392Q343 435 286 435Q206 435 153 349Q108 274 108 188Q108 130 136 91Q168 47 224 47Q302 47 355 136Q401 213 401 296Z"/>
<glyph unicode="p" glyph-name="p" horiz-adv-x="511" d="M481 323Q481 193 400 93Q317 -11 201 -11Q137 -11 98 11H96L57 -198H-15L82 314Q97 388 110 484H176L162 389H164Q234 493 337 493Q409 493 447 440Q481 394 481 323ZM406 318Q406 364 385 395Q360 433 311 433Q258 433 208 377Q153 316 135 217L109 74Q144 47 203 47Q284 47 346 134Q406 218 406 318Z"/>
<glyph unicode="q" glyph-name="q" horiz-adv-x="509" d="M479 462L354 -198H282L340 90H338Q309 42 264 16T171 -11Q104 -11 66 41Q32 88 32 161Q32 289 114 388Q202 493 332 493Q415 493 479 462ZM400 417Q370 435 318 435Q233 435 170 356T107 170Q107 114 130 82T192 49Q251 49 302 108Q352 164 366 241L400 417Z"/>
<glyph unicode="r" glyph-name="r" horiz-adv-x="305" d="M334 492L320 420Q311 422 298 422Q247 422 203 364T143 221L101 0H29L89 316Q101 380 113 483H177Q173 449 163 378H166Q221 493 311 493Q325 493 334 492Z"/>
<glyph unicode="s" glyph-name="s" horiz-adv-x="359" d="M337 470L316 414Q280 436 236 436Q197 436 172 414T147 358Q147 312 213 273Q299 223 299 147Q299 74 249 32T123 -10Q50 -10 9 22L31 76Q78 47 129 47Q172 47 198 71T225 132Q225 187 158 226Q75 274 75 348Q75 409 122 451T242 493Q304 493 337 470Z"/>
<glyph unicode="t" glyph-name="t" horiz-adv-x="302" d="M326 483L314 426H198L151 177Q142 125 142 98Q142 51 187 51Q212 51 226 55L224 -2Q202 -10 164 -10Q115 -10 90 17Q68 41 68 80Q68 115 78 170L127 426H58L69 483H139L155 571L232 596L210 483H326Z"/>
<glyph unicode="u" glyph-name="u" horiz-adv-x="512" d="M485 483L419 140Q406 69 399 0H333L346 92H344Q276 -11 176 -11Q51 -11 51 127Q51 159 60 206L113 483H185L132 209Q124 165 124 137Q124 51 203 51Q252 51 300 100Q350 153 365 229L413 483H485Z"/>
<glyph unicode="v" glyph-name="v" horiz-adv-x="438" d="M468 483L203 0H133L53 483H126L168 197Q181 109 183 81H186Q197 109 236 191L390 483H468Z"/>
<glyph unicode="w" glyph-name="w" horiz-adv-x="692" d="M719 483L482 0H416L382 278Q374 342 375 402H373Q357 362 318 280L172 0H105L62 483H133L152 200Q156 133 155 75H157Q180 136 209 191L358 483H422L454 196Q463 118 462 75H465Q477 111 509 192L646 483H719Z"/>
<glyph unicode="x" glyph-name="x" horiz-adv-x="423" d="M454 483L253 247L365 0H287L237 114Q216 162 202 200H199Q185 177 150 127L48 0H-36L173 248L64 483H142L191 372Q202 345 222 295H225Q240 317 278 368L371 483H454Z"/>
<glyph unicode="y" glyph-name="y" horiz-adv-x="425" d="M453 483L271 111Q187 -61 109 -140Q43 -205 -25 -221L-44 -159Q9 -140 45 -111Q102 -65 139 5Q145 14 142 27L49 483H123L172 214Q180 169 194 85H196Q219 141 248 205L376 483H453Z"/>
<glyph unicode="z" glyph-name="z" horiz-adv-x="401" d="M424 483L415 434L173 160Q128 109 79 62L78 59H348L336 0H-22L-14 45L231 322Q264 360 326 420V423H77L89 483H424Z"/>
<glyph unicode="{" glyph-name="braceleft" horiz-adv-x="277" d="M327 686L317 637H299Q226 637 208 549Q203 523 201 474Q199 422 195 397Q180 307 107 288V286Q158 272 158 216Q158 177 132 104T106 2Q106 -63 167 -63H184L175 -112H159Q107 -112 76 -86T45 -11Q45 29 72 103T99 211Q99 266 33 265L41 311Q119 311 134 386Q139 414 142 470T150 556Q174 686 306 686H327Z"/>
<glyph unicode="|" glyph-name="bar" horiz-adv-x="211" d="M151 -250H95V750H151V-250Z"/>
<glyph unicode="}" glyph-name="braceright" horiz-adv-x="277" d="M257 309L248 263Q171 263 156 188Q151 160 148 104T139 18Q115 -112 -16 -112H-37L-28 -63H-10Q64 -63 82 25Q87 51 89 101T95 177Q110 267 183 286V288Q132 303 132 359Q132 394 158 467T184 572Q184 637 123 637H106L115 686H131Q183 686 214 660T245 585Q245 543 218 470T191 363Q191 308 257 309Z"/>
<glyph unicode="~" glyph-name="asciitilde" horiz-adv-x="596" d="M550 354Q553 281 519 244Q489 213 438 213Q385 213 300 256Q219 298 178 298Q122 298 121 216H67Q64 282 97 319T181 356Q232 356 314 314T440 272Q496 272 497 354H550Z"/>
<glyph unicode=" " glyph-name="nbspace" horiz-adv-x="179"/>
<glyph unicode="¡" glyph-name="exclamdown" horiz-adv-x="228" d="M206 434Q206 409 190 391T149 373Q126 373 113 388T99 428Q99 453 115 470T157 488Q179 488 192 472T206 434ZM154 287L74 -195H-9L95 287H154Z"/>
<glyph unicode="¢" glyph-name="cent" horiz-adv-x="477" d="M464 548L438 493Q398 516 343 516Q271 516 215 447Q156 376 156 278Q156 219 188 182T280 145Q331 145 382 168L390 113Q347 88 279 87L260 -14H205L225 88Q153 100 114 155Q80 202 80 273Q80 385 150 471T321 571L340 672H394L375 573Q432 573 464 548Z"/>
<glyph unicode="£" glyph-name="sterling" horiz-adv-x="477" d="M474 639L452 582Q420 600 378 600Q274 600 253 474Q245 424 244 356H391L381 301H242Q239 256 231 218Q210 123 134 65V62H425L414 0H24L33 46Q81 69 116 115T164 215Q171 244 173 301H84L95 356H175Q176 433 186 482Q203 566 255 613T387 661Q440 661 474 639Z"/>
<glyph unicode="¤" glyph-name="currency" horiz-adv-x="477" d="M479 520L404 452Q439 404 439 333Q439 258 405 211L478 141L438 99L370 173Q326 130 256 130Q185 130 144 170L79 99L38 141L109 208Q73 258 73 328Q73 401 111 452L37 520L79 563L146 490Q188 531 257 531Q328 531 370 490L440 563L479 520ZM379 332Q379 392 349 433Q315 477 256 477Q199 477 165 431Q135 390 135 330Q135 271 166 230Q200 184 257 184Q317 184 350 229Q379 269 379 332Z"/>
<glyph unicode="¥" glyph-name="yen" horiz-adv-x="477" d="M538 650L312 344H433L424 299H279L264 224H409L401 180H256L222 0H154L187 180H44L52 224H196L210 299H66L75 344H198L98 650H171L232 438Q246 391 255 348H258Q286 401 314 440L459 650H538Z"/>
<glyph unicode="¦" glyph-name="brokenbar" horiz-adv-x="211" d="M151 325H95V675H151V325ZM151 -175H95V175H151V-175Z"/>
<glyph unicode="§" glyph-name="section" horiz-adv-x="486" d="M460 651L437 602Q390 632 329 632Q284 632 253 608T221 547Q221 516 246 494Q265 477 321 451Q441 394 441 311Q441 227 353 170Q376 142 376 99Q376 23 317 -20Q265 -58 187 -58Q97 -58 46 -19L69 32Q129 -6 191 -6Q242 -6 275 20T308 88Q308 145 210 192Q79 255 79 333Q79 416 177 472Q154 501 154 536Q154 602 209 644Q261 684 338 684Q414 684 460 651ZM376 296Q376 352 299 393Q267 409 210 443Q144 408 144 352Q144 318 166 295Q184 276 227 255Q289 224 317 202Q376 238 376 296Z"/>
<glyph unicode="¨" glyph-name="dieresis" horiz-adv-x="377" d="M393 611Q393 589 380 575T344 561Q325 561 313 574T301 607Q301 627 315 641T349 656Q369 656 381 643T393 611ZM217 611Q217 589 204 575T168 561Q149 561 137 574T125 607Q125 627 139 641T173 656Q193 656 205 643T217 611Z"/>
<glyph unicode="©" glyph-name="copyright" horiz-adv-x="676" d="M666 340Q666 212 580 121T367 30Q239 30 152 121T65 340Q65 468 152 558T368 648Q494 648 580 558T666 340ZM620 340Q620 451 550 529Q477 609 367 609Q256 609 185 529T113 337Q113 226 185 148T368 69Q478 69 551 150Q620 228 620 340ZM507 185Q461 153 383 153Q299 153 250 204T201 334Q201 416 258 470Q313 520 391 520Q471 520 501 493L490 455Q451 480 392 480Q323 480 287 440T250 337Q250 275 286 236Q325 193 393 193Q456 193 495 221L507 185Z"/>
<glyph unicode="ª" glyph-name="ordfeminine" horiz-adv-x="338" d="M359 575L322 367Q314 324 314 266H261Q261 297 266 332L264 331Q220 261 150 261Q108 261 83 292T58 375Q58 461 112 523Q171 591 267 591Q319 591 359 575ZM298 539Q279 546 251 546Q196 546 157 499T117 383Q116 308 172 308Q206 308 237 342T277 424L298 539Z"/>
<glyph unicode="«" glyph-name="guillemotleft" horiz-adv-x="397" d="M405 434L254 250L355 70H295L191 252L340 434H405ZM248 434L96 250L198 70H137L34 252L182 434H248Z"/>
<glyph unicode="¬" glyph-name="logicalnot" horiz-adv-x="596" d="M551 122H495V342H52V395H551V122Z"/>
<glyph unicode="­" glyph-name="minus" horiz-adv-x="596" d="M557 240H57V294H557V240Z"/>
<glyph unicode="®" glyph-name="registered" horiz-adv-x="509" d="M523 458Q523 364 460 298T303 232Q209 232 145 298T81 458Q81 552 145 617T304 683Q396 683 459 617T523 458ZM484 458Q484 536 432 593T302 650Q226 650 174 593T122 458Q122 380 174 323T304 265Q381 265 432 322T484 458ZM401 327H361Q352 339 343 392Q335 436 288 436H260V327H222V578Q266 584 291 584Q343 584 367 566T391 513Q391 467 342 452V450Q377 444 385 389Q392 344 401 327ZM351 509Q351 554 289 554Q273 554 260 553V465H289Q351 465 351 509Z"/>
<glyph unicode="¯" glyph-name="overscore" horiz-adv-x="377" d="M372 633L363 584H150L159 633H372Z"/>
<glyph unicode="°" glyph-name="degree" horiz-adv-x="309" d="M346 562Q346 509 309 470T217 430Q165 430 130 466T94 555Q94 609 132 647T223 686Q276 686 311 651T346 562ZM298 561Q298 596 277 619T221 643Q188 643 167 617T145 556Q145 522 166 498T220 473Q254 473 276 499T298 561Z"/>
<glyph unicode="±" glyph-name="plusminus" horiz-adv-x="596" d="M558 319H336V114H281V319H59V372H281V570H336V372H558V319ZM558 0H59V53H558V0Z"/>
<glyph unicode="²" glyph-name="twosuperior" horiz-adv-x="328" d="M348 561Q348 508 296 450Q265 415 181 347L143 317V315H312L302 266H48L55 302L126 360Q208 427 239 462Q283 512 283 555Q283 611 222 611Q181 611 139 581L124 621Q177 661 239 661Q291 661 319 633T348 561Z"/>
<glyph unicode="³" glyph-name="threesuperior" horiz-adv-x="317" d="M335 576Q335 507 247 478V476Q278 468 297 444T316 387Q315 331 272 296T157 261Q90 261 53 288L74 331Q111 307 158 307Q202 307 228 330T254 386Q254 420 225 438Q200 454 162 454H142L150 495H171Q208 495 240 515T272 567Q272 615 215 615Q172 615 136 587L126 628Q170 661 231 661Q281 661 310 635Q335 612 335 576Z"/>
<glyph unicode="´" glyph-name="acute" horiz-adv-x="377" d="M393 683L261 542H204L302 683H393Z"/>
<glyph unicode="µ" glyph-name="mu" horiz-adv-x="506" d="M482 483L417 140Q403 68 397 0H332L343 88H341Q273 -10 185 -10Q118 -10 100 47H98L55 -198H-15L115 483H187L135 208Q127 169 128 141Q128 51 206 51Q255 51 301 99T359 213L410 483H482Z"/>
<glyph unicode="¶" glyph-name="paragraph" horiz-adv-x="481" d="M478 666L341 -51H287L415 622H344L215 -51H161L222 264Q157 267 115 319Q75 368 75 435Q75 539 153 605Q235 674 376 674Q444 674 478 666Z"/>
<glyph unicode="·" glyph-name="middot" horiz-adv-x="202" d="M162 278Q162 252 146 235T104 217Q82 217 68 233T54 272Q54 297 70 315T111 333Q134 333 148 317T162 278Z"/>
<glyph unicode="¸" glyph-name="cedilla" horiz-adv-x="377" d="M194 -115Q194 -154 164 -177T89 -200Q48 -200 25 -183L43 -143Q65 -157 94 -157Q139 -157 139 -120Q139 -87 74 -80L133 2H181L141 -52Q194 -64 194 -115Z"/>
<glyph unicode="¹" glyph-name="onesuperior" horiz-adv-x="295" d="M272 656L198 266H138L202 600H200L129 567L123 612L219 656H272Z"/>
<glyph unicode="º" glyph-name="ordmasculine" horiz-adv-x="336" d="M358 457Q358 378 310 321Q260 261 182 261Q125 261 89 298T53 392Q53 471 100 529Q150 591 227 591Q287 591 322 555T358 457ZM299 460Q299 546 221 546Q171 546 140 492Q113 447 113 394Q113 356 132 331T188 306Q240 306 272 359Q299 405 299 460Z"/>
<glyph unicode="»" glyph-name="guillemotright" horiz-adv-x="396" d="M379 252L231 70H165L316 255L215 434H275L379 252ZM221 252L73 70H7L159 255L58 434H118L221 252Z"/>
<glyph unicode="¼" glyph-name="onequarter" horiz-adv-x="731" d="M682 150L674 105H616L596 0H538L558 105H369L376 140L608 395H671L625 150H682ZM632 661L148 -11H91L575 661H632ZM263 656L188 266H128L192 600H190L119 567L113 612L209 656H263ZM605 336H603Q589 316 560 279L443 151V150H566L590 274Q594 298 605 336Z"/>
<glyph unicode="½" glyph-name="onehalf" horiz-adv-x="731" d="M686 296Q686 242 635 184Q604 149 519 82L482 51V49H650L640 0H387L393 36L464 94Q547 162 578 196Q622 246 622 289Q622 345 560 345Q519 345 478 315L463 355Q516 395 578 395Q629 395 659 366Q686 338 686 296ZM614 661L129 -11H73L558 661H614ZM259 656L184 266H124L188 600H186L115 567L109 612L205 656H259Z"/>
<glyph unicode="¾" glyph-name="threequarters" horiz-adv-x="731" d="M693 150L685 105H627L607 0H548L568 105H379L386 140L619 395H682L635 150H693ZM666 661L182 -11H125L609 661H666ZM324 576Q324 507 236 478L235 476Q267 468 286 444T305 387Q304 331 261 296T146 261Q79 261 42 288L63 331Q99 307 147 307Q191 307 218 331Q242 353 242 386Q242 420 216 437T151 454H131L139 495H159Q197 495 229 515T261 567Q261 615 203 615Q161 615 125 587L114 628Q158 661 220 661Q270 661 297 637T324 576ZM615 336H613Q600 316 571 279L453 151L454 150H577L600 274Q605 298 615 336Z"/>
<glyph unicode="¿" glyph-name="questiondown" horiz-adv-x="370" d="M306 433Q306 408 290 391T249 373Q226 373 213 388T199 427Q199 453 215 470T257 487Q279 487 292 472T306 433ZM263 -175Q203 -209 136 -209Q67 -209 30 -167Q-2 -132 -2 -80Q-2 -25 35 29Q46 44 111 118Q159 173 175 215Q183 237 187 262L191 290H261Q255 224 233 178T160 79Q74 -11 74 -73Q74 -147 152 -147Q205 -147 249 -120L263 -175Z"/>
<glyph unicode="À" glyph-name="Agrave" horiz-adv-x="550" d="M386 710H327L218 826H310L386 710ZM494 0H421L393 219H160L50 0H-26L321 674H403L494 0ZM387 277L360 479Q356 514 349 603H346Q329 562 291 480L187 277H387Z"/>
<glyph unicode="Á" glyph-name="Aacute" horiz-adv-x="550" d="M518 826L381 710H317L420 826H518ZM494 0H421L393 219H160L50 0H-26L321 674H403L494 0ZM387 277L360 479Q356 514 349 603H346Q329 562 291 480L187 277H387Z"/>
<glyph unicode="Â" glyph-name="Acircumflex" horiz-adv-x="550" d="M484 710H424L374 785H372L298 710H232L350 826H405L484 710ZM494 0H421L393 219H160L50 0H-26L321 674H403L494 0ZM387 277L360 479Q356 514 349 603H346Q329 562 291 480L187 277H387Z"/>
<glyph unicode="Ã" glyph-name="Atilde" horiz-adv-x="550" d="M487 812Q481 721 417 721Q391 721 358 740T313 759Q290 758 283 716H241Q243 757 261 783T309 809Q337 809 370 789Q398 771 415 771Q440 771 445 812H487ZM494 0H421L393 219H160L50 0H-26L321 674H403L494 0ZM387 277L360 479Q356 514 349 603H346Q329 562 291 480L187 277H387Z"/>
<glyph unicode="Ä" glyph-name="Adieresis" horiz-adv-x="550" d="M503 771Q503 751 489 737T455 722Q437 722 425 735T412 767Q412 787 426 801T460 816Q478 816 490 803T503 771ZM326 771Q326 751 312 737T277 722Q259 722 247 735T235 767Q235 787 249 801T282 816Q301 816 313 803T326 771ZM494 0H421L393 219H160L50 0H-26L321 674H403L494 0ZM387 277L360 479Q356 514 349 603H346Q329 562 291 480L187 277H387Z"/>
<glyph unicode="Å" glyph-name="Aring" horiz-adv-x="552" d="M492 0H419L391 219H157L47 0H-28L312 661Q270 684 270 729Q270 771 299 799T374 827Q420 827 444 803T468 741Q468 712 451 689T404 657L492 0ZM419 738Q419 794 372 794Q320 794 320 733Q320 712 333 696T368 680Q390 680 404 698T419 738ZM384 277L357 480Q354 505 345 605H343Q310 527 287 481L183 277H384Z"/>
<glyph unicode="Æ" glyph-name="AE" horiz-adv-x="746" d="M752 674L740 612H494L468 382H702L690 320H463L435 62H688L676 0H360L386 246H188L25 0H-51L394 674H752ZM428 619H424Q387 554 358 510L225 306H392L415 507Q419 546 428 619Z"/>
<glyph unicode="Ç" glyph-name="Ccedilla" horiz-adv-x="540" d="M577 653L553 594Q507 622 424 622Q312 622 229 543Q180 497 152 426T124 278Q124 177 169 119Q221 52 327 52Q411 52 469 82L479 22Q415 -7 332 -10L301 -51Q353 -64 353 -115Q353 -154 322 -176T249 -199Q208 -199 185 -182L202 -142Q225 -156 252 -156Q297 -156 297 -120Q297 -86 233 -80L285 -9Q172 -1 110 73T48 266Q48 360 83 445Q120 534 187 592Q293 684 437 684Q538 684 577 653Z"/>
<glyph unicode="È" glyph-name="Egrave" horiz-adv-x="454" d="M377 710H319L209 826H301L377 710ZM488 674L476 612H220L177 384H418L406 322H165L116 62H387L375 0H32L160 674H488Z"/>
<glyph unicode="É" glyph-name="Eacute" horiz-adv-x="454" d="M487 826L349 710H285L388 826H487ZM488 674L476 612H220L177 384H418L406 322H165L116 62H387L375 0H32L160 674H488Z"/>
<glyph unicode="Ê" glyph-name="Ecircumflex" horiz-adv-x="454" d="M455 710H394L344 785H342L269 710H202L320 826H375L455 710ZM488 674L476 612H220L177 384H418L406 322H165L116 62H387L375 0H32L160 674H488Z"/>
<glyph unicode="Ë" glyph-name="Edieresis" horiz-adv-x="454" d="M474 771Q474 751 460 737T426 722Q408 722 396 735T383 767Q383 787 397 801T431 816Q449 816 461 803T474 771ZM297 771Q297 751 283 737T249 722Q230 722 218 735T206 767Q206 787 220 801T253 816Q272 816 284 803T297 771ZM488 674L476 612H220L177 384H418L406 322H165L116 62H387L375 0H32L160 674H488Z"/>
<glyph unicode="Ì" glyph-name="Igrave" horiz-adv-x="224" d="M248 710H190L80 826H172L248 710ZM231 674L103 0H31L159 674H231Z"/>
<glyph unicode="Í" glyph-name="Iacute" horiz-adv-x="224" d="M352 826L214 710H150L253 826H352ZM231 674L103 0H31L159 674H231Z"/>
<glyph unicode="Î" glyph-name="Icircumflex" horiz-adv-x="224" d="M320 710H259L209 785H207L134 710H68L186 826H241L320 710ZM231 674L103 0H31L159 674H231Z"/>
<glyph unicode="Ï" glyph-name="Idieresis" horiz-adv-x="224" d="M344 771Q344 751 330 737T296 722Q277 722 265 735T253 767Q253 787 267 801T301 816Q319 816 331 803T344 771ZM167 771Q167 751 153 737T118 722Q100 722 88 735T75 767Q75 787 89 801T123 816Q142 816 154 803T167 771ZM231 674L103 0H31L159 674H231Z"/>
<glyph unicode="Ð" glyph-name="Eth" horiz-adv-x="633" d="M624 414Q624 321 587 235Q549 145 485 90Q373 -3 194 -3Q105 -3 39 5L99 323H14L27 383H111L164 665Q244 678 328 678Q489 678 566 589Q623 521 624 414ZM547 411Q547 619 320 619Q261 619 227 613L183 383H351L339 323H171L121 62Q158 57 213 57Q357 57 448 148Q547 247 547 411Z"/>
<glyph unicode="Ñ" glyph-name="Ntilde" horiz-adv-x="614" d="M531 812Q525 721 461 721Q435 721 402 740T357 759Q334 758 328 716H285Q287 757 305 783T353 809Q381 809 414 789Q442 771 459 771Q484 771 489 812H531ZM623 674L494 0H424L267 398Q226 501 207 587L204 585Q193 492 170 370L100 0H32L160 674H237L396 273Q429 188 453 92L455 93Q461 186 483 299L554 674H623Z"/>
<glyph unicode="Ò" glyph-name="Ograve" horiz-adv-x="646" d="M450 710H391L281 826H374L450 710ZM637 413Q637 326 607 239Q576 148 521 89Q429 -11 293 -11Q179 -11 113 63T47 258Q47 348 79 437T169 588Q260 685 393 685Q518 685 582 601Q637 528 637 413ZM561 410Q561 623 382 623Q273 623 194 503Q122 393 122 265Q122 168 166 112Q213 51 302 51Q413 51 491 176Q561 287 561 410Z"/>
<glyph unicode="Ó" glyph-name="Oacute" horiz-adv-x="646" d="M566 826L429 710H365L468 826H566ZM637 413Q637 326 607 239Q576 148 521 89Q429 -11 293 -11Q179 -11 113 63T47 258Q47 348 79 437T169 588Q260 685 393 685Q518 685 582 601Q637 528 637 413ZM561 410Q561 623 382 623Q273 623 194 503Q122 393 122 265Q122 168 166 112Q213 51 302 51Q413 51 491 176Q561 287 561 410Z"/>
<glyph unicode="Ô" glyph-name="Ocircumflex" horiz-adv-x="646" d="M535 710H474L424 785H422L349 710H283L401 826H456L535 710ZM637 413Q637 326 607 239Q576 148 521 89Q429 -11 293 -11Q179 -11 113 63T47 258Q47 348 79 437T169 588Q260 685 393 685Q518 685 582 601Q637 528 637 413ZM561 410Q561 623 382 623Q273 623 194 503Q122 393 122 265Q122 168 166 112Q213 51 302 51Q413 51 491 176Q561 287 561 410Z"/>
<glyph unicode="Õ" glyph-name="Otilde" horiz-adv-x="646" d="M541 812Q535 721 472 721Q445 721 412 740T367 759Q344 758 338 716H295Q298 757 316 783T364 809Q392 809 424 789Q453 771 469 771Q494 771 500 812H541ZM637 413Q637 326 607 239Q576 148 521 89Q429 -11 293 -11Q179 -11 113 63T47 258Q47 348 79 437T169 588Q260 685 393 685Q518 685 582 601Q637 528 637 413ZM561 410Q561 623 382 623Q273 623 194 503Q122 393 122 265Q122 168 166 112Q213 51 302 51Q413 51 491 176Q561 287 561 410Z"/>
<glyph unicode="Ö" glyph-name="Odieresis" horiz-adv-x="646" d="M555 771Q555 751 541 737T507 722Q488 722 476 735T464 767Q464 787 478 801T511 816Q530 816 542 803T555 771ZM378 771Q378 751 364 737T329 722Q311 722 299 735T286 767Q286 787 300 801T334 816Q353 816 365 803T378 771ZM637 413Q637 326 607 239Q576 148 521 89Q429 -11 293 -11H292Q172 -11 106 73Q47 146 47 258Q47 348 79 437T169 588Q260 685 393 685Q518 685 582 601Q637 528 637 413ZM561 410Q561 623 382 623Q273 623 194 503Q122 393 122 265Q122 174 162 117Q209 51 301 51H302Q407 51 486 169Q561 280 561 410Z"/>
<glyph unicode="×" glyph-name="multiply" horiz-adv-x="596" d="M561 40L521 0L312 226L104 0L67 41L275 263L67 486L106 526L314 300L522 526L561 487L351 263L561 40Z"/>
<glyph unicode="Ø" glyph-name="Oslash" horiz-adv-x="645" d="M669 678L590 587Q636 519 636 415Q636 325 605 237Q572 145 518 87Q426 -11 295 -11Q193 -11 131 49L55 -38L19 -4L96 85Q47 159 47 263Q47 353 79 440T167 586Q262 685 392 685Q496 685 555 626L629 710L669 678ZM511 572Q467 624 383 624Q265 624 189 505Q122 400 122 275Q122 206 146 147H148L511 572ZM540 265Q561 333 561 399Q561 466 539 522H536L176 101Q222 50 306 50Q382 50 446 110T540 265Z"/>
<glyph unicode="Ù" glyph-name="Ugrave" horiz-adv-x="603" d="M438 710H380L270 826H363L438 710ZM612 674L534 265Q481 -11 262 -11Q178 -11 129 35Q74 85 74 182Q74 227 83 274L159 674H231L154 269Q146 224 146 184Q146 119 180 85T272 51Q421 51 462 268L540 674H612Z"/>
<glyph unicode="Ú" glyph-name="Uacute" horiz-adv-x="603" d="M539 826L402 710H338L441 826H539ZM612 674L534 265Q481 -11 262 -11Q178 -11 129 35Q74 85 74 182Q74 227 83 274L159 674H231L154 269Q146 224 146 184Q146 119 180 85T272 51Q421 51 462 268L540 674H612Z"/>
<glyph unicode="Û" glyph-name="Ucircumflex" horiz-adv-x="603" d="M520 710H460L410 785H408L334 710H268L386 826H441L520 710ZM612 674L534 265Q481 -11 262 -11Q178 -11 129 35Q74 85 74 182Q74 227 83 274L159 674H231L154 269Q146 224 146 184Q146 119 180 85T272 51Q421 51 462 268L540 674H612Z"/>
<glyph unicode="Ü" glyph-name="Udieresis" horiz-adv-x="603" d="M535 771Q535 751 521 737T486 722Q468 722 456 735T444 767Q444 787 458 801T491 816Q510 816 522 803T535 771ZM358 771Q358 751 344 737T309 722Q291 722 279 735T266 767Q266 787 280 801T314 816Q333 816 345 803T358 771ZM612 674L534 265Q481 -11 262 -11Q178 -11 129 35Q74 85 74 182Q74 227 83 274L159 674H231L154 269Q146 224 146 184Q146 119 180 85T272 51Q421 51 462 268L540 674H612Z"/>
<glyph unicode="Ý" glyph-name="Yacute" horiz-adv-x="500" d="M487 826L349 710H285L388 826H487ZM566 674L284 282L231 0H159L213 281L87 674H164L230 449Q250 383 258 338H260Q280 371 332 453L482 674H566Z"/>
<glyph unicode="Þ" glyph-name="Thorn" horiz-adv-x="490" d="M476 386Q476 279 395 215Q319 156 207 156Q164 156 133 161L102 0H32L160 674H231L205 540Q239 548 285 548Q385 548 435 496Q476 453 476 386ZM404 377Q404 489 268 489Q222 489 194 481L145 222Q177 216 214 216Q292 216 348 261T404 377Z"/>
<glyph unicode="ß" glyph-name="germandbls" horiz-adv-x="523" d="M504 581Q504 514 463 473Q375 442 375 378Q375 342 412 293Q463 225 463 163Q463 84 408 37T270 -11Q211 -11 174 12L194 67Q230 47 272 47Q322 47 355 77T389 156Q389 203 351 251Q301 315 301 363Q301 456 409 503Q432 526 432 576Q432 611 412 634Q389 660 344 660Q227 660 192 475L101 0H29L117 462Q166 720 355 720Q424 720 464 681T504 581Z"/>
<glyph unicode="à" glyph-name="agrave" horiz-adv-x="507" d="M376 542H325L226 683H311L376 542ZM481 476L432 223Q408 96 412 0H344Q344 35 355 127H353Q281 -11 166 -11Q105 -11 69 33T32 146Q32 280 119 382Q214 493 359 493Q427 493 481 476ZM400 428Q379 435 342 435Q246 435 177 351T107 159Q106 49 190 49Q246 49 299 114T371 274L400 428Z"/>
<glyph unicode="á" glyph-name="aacute" horiz-adv-x="507" d="M486 683L354 542H298L396 683H486ZM481 476L432 223Q408 96 412 0H344Q344 35 355 127H353Q281 -11 166 -11Q105 -11 69 33T32 146Q32 280 119 382Q214 493 359 493Q427 493 481 476ZM400 428Q379 435 342 435Q246 435 177 351T107 159Q106 49 190 49Q246 49 299 114T371 274L400 428Z"/>
<glyph unicode="â" glyph-name="acircumflex" horiz-adv-x="507" d="M441 542H385L343 637H341L270 542H209L323 683H374L441 542ZM481 476L432 223Q408 96 412 0H344Q344 35 355 127H353Q281 -11 166 -11Q105 -11 69 33T32 146Q32 280 119 382Q214 493 359 493Q427 493 481 476ZM400 428Q379 435 342 435Q246 435 177 351T107 159Q106 49 190 49Q246 49 299 114T371 274L400 428Z"/>
<glyph unicode="ã" glyph-name="atilde" horiz-adv-x="507" d="M451 660Q444 569 382 569Q355 569 323 589Q295 607 281 607Q259 607 252 563H209Q212 604 230 630T279 657Q301 657 339 635Q368 618 380 618Q403 618 409 660H451ZM481 476L432 223Q408 96 412 0H344Q344 35 355 127H353Q281 -11 166 -11Q105 -11 69 33T32 146Q32 280 119 382Q214 493 359 493Q427 493 481 476ZM400 428Q379 435 342 435Q246 435 177 351T107 159Q106 49 190 49Q246 49 299 114T371 274L400 428Z"/>
<glyph unicode="ä" glyph-name="adieresis" horiz-adv-x="507" d="M463 611Q463 589 450 575T415 561Q396 561 384 574T372 607Q372 627 386 641T420 656Q439 656 451 643T463 611ZM287 611Q287 589 274 575T239 561Q220 561 208 574T196 607Q196 627 210 641T244 656Q263 656 275 643T287 611ZM481 476L432 223Q408 96 412 0H344Q344 35 355 127H353Q281 -11 166 -11Q105 -11 69 33T32 146Q32 280 119 382Q214 493 359 493Q427 493 481 476ZM400 428Q379 435 342 435Q246 435 177 351T107 159Q106 49 190 49Q246 49 299 114T371 274L400 428Z"/>
<glyph unicode="å" glyph-name="aring" horiz-adv-x="507" d="M428 627Q428 587 399 561T328 534Q289 534 262 558T234 620Q234 663 263 690T335 717Q376 717 402 692T428 627ZM481 476L432 223Q408 96 412 0H344Q344 35 355 127H353Q281 -11 166 -11Q105 -11 69 33T32 146Q32 280 119 382Q214 493 359 493Q427 493 481 476ZM382 628Q382 651 369 666T332 681Q309 681 296 664T282 622Q282 601 295 585T330 569Q354 569 368 586T382 628ZM400 428Q379 435 342 435Q246 435 177 351T107 159Q106 49 190 49Q246 49 299 114T371 274L400 428Z"/>
<glyph unicode="æ" glyph-name="ae" horiz-adv-x="698" d="M686 382Q686 300 609 265Q547 237 424 237Q399 237 370 239Q364 204 364 177Q364 143 374 117Q400 49 484 49Q548 49 611 82L622 29Q559 -11 470 -11Q412 -11 371 18T315 98H313Q254 -11 134 -11Q74 -11 38 26Q6 59 6 111Q6 204 93 255Q177 304 315 299L319 320Q321 331 321 342Q321 381 300 407Q275 437 226 437Q164 437 105 400L89 449Q158 493 235 493Q355 493 371 389H373Q434 493 555 493Q617 493 653 459Q686 428 686 382ZM614 377Q614 405 593 421T543 437Q487 437 440 392Q397 351 381 293Q407 293 427 293Q505 293 543 303Q614 321 614 377ZM306 245Q220 250 159 225Q79 193 79 119Q79 86 98 67T152 48Q201 48 240 83Q283 121 295 188L306 245Z"/>
<glyph unicode="ç" glyph-name="ccedilla" horiz-adv-x="412" d="M420 471L399 413Q361 432 317 432Q226 432 165 351Q109 277 109 182Q109 122 139 86T230 50Q282 50 341 77L350 21Q294 -5 245 -8L213 -51Q266 -64 266 -116Q266 -153 235 -176T161 -199Q119 -199 97 -182L114 -142Q137 -157 166 -157Q211 -157 210 -119Q210 -86 146 -80L196 -9Q115 -4 72 51Q34 100 34 174Q34 300 114 394Q199 493 324 493Q386 493 420 471Z"/>
<glyph unicode="è" glyph-name="egrave" horiz-adv-x="437" d="M337 542H286L187 683H271L337 542ZM425 374Q425 213 108 218Q97 167 116 118Q144 49 224 49Q291 49 350 82L362 27Q297 -10 209 -10Q121 -10 75 47Q33 97 33 181Q33 296 105 391Q182 493 290 493Q354 493 391 458Q425 425 425 374ZM354 372V373Q354 436 280 436Q224 436 177 386Q135 341 116 274Q354 272 354 372Z"/>
<glyph unicode="é" glyph-name="eacute" horiz-adv-x="437" d="M437 683L305 542H248L346 683H437ZM425 374Q425 213 108 218Q97 167 116 118Q144 49 224 49Q291 49 350 82L362 27Q297 -10 209 -10Q121 -10 75 47Q33 97 33 181Q33 296 105 391Q182 493 290 493Q354 493 391 458Q425 425 425 374ZM354 372V373Q354 436 280 436Q224 436 177 386Q135 341 116 274Q354 272 354 372Z"/>
<glyph unicode="ê" glyph-name="ecircumflex" horiz-adv-x="437" d="M411 542H355L313 637H311L240 542H179L293 683H344L411 542ZM425 374Q425 213 108 218Q97 167 116 118Q144 49 224 49Q291 49 350 82L362 27Q297 -10 209 -10Q121 -10 75 47Q33 97 33 181Q33 296 105 391Q182 493 290 493Q354 493 391 458Q425 425 425 374ZM354 372V373Q354 436 280 436Q224 436 177 386Q135 341 116 274Q354 272 354 372Z"/>
<glyph unicode="ë" glyph-name="edieresis" horiz-adv-x="437" d="M439 611Q439 589 425 575T390 561Q371 561 359 574T347 607Q347 627 361 641T395 656Q414 656 426 643T439 611ZM263 611Q263 589 249 575T214 561Q195 561 183 574T171 607Q171 627 185 641T219 656Q238 656 250 643T263 611ZM425 374Q425 213 108 218Q97 167 116 118Q144 49 224 49Q291 49 350 82L362 27Q297 -10 209 -10Q121 -10 75 47Q33 97 33 181Q33 296 105 391Q182 493 290 493Q354 493 391 458Q425 425 425 374ZM354 372V373Q354 436 280 436Q224 436 177 386Q135 341 116 274Q354 272 354 372Z"/>
<glyph unicode="ì" glyph-name="igrave" horiz-adv-x="219" d="M202 542H151L52 683H137L202 542ZM193 483L101 0H29L122 483H193Z"/>
<glyph unicode="í" glyph-name="iacute" horiz-adv-x="219" d="M313 683L181 542H124L222 683H313ZM193 483L101 0H29L122 483H193Z"/>
<glyph unicode="î" glyph-name="icircumflex" horiz-adv-x="219" d="M279 542H223L181 637H179L108 542H47L161 683H212L279 542ZM193 483L101 0H29L122 483H193Z"/>
<glyph unicode="ï" glyph-name="idieresis" horiz-adv-x="219" d="M309 611Q309 589 296 575T261 561Q242 561 230 574T217 607Q217 627 231 641T265 656Q285 656 297 643T309 611ZM133 611Q133 589 120 575T84 561Q65 561 53 574T41 607Q41 627 55 641T89 656Q109 656 121 643T133 611ZM193 483L101 0H29L122 483H193Z"/>
<glyph unicode="ð" glyph-name="eth" horiz-adv-x="500" d="M481 657L370 605Q471 491 471 338Q471 186 393 85Q318 -11 214 -11Q125 -11 76 50Q34 102 34 181Q34 302 107 393T285 486Q355 487 390 437L393 438Q367 519 307 578L165 511L150 551L276 609Q243 644 188 674L224 719Q277 692 337 637L464 696L481 657ZM395 310Q395 363 367 396T286 430Q205 430 153 344Q108 269 108 183Q108 126 134 89Q164 47 219 47Q301 47 352 142Q395 220 395 310Z"/>
<glyph unicode="ñ" glyph-name="ntilde" horiz-adv-x="520" d="M444 660Q437 569 375 569Q347 569 318 588T274 607Q252 607 245 563H202Q205 604 223 630T271 657Q294 657 332 635Q361 618 373 618Q396 618 401 660H444ZM467 362Q467 330 458 284L404 0H332L386 283Q393 319 393 347Q393 433 315 433Q265 433 216 381Q161 325 146 240L101 0H29L94 343Q107 411 116 483H181L169 387H171Q238 493 348 493Q396 493 428 465Q467 430 467 362Z"/>
<glyph unicode="ò" glyph-name="ograve" horiz-adv-x="506" d="M355 542H304L205 683H290L355 542ZM476 295Q476 179 405 88Q329 -11 215 -11Q132 -11 82 46Q35 100 35 185Q35 303 104 394Q181 493 295 493Q380 493 430 436Q476 382 476 295ZM401 296Q401 354 373 392Q343 435 286 435Q206 435 153 349Q108 274 108 188Q108 130 136 91Q168 47 224 47Q302 47 355 136Q401 213 401 296Z"/>
<glyph unicode="ó" glyph-name="oacute" horiz-adv-x="506" d="M454 683L322 542H265L364 683H454ZM476 295Q476 179 405 88Q329 -11 215 -11Q132 -11 82 46Q35 100 35 185Q35 303 104 394Q181 493 295 493Q380 493 430 436Q476 382 476 295ZM401 296Q401 354 373 392Q343 435 286 435Q206 435 153 349Q108 274 108 188Q108 130 136 91Q168 47 224 47Q302 47 355 136Q401 213 401 296Z"/>
<glyph unicode="ô" glyph-name="ocircumflex" horiz-adv-x="506" d="M428 542H372L329 637H327L256 542H196L309 683H361L428 542ZM476 295Q476 179 405 88Q329 -11 215 -11Q132 -11 82 46Q35 100 35 185Q35 303 104 394Q181 493 295 493Q380 493 430 436Q476 382 476 295ZM401 296Q401 354 373 392Q343 435 286 435Q206 435 153 349Q108 274 108 188Q108 130 136 91Q168 47 224 47Q302 47 355 136Q401 213 401 296Z"/>
<glyph unicode="õ" glyph-name="otilde" horiz-adv-x="506" d="M429 660Q422 569 360 569Q333 569 301 589Q273 607 259 607Q237 607 231 563H188Q190 604 208 630T257 657Q279 657 317 635Q346 618 358 618Q381 618 387 660H429ZM476 295Q476 179 405 88Q329 -11 215 -11Q132 -11 82 46Q35 100 35 185Q35 303 104 394Q181 493 295 493Q380 493 430 436Q476 382 476 295ZM401 296Q401 354 373 392Q343 435 286 435Q206 435 153 349Q108 274 108 188Q108 130 136 91Q168 47 224 47Q302 47 355 136Q401 213 401 296Z"/>
<glyph unicode="ö" glyph-name="odieresis" horiz-adv-x="506" d="M456 611Q456 589 442 575T407 561Q388 561 376 574T364 607Q364 627 378 641T412 656Q431 656 443 643T456 611ZM280 611Q280 589 266 575T231 561Q212 561 200 574T188 607Q188 627 202 641T236 656Q255 656 267 643T280 611ZM476 295Q476 179 405 88Q329 -11 215 -11Q132 -11 82 46Q35 100 35 185Q35 303 104 394Q181 493 295 493Q380 493 430 436Q476 382 476 295ZM401 296Q401 354 373 392Q343 435 286 435Q206 435 153 349Q108 274 108 188Q108 130 136 91Q168 47 224 47Q302 47 355 136Q401 213 401 296Z"/>
<glyph unicode="÷" glyph-name="divide" horiz-adv-x="596" d="M356 442Q356 390 305 390Q284 390 271 405T258 442Q258 464 271 479T307 494Q356 494 356 442ZM555 240H56V294H555V240ZM355 91Q355 40 304 40Q283 40 270 55T257 91Q257 114 270 129T306 144Q355 144 355 91Z"/>
<glyph unicode="ø" glyph-name="oslash" horiz-adv-x="507" d="M490 490L436 427Q477 373 477 298Q477 175 402 82T223 -11Q148 -11 102 29L49 -35L20 -7L75 58Q34 108 34 191Q34 309 107 399Q183 493 293 493Q363 493 407 457L458 516L490 490ZM364 406Q337 437 285 437Q209 437 156 357Q108 285 108 200Q108 150 126 117H128L364 406ZM403 285Q403 328 387 366H385L146 79Q176 46 229 46Q296 46 349 121T403 285Z"/>
<glyph unicode="ù" glyph-name="ugrave" horiz-adv-x="512" d="M360 542H309L210 683H295L360 542ZM485 483L419 140Q406 69 399 0H333L346 92H344Q276 -11 176 -11Q51 -11 51 127Q51 159 60 206L113 483H185L132 209Q124 165 124 137Q124 51 203 51Q252 51 300 100Q350 153 365 229L413 483H485Z"/>
<glyph unicode="ú" glyph-name="uacute" horiz-adv-x="512" d="M467 683L335 542H278L376 683H467ZM485 483L419 140Q406 69 399 0H333L346 92H344Q276 -11 176 -11Q51 -11 51 127Q51 159 60 206L113 483H185L132 209Q124 165 124 137Q124 51 203 51Q252 51 300 100Q350 153 365 229L413 483H485Z"/>
<glyph unicode="û" glyph-name="ucircumflex" horiz-adv-x="512" d="M430 542H374L331 637H329L258 542H198L312 683H363L430 542ZM485 483L419 140Q406 69 399 0H333L346 92H344Q276 -11 176 -11Q51 -11 51 127Q51 159 60 206L113 483H185L132 209Q124 165 124 137Q124 51 203 51Q252 51 300 100Q350 153 365 229L413 483H485Z"/>
<glyph unicode="ü" glyph-name="udieresis" horiz-adv-x="512" d="M454 611Q454 589 441 575T406 561Q387 561 375 574T362 607Q362 627 376 641T411 656Q430 656 442 643T454 611ZM278 611Q278 589 265 575T229 561Q210 561 198 574T186 607Q186 627 200 641T234 656Q254 656 266 643T278 611ZM485 483L419 140Q406 69 399 0H333L346 92H344Q276 -11 176 -11Q51 -11 51 127Q51 159 60 206L113 483H185L132 209Q124 165 124 137Q124 51 203 51Q252 51 300 100Q350 153 365 229L413 483H485Z"/>
<glyph unicode="ý" glyph-name="yacute" horiz-adv-x="425" d="M409 683L277 542H220L318 683H409ZM453 483L271 111Q187 -61 109 -140Q43 -205 -25 -221L-44 -159Q9 -140 45 -111Q102 -65 139 5Q145 14 142 27L49 483H123L172 214Q180 169 194 85H196Q219 141 248 205L376 483H453Z"/>
<glyph unicode="þ" glyph-name="thorn" horiz-adv-x="510" d="M481 322Q481 190 399 91Q315 -11 201 -11Q136 -11 99 11H96L57 -198H-15L149 668H221L168 392H170Q237 493 337 493Q408 493 447 442Q481 396 481 322ZM406 316Q406 363 385 395Q361 433 313 433Q260 433 210 379Q154 318 135 217L108 73Q141 47 203 47Q284 47 346 134Q406 217 406 316Z"/>
<glyph unicode="ÿ" glyph-name="ydieresis" horiz-adv-x="425" d="M406 611Q406 589 392 575T357 561Q338 561 326 574T314 607Q314 627 328 641T362 656Q381 656 393 643T406 611ZM230 611Q230 589 216 575T181 561Q162 561 150 574T138 607Q138 627 152 641T186 656Q205 656 217 643T230 611ZM453 483L271 111Q187 -61 109 -140Q43 -205 -25 -221L-44 -159Q9 -140 45 -111Q102 -65 139 5Q145 14 142 27L49 483H123L172 214Q180 169 194 85H196Q219 141 248 205L376 483H453Z"/>
<glyph unicode="ı" glyph-name="dotlessi" horiz-adv-x="219" d="M193 483L101 0H29L122 483H193Z"/>
<glyph unicode="Ł" glyph-name="Lslash" horiz-adv-x="432" d="M389 63L377 0H37L89 274L-7 211L6 272L101 335L166 674H237L183 388L325 483L313 420L171 326L121 63H389Z"/>
<glyph unicode="ł" glyph-name="lslash" horiz-adv-x="228" d="M263 470L252 409L173 351L106 0H34L90 293L14 239L26 300L102 355L169 709H241L185 412L263 470Z"/>
<glyph unicode="Œ" glyph-name="OE" horiz-adv-x="842" d="M875 674L863 612H599L555 383H804L793 321H543L494 62H774L762 0H451Q424 0 389 -3T320 -7Q185 -7 112 77Q46 153 46 274Q46 438 146 553Q257 681 446 681Q469 681 515 678T586 674H875ZM526 611Q495 620 440 620Q292 620 203 514Q122 418 122 280Q122 179 171 121Q227 54 342 54Q383 54 423 63L526 611Z"/>
<glyph unicode="œ" glyph-name="oe" horiz-adv-x="781" d="M768 380Q768 288 670 251Q599 225 454 224Q442 166 462 117Q489 49 572 49Q635 49 693 82L706 29Q644 -11 557 -11Q429 -11 400 107H397Q333 -11 209 -11Q129 -11 81 47Q35 102 35 186Q35 308 105 398Q179 493 289 493Q350 493 392 459Q431 427 443 372H445Q477 429 530 461T638 493Q705 493 740 455Q768 425 768 380ZM700 375Q700 405 678 421T625 437Q567 437 521 385Q482 342 464 280Q562 281 607 291Q700 312 700 375ZM395 299Q395 436 286 436Q205 436 153 351Q109 277 109 190Q109 131 136 92Q167 48 223 48Q299 48 351 138Q395 216 395 299Z"/>
<glyph unicode="Š" glyph-name="Scaron" horiz-adv-x="450" d="M467 826L350 710H294L215 826H278L325 751H328L401 826H467ZM449 650L423 591Q371 622 310 622Q249 622 211 587T173 505Q173 464 197 435T276 375Q401 305 401 195Q401 108 340 51Q275 -10 166 -10Q121 -10 77 3T12 35L39 94Q99 53 176 52Q239 52 281 88Q327 126 327 187Q327 264 229 319Q99 392 99 490Q99 576 162 630T318 684Q401 684 449 650Z"/>
<glyph unicode="š" glyph-name="scaron" horiz-adv-x="359" d="M378 683L263 542H211L143 683H199L242 588H245L318 683H378ZM337 470L316 414Q280 436 236 436Q197 436 172 414T147 358Q147 312 213 273Q299 223 299 147Q299 74 249 32T123 -10Q50 -10 9 22L31 76Q78 47 129 47Q172 47 198 71T225 132Q225 187 158 226Q75 274 75 348Q75 409 122 451T242 493Q304 493 337 470Z"/>
<glyph unicode="Ÿ" glyph-name="Ydieresis" horiz-adv-x="500" d="M474 771Q474 751 460 737T425 722Q407 722 395 735T382 767Q382 787 396 801T430 816Q449 816 461 803T474 771ZM296 771Q296 751 282 737T248 722Q230 722 218 735T205 767Q205 787 219 801T253 816Q271 816 283 803T296 771ZM566 674L284 282L231 0H159L213 281L87 674H164L230 449Q250 383 258 338H260Q280 371 332 453L482 674H566Z"/>
<glyph unicode="Ž" glyph-name="Zcaron" horiz-adv-x="506" d="M498 826L381 710H325L246 826H309L356 751H360L432 826H498ZM557 674L547 626L90 65L91 62H445L433 0H-19L-11 46L449 609L448 612H128L140 674H557Z"/>
<glyph unicode="ž" glyph-name="zcaron" horiz-adv-x="401" d="M408 683L293 542H241L174 683H229L273 588H275L348 683H408ZM424 483L415 434L173 160Q128 109 79 62L78 59H348L336 0H-22L-14 45L231 322Q264 360 326 420V423H77L89 483H424Z"/>
<glyph unicode="ƒ" glyph-name="florin" horiz-adv-x="477" d="M502 645L481 591Q456 602 427 602Q344 602 306 441L297 400H414L405 345H284L231 133Q204 26 168 -23Q123 -83 48 -83Q2 -83 -24 -65L-6 -13Q15 -25 50 -25Q121 -25 163 142L214 345H124L134 400H227L239 448Q266 549 303 597Q353 661 438 661Q479 661 502 645Z"/>
</font>
</defs>
</svg>
