<?xml version="1.0" encoding="utf-8"?>
<!-- Generator: Adobe InDesign 3.0 SVG Export Plug-in, SVG Library version: 6.0 build 78 -->
<!DOCTYPE svg [
	<!ENTITY ns_svg "http://www.w3.org/2000/svg">
	<!ENTITY ns_xlink "http://www.w3.org/1999/xlink">
]>
<svg  xmlns="&ns_svg;" xmlns:xlink="&ns_xlink;" width="637.795pt" height="226.772pt" xml:space="preserve">
	<clipPath id="clp1" style="fill:none;">
		<path style="shape-rendering:crispEdges;stroke:#000000;" d="M0,0h637.795v226.772H0z"/>
	</clipPath>
	<g style="clip-path:url(#clp1);fill:none;">
		<g transform="matrix(1 0 0 1 19.4252 114.3858)">
			<path style="stroke:#000000;stroke-width:0.561;" d="M2-107.219h-3 M2-105.718h-3 M2-104.217h-3 M2-102.716h-3 M2-101.215h-3
				 M2-99.714h-3 M2-98.213h-3 M2-96.711h-3 M2-95.21h-3 M2-93.709h-3 M2-92.208h-3 M2-90.707h-3 M2-89.206h-3 M2-87.704h-3
				 M2-86.203h-3 M2-84.702h-3 M2-83.201h-3 M2-81.7h-3 M2-80.199h-3 M2-78.698h-3 M2-77.196h-3 M2-75.695h-3 M2-74.194h-3
				 M2-72.693h-3 M2-71.192h-3 M2-69.691h-3 M2-68.189h-3 M2-66.688h-3 M2-65.187h-3 M2-63.686h-3 M2-62.185h-3 M2-60.684h-3
				 M2-59.182h-3 M2-57.681h-3 M2-56.18h-3 M2-54.679h-3 M2-53.178h-3 M2-51.677h-3 M2-50.176h-3 M2-48.674h-3 M2-47.173h-3
				 M2-45.672h-3 M2-44.171h-3 M2-42.67h-3 M2-41.169h-3 M2-39.667h-3 M2-38.166h-3 M2-36.665h-3 M2-35.164h-3 M2-33.663h-3
				 M2-32.162h-3 M2-30.661h-3 M2-29.159h-3 M2-27.658h-3 M2-26.157h-3 M2-24.656h-3 M2-23.155h-3 M2-21.654h-3 M2-20.152h-3
				 M2-18.651h-3 M2-17.15h-3 M2-15.649h-3 M2-14.148h-3 M2-12.647h-3 M2-11.145h-3 M2-9.644h-3 M2-8.143h-3 M2-6.642h-3 M2-5.141
				h-3 M2-3.64h-3 M2-2.139h-3 M2-0.637h-3 M2,0.864h-3 M2,2.365h-3 M2,3.866h-3 M2,5.367h-3 M2,6.868h-3 M2,8.37h-3 M2,9.871h-3
				 M2,11.372h-3 M2,12.873h-3 M2,14.374h-3 M2,15.875h-3 M2,17.376h-3 M2,18.878h-3 M2,20.379h-3 M2,21.88h-3 M2,23.381h-3
				 M2,24.882h-3 M2,26.383h-3 M2,27.885h-3 M2,29.386h-3 M2,30.887h-3 M2,32.388h-3 M2,33.889h-3 M2,35.39h-3 M2,36.892h-3
				 M2,38.393h-3 M2,39.894h-3 M2,41.395h-3 M2,42.896h-3 M2,44.397h-3 M2,45.898h-3 M2,47.4h-3 M2,48.901h-3 M2,50.402h-3
				 M2,51.903h-3 M2,53.404h-3 M2,54.905h-3 M2,56.407h-3 M2,57.908h-3 M2,59.409h-3 M2,60.91h-3 M2,62.411h-3 M2,63.912h-3
				 M2,65.414h-3 M2,66.915h-3 M2,68.416h-3 M2,69.917h-3 M2,71.418h-3 M2,72.919h-3 M2,74.42h-3 M2,75.922h-3 M2,77.423h-3
				 M2,78.924h-3 M2,80.425h-3 M2,81.926h-3 M2,83.427h-3 M2,84.929h-3 M2,86.43h-3 M2,87.931h-3 M2,89.432h-3 M2,90.933h-3
				 M2,92.434h-3 M2,93.935h-3 M2,95.437h-3 M2,96.938h-3 M2,98.439h-3 M2,99.94h-3 M2,101.441h-3 M2,102.942h-3 M2,104.444h-3
				 M2,105.945h-3 M2,107.446h-3 M2,108.947h-3 M2,110.448h-3 M1.564,109.386v3 M3.065,109.386v3 M4.566,109.386v3 M6.067,109.386v3
				 M7.568,109.386v3 M9.069,109.386v3 M10.57,109.386v3 M12.072,109.386v3 M13.573,109.386v3 M15.074,109.386v3 M16.575,109.386v3
				 M18.076,109.386v3 M19.577,109.386v3 M21.079,109.386v3 M22.58,109.386v3 M24.081,109.386v3 M25.582,109.386v3 M27.083,109.386
				v3 M28.584,109.386v3 M30.086,109.386v3 M31.587,109.386v3 M33.088,109.386v3 M34.589,109.386v3 M36.09,109.386v3
				 M37.591,109.386v3 M39.092,109.386v3 M40.594,109.386v3 M42.095,109.386v3 M43.596,109.386v3 M45.097,109.386v3 M46.598,109.386
				v3 M48.099,109.386v3 M49.601,109.386v3 M51.102,109.386v3 M52.603,109.386v3 M54.104,109.386v3 M55.605,109.386v3
				 M57.106,109.386v3 M58.607,109.386v3 M60.109,109.386v3 M61.61,109.386v3 M63.111,109.386v3 M64.612,109.386v3 M66.113,109.386
				v3 M67.614,109.386v3 M69.116,109.386v3 M70.617,109.386v3 M72.118,109.386v3 M73.619,109.386v3 M75.12,109.386v3
				 M76.621,109.386v3 M78.123,109.386v3 M79.624,109.386v3 M81.125,109.386v3 M82.626,109.386v3 M84.127,109.386v3 M85.628,109.386
				v3 M87.129,109.386v3 M88.631,109.386v3 M90.132,109.386v3 M91.633,109.386v3 M93.134,109.386v3 M94.635,109.386v3
				 M96.136,109.386v3 M97.638,109.386v3 M99.139,109.386v3 M100.64,109.386v3 M102.141,109.386v3 M103.642,109.386v3
				 M105.143,109.386v3 M106.645,109.386v3 M108.146,109.386v3 M109.647,109.386v3 M111.148,109.386v3 M112.649,109.386v3
				 M114.15,109.386v3 M115.651,109.386v3 M117.153,109.386v3 M118.654,109.386v3 M120.155,109.386v3 M121.656,109.386v3
				 M123.157,109.386v3 M124.658,109.386v3 M126.16,109.386v3 M127.661,109.386v3 M129.162,109.386v3 M130.663,109.386v3
				 M132.164,109.386v3 M133.665,109.386v3 M135.166,109.386v3 M136.668,109.386v3 M138.169,109.386v3 M139.67,109.386v3
				 M141.171,109.386v3 M142.672,109.386v3 M144.173,109.386v3 M145.675,109.386v3 M147.176,109.386v3 M148.677,109.386v3
				 M150.178,109.386v3 M151.679,109.386v3 M153.18,109.386v3 M154.682,109.386v3 M156.183,109.386v3 M157.684,109.386v3
				 M159.185,109.386v3 M160.686,109.386v3 M162.187,109.386v3 M163.688,109.386v3 M165.19,109.386v3 M166.691,109.386v3
				 M168.192,109.386v3 M169.693,109.386v3 M171.194,109.386v3 M172.695,109.386v3 M174.197,109.386v3 M175.698,109.386v3
				 M177.199,109.386v3 M178.7,109.386v3 M180.201,109.386v3 M181.702,109.386v3 M183.203,109.386v3 M184.705,109.386v3
				 M186.206,109.386v3 M187.707,109.386v3 M189.208,109.386v3 M190.709,109.386v3 M192.21,109.386v3 M193.712,109.386v3
				 M195.213,109.386v3 M196.714,109.386v3 M198.215,109.386v3 M199.716,109.386v3 M201.217,109.386v3 M202.719,109.386v3
				 M204.22,109.386v3 M205.721,109.386v3 M207.222,109.386v3 M208.723,109.386v3 M210.224,109.386v3 M211.725,109.386v3
				 M213.227,109.386v3 M214.728,109.386v3 M216.229,109.386v3 M217.73,109.386v3 M219.231,109.386v3 M220.732,109.386v3
				 M222.234,109.386v3 M223.735,109.386v3 M225.236,109.386v3 M226.737,109.386v3 M228.238,109.386v3 M229.739,109.386v3
				 M231.24,109.386v3 M232.742,109.386v3 M234.243,109.386v3 M235.744,109.386v3 M237.245,109.386v3 M238.746,109.386v3
				 M240.247,109.386v3 M241.749,109.386v3 M243.25,109.386v3 M244.751,109.386v3 M246.252,109.386v3 M247.753,109.386v3
				 M249.254,109.386v3 M250.756,109.386v3 M252.257,109.386v3 M253.758,109.386v3 M255.259,109.386v3 M256.76,109.386v3
				 M258.261,109.386v3 M259.762,109.386v3 M261.264,109.386v3 M262.765,109.386v3 M264.266,109.386v3 M265.767,109.386v3
				 M267.268,109.386v3 M268.769,109.386v3 M270.271,109.386v3 M271.772,109.386v3 M273.273,109.386v3 M274.774,109.386v3
				 M276.275,109.386v3 M277.776,109.386v3 M279.277,109.386v3 M280.779,109.386v3 M282.28,109.386v3 M283.781,109.386v3
				 M285.282,109.386v3 M286.783,109.386v3 M288.284,109.386v3 M289.786,109.386v3 M291.287,109.386v3 M292.788,109.386v3
				 M294.289,109.386v3 M295.79,109.386v3 M297.291,109.386v3 M298.793,109.386v3 M300.294,109.386v3 M301.795,109.386v3
				 M303.296,109.386v3 M304.797,109.386v3 M306.298,109.386v3 M307.799,109.386v3 M309.301,109.386v3 M310.802,109.386v3
				 M312.303,109.386v3 M313.804,109.386v3 M315.305,109.386v3 M316.806,109.386v3 M318.308,109.386v3 M319.809,109.386v3
				 M321.31,109.386v3 M322.811,109.386v3 M324.312,109.386v3 M325.813,109.386v3 M327.315,109.386v3 M328.816,109.386v3
				 M330.317,109.386v3 M331.818,109.386v3 M333.319,109.386v3 M334.82,109.386v3 M336.321,109.386v3 M337.823,109.386v3
				 M339.324,109.386v3 M340.825,109.386v3 M342.326,109.386v3 M343.827,109.386v3 M345.328,109.386v3 M346.83,109.386v3
				 M348.331,109.386v3 M349.832,109.386v3 M351.333,109.386v3 M352.834,109.386v3 M354.335,109.386v3 M355.836,109.386v3
				 M357.338,109.386v3 M358.839,109.386v3 M360.34,109.386v3 M361.841,109.386v3 M363.342,109.386v3 M364.843,109.386v3
				 M366.345,109.386v3 M367.846,109.386v3 M369.347,109.386v3 M370.848,109.386v3 M372.349,109.386v3 M373.85,109.386v3
				 M375.352,109.386v3 M376.853,109.386v3 M378.354,109.386v3 M379.855,109.386v3 M381.356,109.386v3 M382.857,109.386v3
				 M384.358,109.386v3 M385.86,109.386v3 M387.361,109.386v3 M388.862,109.386v3 M390.363,109.386v3 M391.864,109.386v3
				 M393.365,109.386v3 M394.867,109.386v3 M396.368,109.386v3 M397.869,109.386v3 M399.37,109.386v3 M400.871,109.386v3
				 M402.372,109.386v3 M403.874,109.386v3 M405.375,109.386v3 M406.876,109.386v3 M408.377,109.386v3 M409.878,109.386v3
				 M411.379,109.386v3 M412.88,109.386v3 M414.382,109.386v3 M415.883,109.386v3 M417.384,109.386v3 M418.885,109.386v3
				 M420.386,109.386v3 M421.887,109.386v3 M423.389,109.386v3 M424.89,109.386v3 M426.391,109.386v3 M427.892,109.386v3
				 M429.393,109.386v3 M430.894,109.386v3 M432.395,109.386v3 M433.897,109.386v3 M435.398,109.386v3 M436.899,109.386v3
				 M438.4,109.386v3 M439.901,109.386v3 M441.402,109.386v3 M442.904,109.386v3 M444.405,109.386v3 M445.906,109.386v3
				 M447.407,109.386v3 M448.908,109.386v3 M450.409,109.386v3 M451.911,109.386v3 M453.412,109.386v3 M454.913,109.386v3
				 M456.414,109.386v3 M457.915,109.386v3 M459.416,109.386v3 M460.917,109.386v3 M462.419,109.386v3 M463.92,109.386v3
				 M465.421,109.386v3 M466.922,109.386v3 M468.423,109.386v3 M469.924,109.386v3 M471.426,109.386v3 M472.927,109.386v3
				 M474.428,109.386v3 M475.929,109.386v3 M477.43,109.386v3 M478.931,109.386v3 M480.432,109.386v3 M481.934,109.386v3
				 M483.435,109.386v3 M484.936,109.386v3 M486.437,109.386v3 M487.938,109.386v3 M489.439,109.386v3 M490.941,109.386v3
				 M492.442,109.386v3 M493.943,109.386v3 M495.444,109.386v3 M496.945,109.386v3 M498.446,109.386v3 M499.948,109.386v3
				 M501.449,109.386v3 M502.95,109.386v3 M504.451,109.386v3 M505.952,109.386v3 M507.453,109.386v3 M508.954,109.386v3
				 M510.456,109.386v3 M511.957,109.386v3 M513.458,109.386v3 M514.959,109.386v3 M516.46,109.386v3 M517.961,109.386v3
				 M519.463,109.386v3 M520.964,109.386v3 M522.465,109.386v3 M523.966,109.386v3 M525.467,109.386v3 M526.968,109.386v3
				 M528.469,109.386v3 M529.971,109.386v3 M531.472,109.386v3 M532.973,109.386v3 M534.474,109.386v3 M535.975,109.386v3
				 M537.476,109.386v3 M538.978,109.386v3 M540.479,109.386v3 M541.98,109.386v3 M543.481,109.386v3 M544.982,109.386v3
				 M546.483,109.386v3 M547.985,109.386v3 M549.486,109.386v3 M550.987,109.386v3 M552.488,109.386v3 M553.989,109.386v3
				 M555.49,109.386v3 M556.991,109.386v3 M558.493,109.386v3 M559.994,109.386v3 M561.495,109.386v3 M562.996,109.386v3
				 M564.497,109.386v3 M565.998,109.386v3 M567.5,109.386v3 M569.001,109.386v3 M570.502,109.386v3 M572.003,109.386v3
				 M573.504,109.386v3 M575.005,109.386v3 M576.507,109.386v3 M578.008,109.386v3 M579.509,109.386v3 M581.01,109.386v3
				 M582.511,109.386v3 M584.012,109.386v3 M585.513,109.386v3 M587.015,109.386v3 M588.516,109.386v3 M590.017,109.386v3
				 M591.518,109.386v3 M593.019,109.386v3 M594.52,109.386v3 M596.022,109.386v3 M597.523,109.386v3 M599.024,109.386v3
				 M600.525,109.386v3 M602.026,109.386v3 M603.527,109.386v3 M605.029,109.386v3 M606.53,109.386v3 M608.031,109.386v3
				 M609.532,109.386v3 M611.033,109.386v3 M612.534,109.386v3 M614.035,109.386v3 M612.535,109.385h3 M612.535,107.884h3
				 M612.535,106.382h3 M612.535,104.881h3 M612.535,103.38h3 M612.535,101.879h3 M612.535,100.378h3 M612.535,98.877h3
				 M612.535,97.375h3 M612.535,95.874h3 M612.535,94.373h3 M612.535,92.872h3 M612.535,91.371h3 M612.535,89.87h3 M612.535,88.368
				h3 M612.535,86.867h3 M612.535,85.366h3 M612.535,83.865h3 M612.535,82.364h3 M612.535,80.863h3 M612.535,79.362h3
				 M612.535,77.86h3 M612.535,76.359h3 M612.535,74.858h3 M612.535,73.357h3 M612.535,71.856h3 M612.535,70.355h3 M612.535,68.853
				h3 M612.535,67.352h3 M612.535,65.851h3 M612.535,64.35h3 M612.535,62.849h3 M612.535,61.348h3 M612.535,59.847h3
				 M612.535,58.345h3 M612.535,56.844h3 M612.535,55.343h3 M612.535,53.842h3 M612.535,52.341h3 M612.535,50.84h3 M612.535,49.338
				h3 M612.535,47.837h3 M612.535,46.336h3 M612.535,44.835h3 M612.535,43.334h3 M612.535,41.833h3 M612.535,40.331h3
				 M612.535,38.83h3 M612.535,37.329h3 M612.535,35.828h3 M612.535,34.327h3 M612.535,32.826h3 M612.535,31.325h3 M612.535,29.823
				h3 M612.535,28.322h3 M612.535,26.821h3 M612.535,25.32h3 M612.535,23.819h3 M612.535,22.318h3 M612.535,20.816h3
				 M612.535,19.315h3 M612.535,17.814h3 M612.535,16.313h3 M612.535,14.812h3 M612.535,13.311h3 M612.535,11.809h3 M612.535,10.308
				h3 M612.535,8.807h3 M612.535,7.306h3 M612.535,5.805h3 M612.535,4.304h3 M612.535,2.803h3 M612.535,1.301h3 M612.535-0.2h3
				 M612.535-1.701h3 M612.535-3.202h3 M612.535-4.703h3 M612.535-6.204h3 M612.535-7.706h3 M612.535-9.207h3 M612.535-10.708h3
				 M612.535-12.209h3 M612.535-13.71h3 M612.535-15.211h3 M612.535-16.712h3 M612.535-18.214h3 M612.535-19.715h3 M612.535-21.216
				h3 M612.535-22.717h3 M612.535-24.218h3 M612.535-25.719h3 M612.535-27.221h3 M612.535-28.722h3 M612.535-30.223h3
				 M612.535-31.724h3 M612.535-33.225h3 M612.535-34.726h3 M612.535-36.228h3 M612.535-37.729h3 M612.535-39.23h3 M612.535-40.731
				h3 M612.535-42.232h3 M612.535-43.733h3 M612.535-45.234h3 M612.535-46.736h3 M612.535-48.237h3 M612.535-49.738h3
				 M612.535-51.239h3 M612.535-52.74h3 M612.535-54.241h3 M612.535-55.743h3 M612.535-57.244h3 M612.535-58.745h3 M612.535-60.246
				h3 M612.535-61.747h3 M612.535-63.248h3 M612.535-64.749h3 M612.535-66.251h3 M612.535-67.752h3 M612.535-69.253h3
				 M612.535-70.754h3 M612.535-72.255h3 M612.535-73.756h3 M612.535-75.258h3 M612.535-76.759h3 M612.535-78.26h3 M612.535-79.761
				h3 M612.535-81.262h3 M612.535-82.763h3 M612.535-84.265h3 M612.535-85.766h3 M612.535-87.267h3 M612.535-88.768h3
				 M612.535-90.269h3 M612.535-91.77h3 M612.535-93.271h3 M612.535-94.773h3 M612.535-96.274h3 M612.535-97.775h3 M612.535-99.276
				h3 M612.535-100.777h3 M612.535-102.278h3 M612.535-103.78h3 M612.535-105.281h3 M612.535-106.782h3 M613.252-106v-3
				 M611.751-106v-3 M610.25-106v-3 M608.749-106v-3 M607.248-106v-3 M605.747-106v-3 M604.245-106v-3 M602.744-106v-3 M601.243-106
				v-3 M599.742-106v-3 M598.241-106v-3 M596.74-106v-3 M595.239-106v-3 M593.737-106v-3 M592.236-106v-3 M590.735-106v-3
				 M589.234-106v-3 M587.733-106v-3 M586.232-106v-3 M584.73-106v-3 M583.229-106v-3 M581.728-106v-3 M580.227-106v-3 M578.726-106
				v-3 M577.225-106v-3 M575.723-106v-3 M574.222-106v-3 M572.721-106v-3 M571.22-106v-3 M569.719-106v-3 M568.218-106v-3
				 M566.717-106v-3 M565.215-106v-3 M563.714-106v-3 M562.213-106v-3 M560.712-106v-3 M559.211-106v-3 M557.71-106v-3 M556.208-106
				v-3 M554.707-106v-3 M553.206-106v-3 M551.705-106v-3 M550.204-106v-3 M548.703-106v-3 M547.201-106v-3 M545.7-106v-3
				 M544.199-106v-3 M542.698-106v-3 M541.197-106v-3 M539.696-106v-3 M538.195-106v-3 M536.693-106v-3 M535.192-106v-3
				 M533.691-106v-3 M532.19-106v-3 M530.689-106v-3 M529.188-106v-3 M527.686-106v-3 M526.185-106v-3 M524.684-106v-3 M523.183-106
				v-3 M521.682-106v-3 M520.181-106v-3 M518.68-106v-3 M517.178-106v-3 M515.677-106v-3 M514.176-106v-3 M512.675-106v-3
				 M511.174-106v-3 M509.673-106v-3 M508.171-106v-3 M506.67-106v-3 M505.169-106v-3 M503.668-106v-3 M502.167-106v-3 M500.666-106
				v-3 M499.164-106v-3 M497.663-106v-3 M496.162-106v-3 M494.661-106v-3 M493.16-106v-3 M491.659-106v-3 M490.158-106v-3
				 M488.656-106v-3 M487.155-106v-3 M485.654-106v-3 M484.153-106v-3 M482.652-106v-3 M481.151-106v-3 M479.649-106v-3
				 M478.148-106v-3 M476.647-106v-3 M475.146-106v-3 M473.645-106v-3 M472.144-106v-3 M470.643-106v-3 M469.141-106v-3 M467.64-106
				v-3 M466.139-106v-3 M464.638-106v-3 M463.137-106v-3 M461.636-106v-3 M460.134-106v-3 M458.633-106v-3 M457.132-106v-3
				 M455.631-106v-3 M454.13-106v-3 M452.629-106v-3 M451.127-106v-3 M449.626-106v-3 M448.125-106v-3 M446.624-106v-3 M445.123-106
				v-3 M443.622-106v-3 M442.121-106v-3 M440.619-106v-3 M439.118-106v-3 M437.617-106v-3 M436.116-106v-3 M434.615-106v-3
				 M433.114-106v-3 M431.612-106v-3 M430.111-106v-3 M428.61-106v-3 M427.109-106v-3 M425.608-106v-3 M424.107-106v-3 M422.605-106
				v-3 M421.104-106v-3 M419.603-106v-3 M418.102-106v-3 M416.601-106v-3 M415.1-106v-3 M413.599-106v-3 M412.097-106v-3
				 M410.596-106v-3 M409.095-106v-3 M407.594-106v-3 M406.093-106v-3 M404.592-106v-3 M403.09-106v-3 M401.589-106v-3 M400.088-106
				v-3 M398.587-106v-3 M397.086-106v-3 M395.585-106v-3 M394.084-106v-3 M392.582-106v-3 M391.081-106v-3 M389.58-106v-3
				 M388.079-106v-3 M386.578-106v-3 M385.077-106v-3 M383.575-106v-3 M382.074-106v-3 M380.573-106v-3 M379.072-106v-3
				 M377.571-106v-3 M376.07-106v-3 M374.568-106v-3 M373.067-106v-3 M371.566-106v-3 M370.065-106v-3 M368.564-106v-3 M367.063-106
				v-3 M365.562-106v-3 M364.06-106v-3 M362.559-106v-3 M361.058-106v-3 M359.557-106v-3 M358.056-106v-3 M356.555-106v-3
				 M355.053-106v-3 M353.552-106v-3 M352.051-106v-3 M350.55-106v-3 M349.049-106v-3 M347.548-106v-3 M346.047-106v-3 M344.545-106
				v-3 M343.044-106v-3 M341.543-106v-3 M340.042-106v-3 M338.541-106v-3 M337.04-106v-3 M335.538-106v-3 M334.037-106v-3
				 M332.536-106v-3 M331.035-106v-3 M329.534-106v-3 M328.033-106v-3 M326.531-106v-3 M325.03-106v-3 M323.529-106v-3 M322.028-106
				v-3 M320.527-106v-3 M319.026-106v-3 M317.525-106v-3 M316.023-106v-3 M314.522-106v-3 M313.021-106v-3 M311.52-106v-3
				 M310.019-106v-3 M308.518-106v-3 M307.016-106v-3 M305.515-106v-3 M304.014-106v-3 M302.513-106v-3 M301.012-106v-3
				 M299.511-106v-3 M298.01-106v-3 M296.508-106v-3 M295.007-106v-3 M293.506-106v-3 M292.005-106v-3 M290.504-106v-3 M289.003-106
				v-3 M287.501-106v-3 M286-106v-3 M284.499-106v-3 M282.998-106v-3 M281.497-106v-3 M279.996-106v-3 M278.494-106v-3 M276.993-106
				v-3 M275.492-106v-3 M273.991-106v-3 M272.49-106v-3 M270.989-106v-3 M269.488-106v-3 M267.986-106v-3 M266.485-106v-3
				 M264.984-106v-3 M263.483-106v-3 M261.982-106v-3 M260.481-106v-3 M258.979-106v-3 M257.478-106v-3 M255.977-106v-3
				 M254.476-106v-3 M252.975-106v-3 M251.474-106v-3 M249.973-106v-3 M248.471-106v-3 M246.97-106v-3 M245.469-106v-3 M243.968-106
				v-3 M242.467-106v-3 M240.966-106v-3 M239.464-106v-3 M237.963-106v-3 M236.462-106v-3 M234.961-106v-3 M233.46-106v-3
				 M231.959-106v-3 M230.457-106v-3 M228.956-106v-3 M227.455-106v-3 M225.954-106v-3 M224.453-106v-3 M222.952-106v-3
				 M221.451-106v-3 M219.949-106v-3 M218.448-106v-3 M216.947-106v-3 M215.446-106v-3 M213.945-106v-3 M212.444-106v-3
				 M210.942-106v-3 M209.441-106v-3 M207.94-106v-3 M206.439-106v-3 M204.938-106v-3 M203.437-106v-3 M201.935-106v-3 M200.434-106
				v-3 M198.933-106v-3 M197.432-106v-3 M195.931-106v-3 M194.43-106v-3 M192.929-106v-3 M191.427-106v-3 M189.926-106v-3
				 M188.425-106v-3 M186.924-106v-3 M185.423-106v-3 M183.922-106v-3 M182.42-106v-3 M180.919-106v-3 M179.418-106v-3 M177.917-106
				v-3 M176.416-106v-3 M174.915-106v-3 M173.414-106v-3 M171.912-106v-3 M170.411-106v-3 M168.91-106v-3 M167.409-106v-3
				 M165.908-106v-3 M164.407-106v-3 M162.905-106v-3 M161.404-106v-3 M159.903-106v-3 M158.402-106v-3 M156.901-106v-3 M155.4-106
				v-3 M153.898-106v-3 M152.397-106v-3 M150.896-106v-3 M149.395-106v-3 M147.894-106v-3 M146.393-106v-3 M144.892-106v-3
				 M143.39-106v-3 M141.889-106v-3 M140.388-106v-3 M138.887-106v-3 M137.386-106v-3 M135.885-106v-3 M134.383-106v-3 M132.882-106
				v-3 M131.381-106v-3 M129.88-106v-3 M128.379-106v-3 M126.878-106v-3 M125.376-106v-3 M123.875-106v-3 M122.374-106v-3
				 M120.873-106v-3 M119.372-106v-3 M117.871-106v-3 M116.37-106v-3 M114.868-106v-3 M113.367-106v-3 M111.866-106v-3 M110.365-106
				v-3 M108.864-106v-3 M107.363-106v-3 M105.861-106v-3 M104.36-106v-3 M102.859-106v-3 M101.358-106v-3 M99.857-106v-3
				 M98.356-106v-3 M96.855-106v-3 M95.353-106v-3 M93.852-106v-3 M92.351-106v-3 M90.85-106v-3 M89.349-106v-3 M87.848-106v-3
				 M86.346-106v-3 M84.845-106v-3 M83.344-106v-3 M81.843-106v-3 M80.342-106v-3 M78.841-106v-3 M77.339-106v-3 M75.838-106v-3
				 M74.337-106v-3 M72.836-106v-3 M71.335-106v-3 M69.834-106v-3 M68.333-106v-3 M66.831-106v-3 M65.33-106v-3 M63.829-106v-3
				 M62.328-106v-3 M60.827-106v-3 M59.326-106v-3 M57.824-106v-3 M56.323-106v-3 M54.822-106v-3 M53.321-106v-3 M51.82-106v-3
				 M50.319-106v-3 M48.818-106v-3 M47.316-106v-3 M45.815-106v-3 M44.314-106v-3 M42.813-106v-3 M41.312-106v-3 M39.811-106v-3
				 M38.309-106v-3 M36.808-106v-3 M35.307-106v-3 M33.806-106v-3 M32.305-106v-3 M30.804-106v-3 M29.302-106v-3 M27.801-106v-3
				 M26.3-106v-3 M24.799-106v-3 M23.298-106v-3 M21.797-106v-3 M20.296-106v-3 M18.794-106v-3 M17.293-106v-3 M15.792-106v-3
				 M14.291-106v-3 M12.79-106v-3 M11.289-106v-3 M9.787-106v-3 M8.286-106v-3 M6.785-106v-3 M5.284-106v-3 M3.783-106v-3
				 M2.282-106v-3 M0.78-106v-3"/>
		</g>
		<g transform="matrix(36 0 0 36 93.5433 53.9886)">
			<text style="fill:#000000; font-family:'MyriadApple-Bold'; font-size:1;glyph-orientation-horizontal:0.0; kerning:0;"><tspan x="0" y="0">NAB 2005 S</tspan><tspan x="4.978" y="0">p</tspan><tspan x="5.558" y="0">ecial E</tspan><tspan x="8.261" y="0">v</tspan><tspan x="8.75" y="0">en</tspan><tspan x="9.818" y="0">t</tspan></text>
		</g>
		<g transform="matrix(9 0 0 9 95.7238 186.3488)">
			<text style="fill:#000000; font-family:'MyriadApple-Text'; font-size:1;glyph-orientation-horizontal:0.0; kerning:0;"><tspan x="0" y="0">C</tspan><tspan x="0.561" y="0">heck-in b</tspan><tspan x="4.337" y="0">egins a</tspan><tspan x="7.22" y="0">t 1</tspan><tspan x="8.194" y="0">0:00 a.m.</tspan><tspan x="11.761" y="0"> A r</tspan><tspan x="13.145" y="0">ec</tspan><tspan x="14.064" y="0">eption will f</tspan><tspan x="18.866" y="0">ollo</tspan><tspan x="20.374" y="0">w the e</tspan><tspan x="23.412" y="0">v</tspan><tspan x="23.867" y="0">en</tspan><tspan x="24.886" y="0">t.</tspan></text>
		</g>
		<g transform="matrix(9 0 0 9 95.7238 197.1488)">
			<text style="fill:#000000; font-family:'MyriadApple-Text'; font-size:1;glyph-orientation-horizontal:0.0; kerning:0;"><tspan x="0" y="0">P</tspan><tspan x="0.51" y="0">lease pr</tspan><tspan x="3.67" y="0">in</tspan><tspan x="4.426" y="0">t and br</tspan><tspan x="7.654" y="0">ing this tick</tspan><tspan x="12.351" y="0">et with y</tspan><tspan x="15.892" y="0">ou t</tspan><tspan x="17.516" y="0">o the e</tspan><tspan x="20.366" y="0">v</tspan><tspan x="20.821" y="0">en</tspan><tspan x="21.84" y="0">t f</tspan><tspan x="22.67" y="0">or e</tspan><tspan x="24.243" y="0">xp</tspan><tspan x="25.243" y="0">edit</tspan><tspan x="26.815" y="0">ed check-in.</tspan><tspan x="31.663" y="0"> </tspan><tspan x="31.864" y="0">T</tspan><tspan x="32.336" y="0">his tick</tspan><tspan x="35.163" y="0">et is non-tr</tspan><tspan x="39.605" y="0">ansf</tspan><tspan x="41.263" y="0">er</tspan><tspan x="42.059" y="0">able</tspan><tspan x="43.779" y="0">.</tspan></text>
		</g>
		<g transform="matrix(14 0 0 14 95.7238 114.5244)">
			<text style="fill:#000000; font-family:'MyriadApple-Semibold'; font-size:1;glyph-orientation-horizontal:0.0; kerning:0;"><tspan x="0" y="0">S</tspan><tspan x="0.5" y="0">unda</tspan><tspan x="2.648" y="0">y</tspan><tspan x="3.073" y="0">,</tspan><tspan x="3.261" y="0"> A</tspan><tspan x="4.104" y="0">pr</tspan><tspan x="5.013" y="0">il 1</tspan><tspan x="6.146" y="0">7</tspan><tspan x="6.515" y="0">,</tspan><tspan x="6.703" y="0"> 2005</tspan></text>
		</g>
		<g transform="matrix(14 0 0 14 95.7238 130.5244)">
			<text style="fill:#000000; font-family:'MyriadApple-Semibold'; font-size:1;glyph-orientation-horizontal:0.0; kerning:0;"><tspan x="0" y="0">1</tspan><tspan x="0.349" y="0">1:00 a.m.</tspan><tspan x="4.062" y="0"> t</tspan><tspan x="4.631" y="0">o 1</tspan><tspan x="5.818" y="0">2:1</tspan><tspan x="6.979" y="0">5 p</tspan><tspan x="8.273" y="0">.m.</tspan></text>
		</g>
		<g transform="matrix(14 0 0 14 95.7238 146.5244)">
			<text style="fill:#000000; font-family:'MyriadApple-Semibold'; font-size:1;glyph-orientation-horizontal:0.0; kerning:0;"><tspan x="0" y="0">R</tspan><tspan x="0.558" y="0">iv</tspan><tspan x="1.278" y="0">oli B</tspan><tspan x="3.106" y="0">allr</tspan><tspan x="4.417" y="0">o</tspan><tspan x="4.965" y="0">om,</tspan><tspan x="6.529" y="0"> P</tspan><tspan x="7.275" y="0">a</tspan><tspan x="7.761" y="0">r</tspan><tspan x="8.102" y="0">is L</tspan><tspan x="9.461" y="0">as </tspan><tspan x="10.554" y="0">V</tspan><tspan x="11.086" y="0">egas H</tspan><tspan x="13.926" y="0">ot</tspan><tspan x="14.806" y="0">el</tspan></text>
		</g>
		<g transform="matrix(14 0 0 14 95.7238 162.5244)">
			<text style="fill:#000000; font-family:'MyriadApple-Semibold'; font-size:1;glyph-orientation-horizontal:0.0; kerning:0;"><tspan x="0" y="0">L</tspan><tspan x="0.477" y="0">as </tspan><tspan x="1.57" y="0">V</tspan><tspan x="2.102" y="0">egas</tspan><tspan x="4.038" y="0">,</tspan><tspan x="4.226" y="0"> N</tspan><tspan x="5.117" y="0">e</tspan><tspan x="5.613" y="0">v</tspan><tspan x="6.087" y="0">ada</tspan></text>
		</g>
		<clipPath id="clp2">
			<path style="shape-rendering:crispEdges;stroke:#000000;" d="M44.447,21.543v32.913h26.8V21.543H44.447z"/>
		</clipPath>
		<g style="clip-path:url(#clp2);">
			<clipPath id="clp3">
				<path style="shape-rendering:crispEdges;stroke:#000000;" d="M42.992,21.543h28.255v32.913H42.992z"/>
			</clipPath>
			<g style="clip-path:url(#clp3);">
				<g transform="matrix(0.9561 0 0 0.9561 -326.3715 324.5521)">
					<path style="fill:#999999;" d="M415.883-291.736c-0.043,0.121-0.721,2.465-2.378,4.883c-1.431,2.094-2.917,4.18-5.257,4.223
						c-2.3,0.043-3.039-1.365-5.667-1.365c-2.631,0-3.454,1.322-5.627,1.408c-2.26,0.085-3.981-2.262-5.424-4.348
						c-2.95-4.265-5.2-12.051-2.174-17.303c1.5-2.61,4.188-4.263,7.104-4.306c2.22-0.041,4.311,1.492,5.669,1.492
						c1.355,0,3.898-1.845,6.573-1.574c1.118,0.048,4.262,0.45,6.282,3.406c-0.162,0.102-3.752,2.19-3.713,6.535
						C411.318-293.486,415.831-291.759,415.883-291.736z M406.949-311.444c1.203-1.454,2.009-3.473,1.787-5.483
						c-1.728,0.063-3.82,1.15-5.059,2.601c-1.111,1.286-2.086,3.341-1.822,5.311C403.782-308.865,405.751-309.995,406.949-311.444"
						/>
				</g>
			</g>
		</g>
		<g transform="matrix(6.123234e-17 -1 1 6.123234e-17 586.6337 190.0157)">
			<text style="fill:#000000; font-family:'MyriadApple-Text'; font-size:1;glyph-orientation-horizontal:0.0; kerning:0;"><tspan x="0" y="0">_barcode_</tspan></text>
		</g>
		<g transform="matrix(14 0 0 14 95.7238 85.0441)">
			<text style="fill:#000000; font-family:'MyriadApple-Semibold'; font-size:1;glyph-orientation-horizontal:0.0; kerning:0;"><tspan x="0" y="0">C</tspan><tspan x="0.555" y="0">onfir</tspan><tspan x="2.548" y="0">ma</tspan><tspan x="3.861" y="0">tion </tspan><tspan x="5.744" y="0">Tick</tspan><tspan x="7.415" y="0">et f</tspan><tspan x="8.786" y="0">or</tspan><tspan x="9.682" y="0">:</tspan></text>
		</g>
		<g transform="matrix(13 0 0 13 243.7795 85.1284)">
			<text style="fill:#000000; font-family:'Helvetica'; font-size:1;glyph-orientation-horizontal:0.0; kerning:0;"><tspan x="0" y="0">_fullname_</tspan></text>
		</g>
		<g transform="matrix(9 0 0 9 95.7238 209.026)">
			<text style="fill:#000000; font-family:'MyriadApple-Text'; font-size:1;glyph-orientation-horizontal:0.0; kerning:0;"><tspan x="0" y="0">Sp</tspan><tspan x="1.03" y="0">ecial </tspan><tspan x="3.075" y="0">VIP sea</tspan><tspan x="5.93" y="0">ting has b</tspan><tspan x="9.986" y="0">een ar</tspan><tspan x="12.527" y="0">r</tspan><tspan x="12.836" y="0">anged f</tspan><tspan x="15.931" y="0">or y</tspan><tspan x="17.464" y="0">our c</tspan><tspan x="19.519" y="0">on</tspan><tspan x="20.575" y="0">v</tspan><tspan x="21.03" y="0">enienc</tspan><tspan x="23.74" y="0">e .</tspan><tspan x="24.624" y="0"> P</tspan><tspan x="25.376" y="0">lease pr</tspan><tspan x="28.526" y="0">o</tspan><tspan x="29.06" y="0">c</tspan><tspan x="29.492" y="0">eed dir</tspan><tspan x="32.333" y="0">ec</tspan><tspan x="33.269" y="0">tly t</tspan><tspan x="34.823" y="0">o the </tspan><tspan x="37.151" y="0">VIP C</tspan><tspan x="39.233" y="0">heck-In D</tspan><tspan x="43.112" y="0">e</tspan><tspan x="43.593" y="0">sk t</tspan><tspan x="44.981" y="0">o pick up y</tspan><tspan x="49.436" y="0">our badge</tspan><tspan x="53.646" y="0">.</tspan></text>
		</g>
		<g transform="matrix(36 0 0 36 469.1339 53.9886)">
			<text style="fill:#000000; font-family:'MyriadApple-Bold'; font-size:1;glyph-orientation-horizontal:0.0; kerning:0;"><tspan x="0" y="0">- </tspan><tspan x="0.51" y="0">VIP</tspan></text>
		</g>
	</g>
</svg>
