<?xml version="1.0" encoding="utf-8"?>
<!-- Generator: Adobe InDesign 4.0 SVG Export Plug-in, SVG Library version: 6.0 build 159 -->
<!DOCTYPE svg PUBLIC "-//W3C//DTD SVG 1.0//EN"    "http://www.w3.org/TR/SVG/DTD/svg10.dtd" [
	<!ENTITY ns_svg "http://www.w3.org/2000/svg">
	<!ENTITY ns_xlink "http://www.w3.org/1999/xlink">
]>
<svg  xmlns="&ns_svg;" xmlns:xlink="&ns_xlink;" width="637.795pt" height="283.465pt" xml:space="preserve">
<clipPath id="clp1" fill="none">
	<path shape-rendering="crispEdges" stroke="#000000" d="M0,0h637.795v283.465H0z"/>
</clipPath>
<g clip-path="url(#clp1)" fill="none">
	<g transform="matrix(1 0 0 1 19.4252 145.5669)">
		<path stroke="#000000" stroke-width="0.561" d="M2-131.952h-3 M2-130.451h-3 M2-128.95h-3 M2-127.449h-3 M2-125.949h-3 M2-124.448
			h-3 M2-122.947h-3 M2-121.446h-3 M2-119.945h-3 M2-118.445h-3 M2-116.944h-3 M2-115.443h-3 M2-113.942h-3 M2-112.441h-3
			 M2-110.941h-3 M2-109.44h-3 M2-107.939h-3 M2-106.438h-3 M2-104.937h-3 M2-103.436h-3 M2-101.936h-3 M2-100.435h-3 M2-98.934h-3
			 M2-97.433h-3 M2-95.932h-3 M2-94.432h-3 M2-92.931h-3 M2-91.43h-3 M2-89.929h-3 M2-88.428h-3 M2-86.928h-3 M2-85.427h-3
			 M2-83.926h-3 M2-82.425h-3 M2-80.924h-3 M2-79.424h-3 M2-77.923h-3 M2-76.422h-3 M2-74.921h-3 M2-73.42h-3 M2-71.92h-3 M2-70.419
			h-3 M2-68.918h-3 M2-67.417h-3 M2-65.916h-3 M2-64.416h-3 M2-62.915h-3 M2-61.414h-3 M2-59.913h-3 M2-58.412h-3 M2-56.912h-3
			 M2-55.411h-3 M2-53.91h-3 M2-52.409h-3 M2-50.908h-3 M2-49.408h-3 M2-47.907h-3 M2-46.406h-3 M2-44.905h-3 M2-43.404h-3
			 M2-41.904h-3 M2-40.403h-3 M2-38.902h-3 M2-37.401h-3 M2-35.9h-3 M2-34.399h-3 M2-32.899h-3 M2-31.398h-3 M2-29.897h-3 M2-28.396
			h-3 M2-26.895h-3 M2-25.395h-3 M2-23.894h-3 M2-22.393h-3 M2-20.892h-3 M2-19.391h-3 M2-17.891h-3 M2-16.39h-3 M2-14.889h-3
			 M2-13.388h-3 M2-11.887h-3 M2-10.387h-3 M2-8.886h-3 M2-7.385h-3 M2-5.884h-3 M2-4.383h-3 M2-2.883h-3 M2-1.382h-3 M2,0.119h-3
			 M2,1.62h-3 M2,3.121h-3 M2,4.621h-3 M2,6.122h-3 M2,7.623h-3 M2,9.124h-3 M2,10.625h-3 M2,12.125h-3 M2,13.626h-3 M2,15.127h-3
			 M2,16.628h-3 M2,18.129h-3 M2,19.629h-3 M2,21.13h-3 M2,22.631h-3 M2,24.132h-3 M2,25.633h-3 M2,27.134h-3 M2,28.634h-3
			 M2,30.135h-3 M2,31.636h-3 M2,33.137h-3 M2,34.638h-3 M2,36.138h-3 M2,37.639h-3 M2,39.14h-3 M2,40.641h-3 M2,42.142h-3
			 M2,43.642h-3 M2,45.143h-3 M2,46.644h-3 M2,48.145h-3 M2,49.646h-3 M2,51.146h-3 M2,52.647h-3 M2,54.148h-3 M2,55.649h-3
			 M2,57.15h-3 M2,58.65h-3 M2,60.151h-3 M2,61.652h-3 M2,63.153h-3 M2,64.654h-3 M2,66.154h-3 M2,67.655h-3 M2,69.156h-3 M2,70.657
			h-3 M2,72.158h-3 M2,73.658h-3 M2,75.159h-3 M2,76.66h-3 M2,78.161h-3 M2,79.662h-3 M2,81.162h-3 M2,82.663h-3 M2,84.164h-3
			 M2,85.665h-3 M2,87.166h-3 M2,88.666h-3 M2,90.167h-3 M2,91.668h-3 M2,93.169h-3 M2,94.67h-3 M2,96.171h-3 M2,97.671h-3
			 M2,99.172h-3 M2,100.673h-3 M2,102.174h-3 M2,103.675h-3 M2,105.175h-3 M2,106.676h-3 M2,108.177h-3 M2,109.678h-3 M2,111.179h-3
			 M2,112.679h-3 M2,114.18h-3 M2,115.681h-3 M2,117.182h-3 M2,118.683h-3 M2,120.183h-3 M2,121.684h-3 M2,123.185h-3 M2,124.686h-3
			 M2,126.187h-3 M2,127.687h-3 M2,129.188h-3 M0.957,128.732v3 M2.458,128.732v3 M3.958,128.732v3 M5.459,128.732v3 M6.96,128.732
			v3 M8.461,128.732v3 M9.962,128.732v3 M11.462,128.732v3 M12.963,128.732v3 M14.464,128.732v3 M15.965,128.732v3 M17.466,128.732
			v3 M18.966,128.732v3 M20.467,128.732v3 M21.968,128.732v3 M23.469,128.732v3 M24.97,128.732v3 M26.47,128.732v3 M27.971,128.732
			v3 M29.472,128.732v3 M30.973,128.732v3 M32.474,128.732v3 M33.974,128.732v3 M35.475,128.732v3 M36.976,128.732v3
			 M38.477,128.732v3 M39.978,128.732v3 M41.478,128.732v3 M42.979,128.732v3 M44.48,128.732v3 M45.981,128.732v3 M47.482,128.732v3
			 M48.982,128.732v3 M50.483,128.732v3 M51.984,128.732v3 M53.485,128.732v3 M54.986,128.732v3 M56.487,128.732v3 M57.987,128.732
			v3 M59.488,128.732v3 M60.989,128.732v3 M62.49,128.732v3 M63.991,128.732v3 M65.491,128.732v3 M66.992,128.732v3 M68.493,128.732
			v3 M69.994,128.732v3 M71.495,128.732v3 M72.995,128.732v3 M74.496,128.732v3 M75.997,128.732v3 M77.498,128.732v3
			 M78.999,128.732v3 M80.499,128.732v3 M82,128.732v3 M83.501,128.732v3 M85.002,128.732v3 M86.503,128.732v3 M88.003,128.732v3
			 M89.504,128.732v3 M91.005,128.732v3 M92.506,128.732v3 M94.007,128.732v3 M95.507,128.732v3 M97.008,128.732v3 M98.509,128.732
			v3 M100.01,128.732v3 M101.511,128.732v3 M103.011,128.732v3 M104.512,128.732v3 M106.013,128.732v3 M107.514,128.732v3
			 M109.015,128.732v3 M110.515,128.732v3 M112.016,128.732v3 M113.517,128.732v3 M115.018,128.732v3 M116.519,128.732v3
			 M118.02,128.732v3 M119.52,128.732v3 M121.021,128.732v3 M122.522,128.732v3 M124.023,128.732v3 M125.524,128.732v3
			 M127.024,128.732v3 M128.525,128.732v3 M130.026,128.732v3 M131.527,128.732v3 M133.028,128.732v3 M134.528,128.732v3
			 M136.029,128.732v3 M137.53,128.732v3 M139.031,128.732v3 M140.532,128.732v3 M142.032,128.732v3 M143.533,128.732v3
			 M145.034,128.732v3 M146.535,128.732v3 M148.036,128.732v3 M149.536,128.732v3 M151.037,128.732v3 M152.538,128.732v3
			 M154.039,128.732v3 M155.54,128.732v3 M157.04,128.732v3 M158.541,128.732v3 M160.042,128.732v3 M161.543,128.732v3
			 M163.044,128.732v3 M164.544,128.732v3 M166.045,128.732v3 M167.546,128.732v3 M169.047,128.732v3 M170.548,128.732v3
			 M172.048,128.732v3 M173.549,128.732v3 M175.05,128.732v3 M176.551,128.732v3 M178.052,128.732v3 M179.552,128.732v3
			 M181.053,128.732v3 M182.554,128.732v3 M184.055,128.732v3 M185.556,128.732v3 M187.057,128.732v3 M188.557,128.732v3
			 M190.058,128.732v3 M191.559,128.732v3 M193.06,128.732v3 M194.561,128.732v3 M196.061,128.732v3 M197.562,128.732v3
			 M199.063,128.732v3 M200.564,128.732v3 M202.065,128.732v3 M203.565,128.732v3 M205.066,128.732v3 M206.567,128.732v3
			 M208.068,128.732v3 M209.569,128.732v3 M211.069,128.732v3 M212.57,128.732v3 M214.071,128.732v3 M215.572,128.732v3
			 M217.073,128.732v3 M218.573,128.732v3 M220.074,128.732v3 M221.575,128.732v3 M223.076,128.732v3 M224.577,128.732v3
			 M226.077,128.732v3 M227.578,128.732v3 M229.079,128.732v3 M230.58,128.732v3 M232.081,128.732v3 M233.581,128.732v3
			 M235.082,128.732v3 M236.583,128.732v3 M238.084,128.732v3 M239.585,128.732v3 M241.085,128.732v3 M242.586,128.732v3
			 M244.087,128.732v3 M245.588,128.732v3 M247.089,128.732v3 M248.59,128.732v3 M250.09,128.732v3 M251.591,128.732v3
			 M253.092,128.732v3 M254.593,128.732v3 M256.094,128.732v3 M257.594,128.732v3 M259.095,128.732v3 M260.596,128.732v3
			 M262.097,128.732v3 M263.598,128.732v3 M265.098,128.732v3 M266.599,128.732v3 M268.1,128.732v3 M269.601,128.732v3
			 M271.102,128.732v3 M272.602,128.732v3 M274.103,128.732v3 M275.604,128.732v3 M277.105,128.732v3 M278.606,128.732v3
			 M280.106,128.732v3 M281.607,128.732v3 M283.108,128.732v3 M284.609,128.732v3 M286.11,128.732v3 M287.61,128.732v3
			 M289.111,128.732v3 M290.612,128.732v3 M292.113,128.732v3 M293.614,128.732v3 M295.114,128.732v3 M296.615,128.732v3
			 M298.116,128.732v3 M299.617,128.732v3 M301.118,128.732v3 M302.618,128.732v3 M304.119,128.732v3 M305.62,128.732v3
			 M307.121,128.732v3 M308.622,128.732v3 M310.122,128.732v3 M311.623,128.732v3 M313.124,128.732v3 M314.625,128.732v3
			 M316.126,128.732v3 M317.627,128.732v3 M319.127,128.732v3 M320.628,128.732v3 M322.129,128.732v3 M323.63,128.732v3
			 M325.131,128.732v3 M326.631,128.732v3 M328.132,128.732v3 M329.633,128.732v3 M331.134,128.732v3 M332.635,128.732v3
			 M334.135,128.732v3 M335.636,128.732v3 M337.137,128.732v3 M338.638,128.732v3 M340.139,128.732v3 M341.639,128.732v3
			 M343.14,128.732v3 M344.641,128.732v3 M346.142,128.732v3 M347.643,128.732v3 M349.143,128.732v3 M350.644,128.732v3
			 M352.145,128.732v3 M353.646,128.732v3 M355.147,128.732v3 M356.647,128.732v3 M358.148,128.732v3 M359.649,128.732v3
			 M361.15,128.732v3 M362.651,128.732v3 M364.151,128.732v3 M365.652,128.732v3 M367.153,128.732v3 M368.654,128.732v3
			 M370.155,128.732v3 M371.655,128.732v3 M373.156,128.732v3 M374.657,128.732v3 M376.158,128.732v3 M377.659,128.732v3
			 M379.16,128.732v3 M380.66,128.732v3 M382.161,128.732v3 M383.662,128.732v3 M385.163,128.732v3 M386.664,128.732v3
			 M388.164,128.732v3 M389.665,128.732v3 M391.166,128.732v3 M392.667,128.732v3 M394.168,128.732v3 M395.668,128.732v3
			 M397.169,128.732v3 M398.67,128.732v3 M400.171,128.732v3 M401.672,128.732v3 M403.172,128.732v3 M404.673,128.732v3
			 M406.174,128.732v3 M407.675,128.732v3 M409.176,128.732v3 M410.676,128.732v3 M412.177,128.732v3 M413.678,128.732v3
			 M415.179,128.732v3 M416.68,128.732v3 M418.18,128.732v3 M419.681,128.732v3 M421.182,128.732v3 M422.683,128.732v3
			 M424.184,128.732v3 M425.684,128.732v3 M427.185,128.732v3 M428.686,128.732v3 M430.187,128.732v3 M431.688,128.732v3
			 M433.188,128.732v3 M434.689,128.732v3 M436.19,128.732v3 M437.691,128.732v3 M439.192,128.732v3 M440.693,128.732v3
			 M442.193,128.732v3 M443.694,128.732v3 M445.195,128.732v3 M446.696,128.732v3 M448.197,128.732v3 M449.697,128.732v3
			 M451.198,128.732v3 M452.699,128.732v3 M454.2,128.732v3 M455.701,128.732v3 M457.201,128.732v3 M458.702,128.732v3
			 M460.203,128.732v3 M461.704,128.732v3 M463.205,128.732v3 M464.705,128.732v3 M466.206,128.732v3 M467.707,128.732v3
			 M469.208,128.732v3 M470.709,128.732v3 M472.209,128.732v3 M473.71,128.732v3 M475.211,128.732v3 M476.712,128.732v3
			 M478.213,128.732v3 M479.713,128.732v3 M481.214,128.732v3 M482.715,128.732v3 M484.216,128.732v3 M485.717,128.732v3
			 M487.217,128.732v3 M488.718,128.732v3 M490.219,128.732v3 M491.72,128.732v3 M493.221,128.732v3 M494.721,128.732v3
			 M496.222,128.732v3 M497.723,128.732v3 M499.224,128.732v3 M500.725,128.732v3 M502.225,128.732v3 M503.726,128.732v3
			 M505.227,128.732v3 M506.728,128.732v3 M508.229,128.732v3 M509.73,128.732v3 M511.23,128.732v3 M512.731,128.732v3
			 M514.232,128.732v3 M515.733,128.732v3 M517.234,128.732v3 M518.734,128.732v3 M520.235,128.732v3 M521.736,128.732v3
			 M523.237,128.732v3 M524.738,128.732v3 M526.238,128.732v3 M527.739,128.732v3 M529.24,128.732v3 M530.741,128.732v3
			 M532.242,128.732v3 M533.742,128.732v3 M535.243,128.732v3 M536.744,128.732v3 M538.245,128.732v3 M539.746,128.732v3
			 M541.246,128.732v3 M542.747,128.732v3 M544.248,128.732v3 M545.749,128.732v3 M547.25,128.732v3 M548.75,128.732v3
			 M550.251,128.732v3 M551.752,128.732v3 M553.253,128.732v3 M554.754,128.732v3 M556.254,128.732v3 M557.755,128.732v3
			 M559.256,128.732v3 M560.757,128.732v3 M562.258,128.732v3 M563.758,128.732v3 M565.259,128.732v3 M566.76,128.732v3
			 M568.261,128.732v3 M569.762,128.732v3 M571.263,128.732v3 M572.763,128.732v3 M574.264,128.732v3 M575.765,128.732v3
			 M577.266,128.732v3 M578.767,128.732v3 M580.267,128.732v3 M581.768,128.732v3 M583.269,128.732v3 M584.77,128.732v3
			 M586.271,128.732v3 M587.771,128.732v3 M589.272,128.732v3 M590.773,128.732v3 M592.274,128.732v3 M593.775,128.732v3
			 M595.275,128.732v3 M596.776,128.732v3 M598.277,128.732v3 M599.778,128.732v3 M601.279,128.732v3 M602.779,128.732v3
			 M604.28,128.732v3 M605.781,128.732v3 M607.282,128.732v3 M608.783,128.732v3 M610.283,128.732v3 M611.784,128.732v3
			 M613.285,128.732v3 M612.535,129.482h3 M612.535,127.981h3 M612.535,126.48h3 M612.535,124.979h3 M612.535,123.479h3
			 M612.535,121.978h3 M612.535,120.477h3 M612.535,118.976h3 M612.535,117.475h3 M612.535,115.975h3 M612.535,114.474h3
			 M612.535,112.973h3 M612.535,111.472h3 M612.535,109.971h3 M612.535,108.471h3 M612.535,106.97h3 M612.535,105.469h3
			 M612.535,103.968h3 M612.535,102.467h3 M612.535,100.967h3 M612.535,99.466h3 M612.535,97.965h3 M612.535,96.464h3
			 M612.535,94.963h3 M612.535,93.463h3 M612.535,91.962h3 M612.535,90.461h3 M612.535,88.96h3 M612.535,87.459h3 M612.535,85.959h3
			 M612.535,84.458h3 M612.535,82.957h3 M612.535,81.456h3 M612.535,79.955h3 M612.535,78.455h3 M612.535,76.954h3 M612.535,75.453
			h3 M612.535,73.952h3 M612.535,72.451h3 M612.535,70.951h3 M612.535,69.45h3 M612.535,67.949h3 M612.535,66.448h3 M612.535,64.947
			h3 M612.535,63.446h3 M612.535,61.946h3 M612.535,60.445h3 M612.535,58.944h3 M612.535,57.443h3 M612.535,55.942h3
			 M612.535,54.442h3 M612.535,52.941h3 M612.535,51.44h3 M612.535,49.939h3 M612.535,48.438h3 M612.535,46.938h3 M612.535,45.437h3
			 M612.535,43.936h3 M612.535,42.435h3 M612.535,40.934h3 M612.535,39.434h3 M612.535,37.933h3 M612.535,36.432h3 M612.535,34.931
			h3 M612.535,33.43h3 M612.535,31.93h3 M612.535,30.429h3 M612.535,28.928h3 M612.535,27.427h3 M612.535,25.926h3 M612.535,24.426
			h3 M612.535,22.925h3 M612.535,21.424h3 M612.535,19.923h3 M612.535,18.422h3 M612.535,16.922h3 M612.535,15.421h3 M612.535,13.92
			h3 M612.535,12.419h3 M612.535,10.918h3 M612.535,9.418h3 M612.535,7.917h3 M612.535,6.416h3 M612.535,4.915h3 M612.535,3.414h3
			 M612.535,1.913h3 M612.535,0.413h3 M612.535-1.088h3 M612.535-2.589h3 M612.535-4.09h3 M612.535-5.591h3 M612.535-7.091h3
			 M612.535-8.592h3 M612.535-10.093h3 M612.535-11.594h3 M612.535-13.095h3 M612.535-14.595h3 M612.535-16.096h3 M612.535-17.597h3
			 M612.535-19.098h3 M612.535-20.599h3 M612.535-22.099h3 M612.535-23.6h3 M612.535-25.101h3 M612.535-26.602h3 M612.535-28.103h3
			 M612.535-29.603h3 M612.535-31.104h3 M612.535-32.605h3 M612.535-34.106h3 M612.535-35.607h3 M612.535-37.107h3 M612.535-38.608
			h3 M612.535-40.109h3 M612.535-41.61h3 M612.535-43.111h3 M612.535-44.611h3 M612.535-46.112h3 M612.535-47.613h3 M612.535-49.114
			h3 M612.535-50.615h3 M612.535-52.115h3 M612.535-53.616h3 M612.535-55.117h3 M612.535-56.618h3 M612.535-58.119h3 M612.535-59.62
			h3 M612.535-61.12h3 M612.535-62.621h3 M612.535-64.122h3 M612.535-65.623h3 M612.535-67.124h3 M612.535-68.624h3 M612.535-70.125
			h3 M612.535-71.626h3 M612.535-73.127h3 M612.535-74.628h3 M612.535-76.128h3 M612.535-77.629h3 M612.535-79.13h3 M612.535-80.631
			h3 M612.535-82.132h3 M612.535-83.632h3 M612.535-85.133h3 M612.535-86.634h3 M612.535-88.135h3 M612.535-89.636h3
			 M612.535-91.136h3 M612.535-92.637h3 M612.535-94.138h3 M612.535-95.639h3 M612.535-97.14h3 M612.535-98.64h3 M612.535-100.141h3
			 M612.535-101.642h3 M612.535-103.143h3 M612.535-104.644h3 M612.535-106.144h3 M612.535-107.645h3 M612.535-109.146h3
			 M612.535-110.647h3 M612.535-112.148h3 M612.535-113.648h3 M612.535-115.149h3 M612.535-116.65h3 M612.535-118.151h3
			 M612.535-119.652h3 M612.535-121.152h3 M612.535-122.653h3 M612.535-124.154h3 M612.535-125.655h3 M612.535-127.156h3
			 M612.535-128.657h3 M612.535-130.157h3 M612.535-131.658h3 M613.109-130.732v-3 M611.608-130.732v-3 M610.107-130.732v-3
			 M608.606-130.732v-3 M607.106-130.732v-3 M605.605-130.732v-3 M604.104-130.732v-3 M602.603-130.732v-3 M601.102-130.732v-3
			 M599.602-130.732v-3 M598.101-130.732v-3 M596.6-130.732v-3 M595.099-130.732v-3 M593.598-130.732v-3 M592.098-130.732v-3
			 M590.597-130.732v-3 M589.096-130.732v-3 M587.595-130.732v-3 M586.094-130.732v-3 M584.594-130.732v-3 M583.093-130.732v-3
			 M581.592-130.732v-3 M580.091-130.732v-3 M578.59-130.732v-3 M577.089-130.732v-3 M575.589-130.732v-3 M574.088-130.732v-3
			 M572.587-130.732v-3 M571.086-130.732v-3 M569.585-130.732v-3 M568.085-130.732v-3 M566.584-130.732v-3 M565.083-130.732v-3
			 M563.582-130.732v-3 M562.081-130.732v-3 M560.581-130.732v-3 M559.08-130.732v-3 M557.579-130.732v-3 M556.078-130.732v-3
			 M554.577-130.732v-3 M553.077-130.732v-3 M551.576-130.732v-3 M550.075-130.732v-3 M548.574-130.732v-3 M547.073-130.732v-3
			 M545.573-130.732v-3 M544.072-130.732v-3 M542.571-130.732v-3 M541.07-130.732v-3 M539.569-130.732v-3 M538.069-130.732v-3
			 M536.568-130.732v-3 M535.067-130.732v-3 M533.566-130.732v-3 M532.065-130.732v-3 M530.565-130.732v-3 M529.064-130.732v-3
			 M527.563-130.732v-3 M526.062-130.732v-3 M524.561-130.732v-3 M523.06-130.732v-3 M521.56-130.732v-3 M520.059-130.732v-3
			 M518.558-130.732v-3 M517.057-130.732v-3 M515.556-130.732v-3 M514.056-130.732v-3 M512.555-130.732v-3 M511.054-130.732v-3
			 M509.553-130.732v-3 M508.052-130.732v-3 M506.552-130.732v-3 M505.051-130.732v-3 M503.55-130.732v-3 M502.049-130.732v-3
			 M500.548-130.732v-3 M499.048-130.732v-3 M497.547-130.732v-3 M496.046-130.732v-3 M494.545-130.732v-3 M493.044-130.732v-3
			 M491.544-130.732v-3 M490.043-130.732v-3 M488.542-130.732v-3 M487.041-130.732v-3 M485.54-130.732v-3 M484.04-130.732v-3
			 M482.539-130.732v-3 M481.038-130.732v-3 M479.537-130.732v-3 M478.036-130.732v-3 M476.536-130.732v-3 M475.035-130.732v-3
			 M473.534-130.732v-3 M472.033-130.732v-3 M470.532-130.732v-3 M469.032-130.732v-3 M467.531-130.732v-3 M466.03-130.732v-3
			 M464.529-130.732v-3 M463.028-130.732v-3 M461.528-130.732v-3 M460.027-130.732v-3 M458.526-130.732v-3 M457.025-130.732v-3
			 M455.524-130.732v-3 M454.023-130.732v-3 M452.523-130.732v-3 M451.022-130.732v-3 M449.521-130.732v-3 M448.02-130.732v-3
			 M446.519-130.732v-3 M445.019-130.732v-3 M443.518-130.732v-3 M442.017-130.732v-3 M440.516-130.732v-3 M439.015-130.732v-3
			 M437.515-130.732v-3 M436.014-130.732v-3 M434.513-130.732v-3 M433.012-130.732v-3 M431.511-130.732v-3 M430.011-130.732v-3
			 M428.51-130.732v-3 M427.009-130.732v-3 M425.508-130.732v-3 M424.007-130.732v-3 M422.507-130.732v-3 M421.006-130.732v-3
			 M419.505-130.732v-3 M418.004-130.732v-3 M416.503-130.732v-3 M415.003-130.732v-3 M413.502-130.732v-3 M412.001-130.732v-3
			 M410.5-130.732v-3 M408.999-130.732v-3 M407.499-130.732v-3 M405.998-130.732v-3 M404.497-130.732v-3 M402.996-130.732v-3
			 M401.495-130.732v-3 M399.995-130.732v-3 M398.494-130.732v-3 M396.993-130.732v-3 M395.492-130.732v-3 M393.991-130.732v-3
			 M392.491-130.732v-3 M390.99-130.732v-3 M389.489-130.732v-3 M387.988-130.732v-3 M386.487-130.732v-3 M384.986-130.732v-3
			 M383.486-130.732v-3 M381.985-130.732v-3 M380.484-130.732v-3 M378.983-130.732v-3 M377.482-130.732v-3 M375.982-130.732v-3
			 M374.481-130.732v-3 M372.98-130.732v-3 M371.479-130.732v-3 M369.978-130.732v-3 M368.478-130.732v-3 M366.977-130.732v-3
			 M365.476-130.732v-3 M363.975-130.732v-3 M362.474-130.732v-3 M360.974-130.732v-3 M359.473-130.732v-3 M357.972-130.732v-3
			 M356.471-130.732v-3 M354.97-130.732v-3 M353.47-130.732v-3 M351.969-130.732v-3 M350.468-130.732v-3 M348.967-130.732v-3
			 M347.466-130.732v-3 M345.966-130.732v-3 M344.465-130.732v-3 M342.964-130.732v-3 M341.463-130.732v-3 M339.962-130.732v-3
			 M338.462-130.732v-3 M336.961-130.732v-3 M335.46-130.732v-3 M333.959-130.732v-3 M332.458-130.732v-3 M330.958-130.732v-3
			 M329.457-130.732v-3 M327.956-130.732v-3 M326.455-130.732v-3 M324.954-130.732v-3 M323.453-130.732v-3 M321.953-130.732v-3
			 M320.452-130.732v-3 M318.951-130.732v-3 M317.45-130.732v-3 M315.949-130.732v-3 M314.449-130.732v-3 M312.948-130.732v-3
			 M311.447-130.732v-3 M309.946-130.732v-3 M308.445-130.732v-3 M306.945-130.732v-3 M305.444-130.732v-3 M303.943-130.732v-3
			 M302.442-130.732v-3 M300.941-130.732v-3 M299.441-130.732v-3 M297.94-130.732v-3 M296.439-130.732v-3 M294.938-130.732v-3
			 M293.437-130.732v-3 M291.937-130.732v-3 M290.436-130.732v-3 M288.935-130.732v-3 M287.434-130.732v-3 M285.933-130.732v-3
			 M284.433-130.732v-3 M282.932-130.732v-3 M281.431-130.732v-3 M279.93-130.732v-3 M278.429-130.732v-3 M276.929-130.732v-3
			 M275.428-130.732v-3 M273.927-130.732v-3 M272.426-130.732v-3 M270.925-130.732v-3 M269.425-130.732v-3 M267.924-130.732v-3
			 M266.423-130.732v-3 M264.922-130.732v-3 M263.421-130.732v-3 M261.921-130.732v-3 M260.42-130.732v-3 M258.919-130.732v-3
			 M257.418-130.732v-3 M255.917-130.732v-3 M254.416-130.732v-3 M252.916-130.732v-3 M251.415-130.732v-3 M249.914-130.732v-3
			 M248.413-130.732v-3 M246.912-130.732v-3 M245.412-130.732v-3 M243.911-130.732v-3 M242.41-130.732v-3 M240.909-130.732v-3
			 M239.408-130.732v-3 M237.908-130.732v-3 M236.407-130.732v-3 M234.906-130.732v-3 M233.405-130.732v-3 M231.904-130.732v-3
			 M230.404-130.732v-3 M228.903-130.732v-3 M227.402-130.732v-3 M225.901-130.732v-3 M224.4-130.732v-3 M222.9-130.732v-3
			 M221.399-130.732v-3 M219.898-130.732v-3 M218.397-130.732v-3 M216.896-130.732v-3 M215.396-130.732v-3 M213.895-130.732v-3
			 M212.394-130.732v-3 M210.893-130.732v-3 M209.392-130.732v-3 M207.892-130.732v-3 M206.391-130.732v-3 M204.89-130.732v-3
			 M203.389-130.732v-3 M201.888-130.732v-3 M200.388-130.732v-3 M198.887-130.732v-3 M197.386-130.732v-3 M195.885-130.732v-3
			 M194.384-130.732v-3 M192.883-130.732v-3 M191.383-130.732v-3 M189.882-130.732v-3 M188.381-130.732v-3 M186.88-130.732v-3
			 M185.379-130.732v-3 M183.879-130.732v-3 M182.378-130.732v-3 M180.877-130.732v-3 M179.376-130.732v-3 M177.875-130.732v-3
			 M176.375-130.732v-3 M174.874-130.732v-3 M173.373-130.732v-3 M171.872-130.732v-3 M170.371-130.732v-3 M168.871-130.732v-3
			 M167.37-130.732v-3 M165.869-130.732v-3 M164.368-130.732v-3 M162.867-130.732v-3 M161.367-130.732v-3 M159.866-130.732v-3
			 M158.365-130.732v-3 M156.864-130.732v-3 M155.363-130.732v-3 M153.863-130.732v-3 M152.362-130.732v-3 M150.861-130.732v-3
			 M149.36-130.732v-3 M147.859-130.732v-3 M146.359-130.732v-3 M144.858-130.732v-3 M143.357-130.732v-3 M141.856-130.732v-3
			 M140.355-130.732v-3 M138.855-130.732v-3 M137.354-130.732v-3 M135.853-130.732v-3 M134.352-130.732v-3 M132.851-130.732v-3
			 M131.351-130.732v-3 M129.85-130.732v-3 M128.349-130.732v-3 M126.848-130.732v-3 M125.347-130.732v-3 M123.846-130.732v-3
			 M122.346-130.732v-3 M120.845-130.732v-3 M119.344-130.732v-3 M117.843-130.732v-3 M116.342-130.732v-3 M114.842-130.732v-3
			 M113.341-130.732v-3 M111.84-130.732v-3 M110.339-130.732v-3 M108.838-130.732v-3 M107.338-130.732v-3 M105.837-130.732v-3
			 M104.336-130.732v-3 M102.835-130.732v-3 M101.334-130.732v-3 M99.834-130.732v-3 M98.333-130.732v-3 M96.832-130.732v-3
			 M95.331-130.732v-3 M93.83-130.732v-3 M92.33-130.732v-3 M90.829-130.732v-3 M89.328-130.732v-3 M87.827-130.732v-3
			 M86.326-130.732v-3 M84.826-130.732v-3 M83.325-130.732v-3 M81.824-130.732v-3 M80.323-130.732v-3 M78.822-130.732v-3
			 M77.322-130.732v-3 M75.821-130.732v-3 M74.32-130.732v-3 M72.819-130.732v-3 M71.318-130.732v-3 M69.818-130.732v-3
			 M68.317-130.732v-3 M66.816-130.732v-3 M65.315-130.732v-3 M63.814-130.732v-3 M62.313-130.732v-3 M60.813-130.732v-3
			 M59.312-130.732v-3 M57.811-130.732v-3 M56.31-130.732v-3 M54.809-130.732v-3 M53.309-130.732v-3 M51.808-130.732v-3
			 M50.307-130.732v-3 M48.806-130.732v-3 M47.305-130.732v-3 M45.805-130.732v-3 M44.304-130.732v-3 M42.803-130.732v-3
			 M41.302-130.732v-3 M39.801-130.732v-3 M38.301-130.732v-3 M36.8-130.732v-3 M35.299-130.732v-3 M33.798-130.732v-3
			 M32.297-130.732v-3 M30.797-130.732v-3 M29.296-130.732v-3 M27.795-130.732v-3 M26.294-130.732v-3 M24.793-130.732v-3
			 M23.293-130.732v-3 M21.792-130.732v-3 M20.291-130.732v-3 M18.79-130.732v-3 M17.289-130.732v-3 M15.789-130.732v-3
			 M14.288-130.732v-3 M12.787-130.732v-3 M11.286-130.732v-3 M9.785-130.732v-3 M8.285-130.732v-3 M6.784-130.732v-3
			 M5.283-130.732v-3 M3.782-130.732v-3 M2.281-130.732v-3 M0.78-130.732v-3"/>
	</g>
	<g transform="matrix(34 0 0 34 93.5433 57.3422)">
		<text fill="#000000" font-family="'MyriadApple-Bold'" font-size="1" glyph-orientation-horizontal="0.0" kerning="0"><tspan x="0" y="0">NAB 2007 S</tspan><tspan x="4.978" y="0">p</tspan><tspan x="5.558" y="0">ecial E</tspan><tspan x="8.261" y="0">v</tspan><tspan x="8.75" y="0">en</tspan><tspan x="9.818" y="0">t</tspan></text>
	</g>
	<g transform="matrix(34 0 0 34 93.5433 93.3422)">
		<text fill="#000000" font-family="'MyriadApple-Bold'" font-size="1" glyph-orientation-horizontal="0.0" kerning="0"><tspan x="0" y="0">_type_</tspan></text>
	</g>
	<g transform="matrix(9 0 0 9 95.7238 255.1362)">
		<text fill="#000000" font-family="'MyriadApple-Text'" font-size="1" glyph-orientation-horizontal="0.0" kerning="0"><tspan x="0" y="0">C</tspan><tspan x="0.561" y="0">heck-in b</tspan><tspan x="4.337" y="0">egins a</tspan><tspan x="7.22" y="0">t 9:3</tspan><tspan x="8.957" y="0">0 a.m.</tspan><tspan x="11.331" y="0"> P</tspan><tspan x="12.083" y="0">lease pr</tspan><tspan x="15.243" y="0">in</tspan><tspan x="15.999" y="0">t and br</tspan><tspan x="19.227" y="0">ing this tick</tspan><tspan x="23.924" y="0">et with y</tspan><tspan x="27.465" y="0">ou t</tspan><tspan x="29.089" y="0">o the e</tspan><tspan x="31.938" y="0">v</tspan><tspan x="32.393" y="0">en</tspan><tspan x="33.412" y="0">t f</tspan><tspan x="34.242" y="0">or e</tspan><tspan x="35.815" y="0">xp</tspan><tspan x="36.815" y="0">edit</tspan><tspan x="38.387" y="0">ed check-in.</tspan></text>
	</g>
	<g transform="matrix(9 0 0 9 95.7238 265.9362)">
		<text fill="#000000" font-family="'MyriadApple-Text'" font-size="1" glyph-orientation-horizontal="0.0" kerning="0"><tspan x="0" y="0">T</tspan><tspan x="0.472" y="0">his tick</tspan><tspan x="3.299" y="0">et is non-tr</tspan><tspan x="7.742" y="0">ansf</tspan><tspan x="9.4" y="0">er</tspan><tspan x="10.196" y="0">able</tspan><tspan x="11.916" y="0">.</tspan></text>
	</g>
	<g transform="matrix(14 0 0 14 95.7238 175.0441)">
		<text fill="#000000" font-family="'MyriadApple-Text'" font-size="1" glyph-orientation-horizontal="0.0" kerning="0"><tspan x="0" y="0">Sunda</tspan><tspan x="2.555" y="0">y</tspan><tspan x="2.952" y="0">,</tspan><tspan x="3.11" y="0"> A</tspan><tspan x="3.937" y="0">pr</tspan><tspan x="4.807" y="0">il 1</tspan><tspan x="5.875" y="0">5</tspan><tspan x="6.333" y="0">,</tspan><tspan x="6.491" y="0"> 2</tspan><tspan x="7.217" y="0">007 a</tspan><tspan x="9.416" y="0">t 1</tspan><tspan x="10.296" y="0">1:00 a.m.</tspan><tspan x="13.863" y="0"> PDT</tspan></text>
	</g>
	<g transform="matrix(14 0 0 14 95.7238 191.0441)">
		<text fill="#000000" font-family="'MyriadApple-Text'" font-size="1" glyph-orientation-horizontal="0.0" kerning="0"><tspan x="0" y="0">R</tspan><tspan x="0.523" y="0">ec</tspan><tspan x="1.442" y="0">eption t</tspan><tspan x="4.655" y="0">o f</tspan><tspan x="5.698" y="0">ollo</tspan><tspan x="7.206" y="0">w</tspan></text>
	</g>
	<clipPath id="clp2">
		<path shape-rendering="crispEdges" stroke="#000000" d="M44.447,26.315v32.913h26.8V26.315H44.447z"/>
	</clipPath>
	<g clip-path="url(#clp2)">
		<clipPath id="clp3">
			<path shape-rendering="crispEdges" stroke="#000000" d="M42.992,26.315h28.255v32.913H42.992z"/>
		</clipPath>
		<g clip-path="url(#clp3)">
			<g transform="matrix(0.9561 0 0 0.9561 -326.3715 329.3237)">
				<path fill="#999999" d="M415.883-291.736c-0.043,0.121-0.721,2.465-2.378,4.883c-1.431,2.094-2.917,4.18-5.257,4.223
					c-2.3,0.043-3.039-1.365-5.667-1.365c-2.631,0-3.454,1.322-5.627,1.408c-2.26,0.085-3.981-2.262-5.424-4.348
					c-2.95-4.265-5.2-12.051-2.174-17.303c1.5-2.61,4.188-4.263,7.104-4.306c2.22-0.041,4.311,1.492,5.669,1.492
					c1.355,0,3.898-1.845,6.573-1.574c1.118,0.048,4.262,0.45,6.282,3.406c-0.162,0.102-3.752,2.19-3.713,6.535
					C411.318-293.486,415.831-291.759,415.883-291.736z M406.949-311.444c1.203-1.454,2.009-3.473,1.787-5.483
					c-1.728,0.063-3.82,1.15-5.059,2.601c-1.111,1.286-2.086,3.341-1.822,5.311C403.782-308.865,405.751-309.995,406.949-311.444"/>
			</g>
		</g>
	</g>
	<g transform="matrix(9.184851e-17 -1.5 1.5 9.184851e-17 564.311 236.7874)">
		<text fill="#000000" font-family="'MyriadApple-Text'" font-size="1" glyph-orientation-horizontal="0.0" kerning="0"><tspan x="0" y="0">_barcode_</tspan></text>
	</g>
	<g transform="matrix(14 0 0 14 95.811 126.8555)">
		<text fill="#000000" font-family="'MyriadApple-Semibold'" font-size="1" glyph-orientation-horizontal="0.0" kerning="0"><tspan x="0" y="0">_fullname_</tspan></text>
	</g>
	<g transform="matrix(9 0 0 9 95.6693 213.0267)">
		<text fill="#000000" font-family="'MyriadApple-Text'" font-size="1" glyph-orientation-horizontal="0.0" kerning="0"><tspan x="0" y="0">V</tspan><tspan x="0.501" y="0">enetian B</tspan><tspan x="4.334" y="0">allr</tspan><tspan x="5.556" y="0">o</tspan><tspan x="6.09" y="0">om</tspan></text>
	</g>
	<g transform="matrix(9 0 0 9 95.6693 223.8267)">
		<text fill="#000000" font-family="'MyriadApple-Text'" font-size="1" glyph-orientation-horizontal="0.0" kerning="0"><tspan x="0" y="0">T</tspan><tspan x="0.472" y="0">he </tspan><tspan x="1.705" y="0">V</tspan><tspan x="2.206" y="0">enetian B</tspan><tspan x="6.039" y="0">allr</tspan><tspan x="7.261" y="0">o</tspan><tspan x="7.795" y="0">om and C</tspan><tspan x="11.738" y="0">asino</tspan></text>
	</g>
	<g transform="matrix(9 0 0 9 95.6693 234.6267)">
		<text fill="#000000" font-family="'MyriadApple-Text'" font-size="1" glyph-orientation-horizontal="0.0" kerning="0"><tspan x="0" y="0">Las </tspan><tspan x="1.513" y="0">V</tspan><tspan x="2.014" y="0">egas</tspan><tspan x="3.88" y="0">,</tspan><tspan x="4.038" y="0"> N</tspan><tspan x="4.919" y="0">e</tspan><tspan x="5.405" y="0">v</tspan><tspan x="5.856" y="0">ada</tspan></text>
	</g>
	<g transform="matrix(1 0 0 1 -1.4173 238.3268)">
		<path stroke="#000000" stroke-width="0.7497" d="M96.378,4.252h394.99"/>
	</g>
	<g transform="matrix(14 0 0 14 95.811 144.8551)">
		<text fill="#000000" font-family="'MyriadApple-Semibold'" font-size="1" glyph-orientation-horizontal="0.0" kerning="0"><tspan x="0" y="0">_company_</tspan></text>
	</g>
</g>
</svg>
