<?xml version="1.0" encoding="utf-8"?>
<!-- Generator: Adobe InDesign 3.0 SVG Export Plug-in, SVG Library version: 6.0 build 78 -->
<!DOCTYPE svg PUBLIC "-//W3C//DTD SVG 1.0//EN"    "http://www.w3.org/TR/2001/REC-SVG-20010904/DTD/svg10.dtd" [
	<!ENTITY ns_svg "http://www.w3.org/2000/svg">
	<!ENTITY ns_xlink "http://www.w3.org/1999/xlink">
]>
<svg  xmlns="&ns_svg;" xmlns:xlink="&ns_xlink;" width="612pt" height="216pt" xml:space="preserve">
	<clipPath id="clp1" style="fill:none;">
		<path style="shape-rendering:crispEdges;stroke:#000000;" d="M0,0h612v216H0z"/>
	</clipPath>
	<g style="clip-path:url(#clp1);fill:none;">
		<g transform="matrix(36 0 0 36 75.1181 48.6027)">
			<text style="fill:#000000; font-family:'MyriadApple-Bold'; font-size:1;glyph-orientation-horizontal:0.0; kerning:0;"><tspan x="0" y="0">NAB 2005 S</tspan><tspan x="4.978" y="0">p</tspan><tspan x="5.558" y="0">ecial E</tspan><tspan x="8.261" y="0">v</tspan><tspan x="8.75" y="0">en</tspan><tspan x="9.818" y="0">t</tspan></text>
		</g>
		<g transform="matrix(9 0 0 9 77.2986 180.963)">
			<text style="fill:#000000; font-family:'MyriadApple-Text'; font-size:1;glyph-orientation-horizontal:0.0; kerning:0;"><tspan x="0" y="0">C</tspan><tspan x="0.561" y="0">heck-in b</tspan><tspan x="4.337" y="0">egins a</tspan><tspan x="7.22" y="0">t 1</tspan><tspan x="8.194" y="0">0:00 a.m.</tspan><tspan x="11.761" y="0"> A r</tspan><tspan x="13.145" y="0">ec</tspan><tspan x="14.064" y="0">eption will f</tspan><tspan x="18.866" y="0">ollo</tspan><tspan x="20.374" y="0">w the e</tspan><tspan x="23.412" y="0">v</tspan><tspan x="23.867" y="0">en</tspan><tspan x="24.886" y="0">t.</tspan></text>
		</g>
		<g transform="matrix(9 0 0 9 77.2986 191.763)">
			<text style="fill:#000000; font-family:'MyriadApple-Text'; font-size:1;glyph-orientation-horizontal:0.0; kerning:0;"><tspan x="0" y="0">P</tspan><tspan x="0.51" y="0">lease pr</tspan><tspan x="3.67" y="0">in</tspan><tspan x="4.426" y="0">t and br</tspan><tspan x="7.654" y="0">ing this tick</tspan><tspan x="12.351" y="0">et with y</tspan><tspan x="15.892" y="0">ou t</tspan><tspan x="17.516" y="0">o the e</tspan><tspan x="20.366" y="0">v</tspan><tspan x="20.821" y="0">en</tspan><tspan x="21.84" y="0">t f</tspan><tspan x="22.67" y="0">or e</tspan><tspan x="24.243" y="0">xp</tspan><tspan x="25.243" y="0">edit</tspan><tspan x="26.815" y="0">ed check-in.</tspan><tspan x="31.663" y="0"> </tspan><tspan x="31.864" y="0">T</tspan><tspan x="32.336" y="0">his tick</tspan><tspan x="35.163" y="0">et is non-tr</tspan><tspan x="39.605" y="0">ansf</tspan><tspan x="41.263" y="0">er</tspan><tspan x="42.059" y="0">able</tspan><tspan x="43.779" y="0">.</tspan></text>
		</g>
		<g transform="matrix(14 0 0 14 77.2986 109.1386)">
			<text style="fill:#000000; font-family:'MyriadApple-Semibold'; font-size:1;glyph-orientation-horizontal:0.0; kerning:0;"><tspan x="0" y="0">S</tspan><tspan x="0.5" y="0">unda</tspan><tspan x="2.648" y="0">y</tspan><tspan x="3.073" y="0">,</tspan><tspan x="3.261" y="0"> A</tspan><tspan x="4.104" y="0">pr</tspan><tspan x="5.013" y="0">il 1</tspan><tspan x="6.146" y="0">7</tspan><tspan x="6.515" y="0">,</tspan><tspan x="6.703" y="0"> 2005</tspan></text>
		</g>
		<g transform="matrix(14 0 0 14 77.2986 125.1386)">
			<text style="fill:#000000; font-family:'MyriadApple-Semibold'; font-size:1;glyph-orientation-horizontal:0.0; kerning:0;"><tspan x="0" y="0">1</tspan><tspan x="0.349" y="0">1:00 a.m.</tspan><tspan x="4.062" y="0"> t</tspan><tspan x="4.631" y="0">o 1</tspan><tspan x="5.818" y="0">2:1</tspan><tspan x="6.979" y="0">5 p</tspan><tspan x="8.273" y="0">.m.</tspan></text>
		</g>
		<g transform="matrix(14 0 0 14 77.2986 141.1386)">
			<text style="fill:#000000; font-family:'MyriadApple-Semibold'; font-size:1;glyph-orientation-horizontal:0.0; kerning:0;"><tspan x="0" y="0">R</tspan><tspan x="0.558" y="0">iv</tspan><tspan x="1.278" y="0">oli B</tspan><tspan x="3.106" y="0">allr</tspan><tspan x="4.417" y="0">o</tspan><tspan x="4.965" y="0">om,</tspan><tspan x="6.529" y="0"> P</tspan><tspan x="7.275" y="0">a</tspan><tspan x="7.761" y="0">r</tspan><tspan x="8.102" y="0">is L</tspan><tspan x="9.461" y="0">as </tspan><tspan x="10.554" y="0">V</tspan><tspan x="11.086" y="0">egas H</tspan><tspan x="13.926" y="0">ot</tspan><tspan x="14.806" y="0">el</tspan></text>
		</g>
		<g transform="matrix(14 0 0 14 77.2986 157.1386)">
			<text style="fill:#000000; font-family:'MyriadApple-Semibold'; font-size:1;glyph-orientation-horizontal:0.0; kerning:0;"><tspan x="0" y="0">L</tspan><tspan x="0.477" y="0">as </tspan><tspan x="1.57" y="0">V</tspan><tspan x="2.102" y="0">egas</tspan><tspan x="4.038" y="0">,</tspan><tspan x="4.226" y="0"> N</tspan><tspan x="5.117" y="0">e</tspan><tspan x="5.613" y="0">v</tspan><tspan x="6.087" y="0">ada</tspan></text>
		</g>
		<clipPath id="clp2">
			<path style="shape-rendering:crispEdges;stroke:#000000;" d="M26.022,16.157V49.07h26.8V16.157H26.022z"/>
		</clipPath>
		<g style="clip-path:url(#clp2);">
			<clipPath id="clp3">
				<path style="shape-rendering:crispEdges;stroke:#000000;" d="M24.567,16.157h28.255V49.07H24.567z"/>
			</clipPath>
			<g style="clip-path:url(#clp3);">
				<g transform="matrix(0.9561 0 0 0.9561 -344.7967 319.1663)">
					<path style="fill:#999999;" d="M415.883-291.736c-0.043,0.121-0.721,2.465-2.378,4.883c-1.431,2.094-2.917,4.18-5.257,4.223
						c-2.3,0.043-3.039-1.365-5.667-1.365c-2.631,0-3.454,1.322-5.627,1.408c-2.26,0.085-3.981-2.262-5.424-4.348
						c-2.95-4.265-5.2-12.051-2.174-17.303c1.5-2.61,4.188-4.263,7.104-4.306c2.22-0.041,4.311,1.492,5.669,1.492
						c1.355,0,3.898-1.845,6.573-1.574c1.118,0.048,4.262,0.45,6.282,3.406c-0.162,0.102-3.752,2.19-3.713,6.535
						C411.318-293.486,415.831-291.759,415.883-291.736z M406.949-311.444c1.203-1.454,2.009-3.473,1.787-5.483
						c-1.728,0.063-3.82,1.15-5.059,2.601c-1.111,1.286-2.086,3.341-1.822,5.311C403.782-308.865,405.751-309.995,406.949-311.444"
						/>
				</g>
			</g>
		</g>
		<g transform="matrix(6.123234e-17 -1 1 6.123234e-17 568.2085 183.2126)">
			<text style="fill:#000000; font-family:'MyriadApple-Text'; font-size:1;glyph-orientation-horizontal:0.0; kerning:0;"><tspan x="0" y="0">_barcode_</tspan></text>
		</g>
		<g transform="matrix(14 0 0 14 77.2986 79.6583)">
			<text style="fill:#000000; font-family:'MyriadApple-Semibold'; font-size:1;glyph-orientation-horizontal:0.0; kerning:0;"><tspan x="0" y="0">C</tspan><tspan x="0.555" y="0">onfir</tspan><tspan x="2.548" y="0">ma</tspan><tspan x="3.861" y="0">tion </tspan><tspan x="5.744" y="0">Tick</tspan><tspan x="7.415" y="0">et f</tspan><tspan x="8.786" y="0">or</tspan><tspan x="9.682" y="0">:</tspan></text>
		</g>
		<g transform="matrix(14 0 0 14 225.3543 79.6583)">
			<text style="fill:#000000; font-family:'MyriadApple-Semibold'; font-size:1;glyph-orientation-horizontal:0.0; kerning:0;"><tspan x="0" y="0">_fullname_</tspan></text>
		</g>
		<g transform="matrix(9 0 0 9 77.2986 203.6402)">
			<text style="fill:#000000; font-family:'MyriadApple-Text'; font-size:1;glyph-orientation-horizontal:0.0; kerning:0;"><tspan x="0" y="0">Sp</tspan><tspan x="1.03" y="0">ecial </tspan><tspan x="3.075" y="0">VIP sea</tspan><tspan x="5.93" y="0">ting has b</tspan><tspan x="9.986" y="0">een ar</tspan><tspan x="12.527" y="0">r</tspan><tspan x="12.836" y="0">anged f</tspan><tspan x="15.931" y="0">or y</tspan><tspan x="17.464" y="0">our c</tspan><tspan x="19.519" y="0">on</tspan><tspan x="20.575" y="0">v</tspan><tspan x="21.03" y="0">enienc</tspan><tspan x="23.74" y="0">e .</tspan><tspan x="24.624" y="0"> P</tspan><tspan x="25.376" y="0">lease pr</tspan><tspan x="28.526" y="0">o</tspan><tspan x="29.06" y="0">c</tspan><tspan x="29.492" y="0">eed dir</tspan><tspan x="32.333" y="0">ec</tspan><tspan x="33.269" y="0">tly t</tspan><tspan x="34.823" y="0">o the </tspan><tspan x="37.151" y="0">VIP C</tspan><tspan x="39.233" y="0">heck-In D</tspan><tspan x="43.112" y="0">e</tspan><tspan x="43.593" y="0">sk t</tspan><tspan x="44.981" y="0">o pick up y</tspan><tspan x="49.436" y="0">our badge</tspan><tspan x="53.646" y="0">.</tspan></text>
		</g>
		<g transform="matrix(36 0 0 36 450.7086 48.6027)">
			<text style="fill:#000000; font-family:'MyriadApple-Bold'; font-size:1;glyph-orientation-horizontal:0.0; kerning:0;"><tspan x="0" y="0">- </tspan><tspan x="0.51" y="0">VIP</tspan></text>
		</g>
	</g>
</svg>
